<svg id="svg" version="1.1" xmlns="http://www.w3.org/2000/svg" xmlns:xlink="http://www.w3.org/1999/xlink" width="400" height="683.8709677419355" viewBox="0, 0, 400,683.8709677419355"><g id="svgg"><path id="path0" d="M342.460 3.600 C 342.537 5.580,342.454 7.200,342.276 7.200 C 342.098 7.200,342.064 7.020,342.200 6.800 C 342.359 6.543,341.183 6.419,338.924 6.453 C 336.210 6.493,335.722 6.577,336.800 6.819 C 337.650 7.009,336.785 7.054,334.600 6.933 C 329.171 6.632,328.695 7.648,329.600 17.600 L 329.800 19.800 323.720 19.800 C 316.063 19.800,316.600 19.263,316.600 26.920 L 316.600 33.000 314.400 32.800 C 304.448 31.895,303.432 32.371,303.733 37.800 C 303.854 39.985,303.809 40.850,303.619 40.000 C 303.370 38.890,303.294 39.273,303.253 41.848 L 303.200 45.096 297.900 45.297 C 291.654 45.535,291.339 45.634,290.810 47.540 C 290.315 49.320,290.291 54.847,290.768 56.902 C 290.997 57.888,290.972 58.494,290.697 58.664 C 290.451 58.816,290.395 58.732,290.562 58.462 C 290.770 58.125,289.945 58.014,287.524 58.053 C 284.896 58.094,284.493 58.172,285.600 58.422 C 286.455 58.616,285.658 58.656,283.551 58.526 C 277.716 58.167,277.335 58.654,277.781 65.912 C 277.939 68.491,278.098 70.779,278.134 70.998 C 278.175 71.247,275.909 71.396,272.068 71.398 C 264.381 71.401,264.614 71.213,264.991 77.100 C 265.170 79.902,265.118 81.200,264.827 81.200 C 264.592 81.200,264.400 81.931,264.400 82.824 C 264.400 83.949,264.542 84.360,264.862 84.162 C 265.120 84.002,265.216 84.051,265.079 84.272 C 264.920 84.530,263.885 84.538,262.117 84.296 C 258.829 83.846,253.344 84.096,252.715 84.725 C 252.093 85.347,251.664 88.657,251.629 93.100 L 251.600 96.800 247.500 96.817 C 243.097 96.836,240.198 97.242,239.503 97.937 C 238.914 98.526,238.632 106.191,239.121 108.302 C 239.392 109.468,239.384 110.086,239.096 110.264 C 238.851 110.416,238.795 110.331,238.962 110.062 C 239.170 109.725,238.345 109.614,235.924 109.653 C 233.326 109.694,232.906 109.773,234.000 110.016 C 234.826 110.199,233.843 110.245,231.600 110.128 C 225.916 109.831,225.562 110.543,226.400 120.600 L 226.600 123.000 220.468 123.000 C 212.781 123.000,213.014 122.813,213.391 128.700 C 213.570 131.502,213.518 132.800,213.227 132.800 C 212.992 132.800,212.800 133.531,212.800 134.424 C 212.800 135.549,212.942 135.960,213.262 135.762 C 213.520 135.602,213.616 135.651,213.479 135.872 C 213.320 136.130,212.285 136.138,210.517 135.896 C 207.229 135.446,201.744 135.696,201.115 136.325 C 200.493 136.947,200.064 140.257,200.029 144.700 L 200.000 148.400 195.900 148.417 C 191.497 148.436,188.598 148.842,187.903 149.537 C 187.314 150.126,187.032 157.791,187.521 159.902 C 187.792 161.068,187.784 161.686,187.496 161.864 C 187.251 162.016,187.195 161.931,187.362 161.662 C 187.570 161.325,186.745 161.214,184.324 161.253 C 181.726 161.294,181.306 161.373,182.400 161.616 C 183.226 161.799,182.243 161.845,180.000 161.728 C 174.316 161.431,173.962 162.143,174.800 172.200 L 175.000 174.600 168.868 174.600 C 161.181 174.600,161.414 174.413,161.791 180.300 C 161.970 183.102,161.918 184.400,161.627 184.400 C 161.392 184.400,161.200 185.131,161.200 186.024 C 161.200 187.149,161.342 187.560,161.662 187.362 C 161.920 187.202,162.016 187.251,161.879 187.472 C 161.720 187.730,160.685 187.738,158.917 187.496 C 154.931 186.951,150.011 187.297,149.374 188.168 C 148.765 189.000,148.268 194.374,148.461 198.036 L 148.600 200.673 147.200 200.346 C 145.135 199.864,139.209 199.973,137.616 200.523 C 135.831 201.139,135.466 202.657,135.716 208.443 L 135.898 212.685 130.397 212.903 C 122.530 213.215,122.507 213.240,122.995 221.057 L 123.279 225.600 121.839 225.600 C 121.048 225.600,120.400 225.777,120.400 225.992 C 120.400 226.231,118.612 226.349,115.825 226.292 C 109.982 226.174,110.174 225.982,110.292 231.825 C 110.349 234.612,110.231 236.400,109.992 236.400 C 109.777 236.400,109.600 237.041,109.600 237.824 C 109.600 238.798,109.746 239.157,110.062 238.962 C 110.316 238.805,110.421 238.843,110.295 239.047 C 110.155 239.273,108.426 239.278,105.855 239.060 C 100.761 238.627,98.170 238.934,97.578 240.040 C 96.896 241.315,96.544 252.206,97.198 251.801 C 97.532 251.595,97.627 251.633,97.459 251.905 C 97.272 252.206,96.749 252.211,95.697 251.920 C 94.150 251.492,86.719 251.684,85.528 252.183 C 84.119 252.773,83.596 257.380,84.346 262.600 L 84.633 264.600 82.437 264.458 C 79.079 264.242,72.945 264.806,72.128 265.406 C 71.491 265.874,71.398 266.584,71.383 271.071 C 71.363 277.492,71.428 277.200,70.000 277.200 C 69.340 277.200,68.800 277.377,68.800 277.592 C 68.800 277.832,66.994 277.949,64.172 277.892 C 58.241 277.774,58.252 277.763,58.529 283.400 C 58.646 285.791,58.602 286.756,58.419 285.800 C 58.166 284.474,58.104 284.774,58.057 287.548 L 58.000 290.896 53.814 290.610 C 45.729 290.059,45.533 290.229,45.280 298.000 L 45.103 303.400 39.566 303.400 C 32.266 303.400,32.588 303.077,32.637 310.358 L 32.675 315.882 27.153 316.119 C 19.411 316.450,19.279 316.582,19.792 323.427 C 20.124 327.856,19.910 328.800,18.573 328.800 C 18.038 328.800,17.600 328.975,17.600 329.188 C 17.600 329.423,15.689 329.542,12.772 329.488 C 6.607 329.376,6.644 329.341,6.923 335.000 C 7.036 337.300,6.989 338.405,6.813 337.600 C 6.568 336.486,6.495 336.838,6.453 339.324 C 6.412 341.720,6.516 342.380,6.900 342.159 C 7.175 342.001,7.269 342.016,7.109 342.193 C 6.950 342.370,5.285 342.478,3.409 342.433 L -0.000 342.351 -0.000 361.375 L 0.000 380.400 3.200 380.400 C 5.970 380.400,6.404 380.494,6.428 381.100 C 6.452 381.698,6.506 381.684,6.798 381.000 C 6.999 380.529,7.047 381.773,6.914 384.031 C 6.424 392.361,6.865 392.898,14.406 393.133 L 19.486 393.291 19.703 397.987 C 20.036 405.220,21.431 406.400,29.649 406.400 C 31.162 406.400,32.403 406.445,32.407 406.500 C 33.166 418.167,33.080 418.042,40.949 418.863 L 45.468 419.334 45.903 423.530 C 46.548 429.748,47.763 430.937,53.936 431.387 C 59.293 431.777,59.065 431.658,59.387 434.238 C 60.236 441.027,62.098 442.823,69.291 443.792 C 70.331 443.932,71.286 444.216,71.414 444.423 C 71.542 444.630,72.229 444.800,72.941 444.800 C 74.123 444.800,74.274 444.946,74.695 446.500 C 75.766 450.450,78.476 452.984,83.300 454.548 C 83.685 454.673,84.000 455.143,84.000 455.593 C 84.000 457.333,86.109 457.997,91.638 457.999 L 96.676 458.000 96.925 463.202 C 97.284 470.695,97.402 470.800,105.451 470.800 L 110.383 470.800 110.166 475.700 C 109.842 483.018,110.375 483.537,118.246 483.577 L 122.692 483.600 122.881 488.505 C 123.161 495.781,123.320 495.941,130.573 496.284 L 135.502 496.517 135.748 498.558 C 135.883 499.681,135.996 501.500,135.999 502.600 C 136.014 508.027,137.113 508.793,145.842 509.463 L 148.685 509.682 148.936 513.341 C 149.461 521.003,150.078 521.436,161.843 522.397 C 161.866 522.398,162.006 523.705,162.154 525.300 C 162.820 532.471,164.811 534.371,171.681 534.394 C 174.735 534.404,175.459 534.936,175.746 537.381 C 176.444 543.322,178.400 545.409,184.245 546.451 C 185.760 546.721,187.355 547.180,187.789 547.471 C 188.223 547.762,189.663 548.007,190.989 548.014 L 193.400 548.029 194.800 550.086 C 195.570 551.217,197.045 552.696,198.078 553.372 C 199.800 554.498,199.958 554.736,199.978 556.240 C 200.035 560.534,201.078 561.198,207.780 561.206 C 214.054 561.214,213.725 560.905,213.382 566.476 C 212.953 573.438,213.532 574.000,221.127 574.000 L 225.894 574.000 226.098 579.100 C 226.392 586.442,226.345 586.396,233.846 586.704 L 238.693 586.904 238.962 591.352 C 239.424 598.989,239.526 599.091,246.989 599.469 L 251.894 599.718 252.103 604.159 C 252.454 611.595,252.651 611.760,262.304 612.660 C 265.150 612.926,265.019 612.719,265.347 617.446 C 265.746 623.202,266.822 624.178,273.492 624.839 C 278.578 625.343,278.154 625.008,278.745 628.993 C 279.560 634.488,281.374 636.494,285.998 637.015 C 287.209 637.151,289.250 637.518,290.532 637.831 C 291.935 638.173,294.925 638.400,298.032 638.400 L 303.200 638.400 303.247 641.900 C 303.282 644.470,303.381 645.081,303.618 644.200 C 303.818 643.458,303.864 644.221,303.738 646.200 C 303.433 650.992,303.403 650.970,310.531 651.129 L 316.328 651.258 316.587 652.289 C 316.729 652.856,316.723 655.153,316.573 657.393 C 316.146 663.766,316.848 664.400,324.327 664.400 L 329.094 664.400 329.279 669.500 C 329.544 676.833,329.958 677.200,337.977 677.200 L 342.000 677.200 342.075 680.500 L 342.149 683.800 342.400 680.400 L 342.651 677.000 342.725 680.300 L 342.800 683.600 356.984 683.600 L 371.168 683.600 371.302 680.300 L 371.437 677.000 371.519 680.300 L 371.600 683.600 376.200 683.600 L 380.800 683.600 380.800 680.400 L 380.800 677.200 382.300 677.199 C 384.271 677.199,390.165 676.154,391.140 675.632 C 392.304 675.009,393.598 669.783,393.599 665.700 L 393.600 664.000 396.800 664.000 L 400.000 664.000 400.000 645.200 L 400.000 626.400 396.700 626.325 L 393.400 626.251 396.800 626.000 L 400.200 625.749 396.951 625.675 L 393.703 625.600 393.488 621.300 C 393.095 613.452,392.939 613.288,385.550 612.917 L 380.879 612.682 380.669 609.641 C 380.066 600.911,379.118 600.009,370.541 600.002 L 367.681 600.000 367.427 597.100 C 366.895 591.026,366.743 590.348,365.657 589.167 C 364.478 587.886,361.470 587.209,356.934 587.203 L 354.468 587.200 354.200 584.100 C 353.531 576.388,352.457 575.319,344.630 574.582 C 341.156 574.255,340.802 574.114,340.793 573.057 C 340.741 566.663,337.899 563.202,332.168 562.556 C 330.866 562.409,329.314 562.044,328.720 561.744 C 328.126 561.445,327.181 561.200,326.620 561.200 C 325.917 561.200,325.599 560.983,325.596 560.500 C 325.577 557.141,320.084 551.651,316.700 551.609 C 316.224 551.603,316.000 551.283,316.000 550.609 C 316.000 548.887,314.447 548.245,310.988 548.537 C 309.351 548.676,306.928 548.676,305.605 548.537 L 303.200 548.286 303.200 543.530 C 303.200 535.829,302.767 535.367,295.881 535.714 C 293.669 535.825,292.918 535.785,294.000 535.612 C 295.724 535.338,295.686 535.323,293.100 535.263 L 290.400 535.200 290.400 531.146 C 290.400 523.507,289.934 522.989,282.700 522.587 L 277.600 522.304 277.600 519.080 C 277.600 517.307,277.435 515.304,277.234 514.628 C 277.033 513.953,276.714 512.860,276.525 512.201 C 276.031 510.478,274.721 510.032,269.300 509.741 L 264.513 509.483 264.247 505.107 C 263.798 497.712,263.447 497.355,256.223 496.942 L 251.697 496.684 251.222 492.466 C 250.401 485.168,250.082 484.848,243.000 484.222 L 238.200 483.797 237.912 480.055 C 237.407 473.482,236.126 472.216,229.330 471.573 C 224.731 471.138,224.958 471.308,224.412 467.882 C 223.421 461.661,220.715 459.225,214.776 459.205 C 213.994 459.202,213.004 458.936,212.576 458.613 C 212.149 458.290,211.347 458.020,210.794 458.013 C 209.961 458.002,209.670 457.674,209.103 456.100 C 207.673 452.134,205.371 449.811,201.836 448.767 C 200.395 448.342,200.028 448.038,199.843 447.116 C 199.513 445.465,198.113 445.073,193.600 445.371 C 191.510 445.509,189.215 445.504,188.500 445.361 L 187.200 445.100 187.200 440.399 C 187.200 432.630,186.689 432.094,179.781 432.612 C 177.090 432.813,176.000 432.766,176.000 432.448 C 176.000 432.201,175.550 432.000,175.000 432.000 L 174.000 432.000 173.998 427.700 C 173.994 419.905,173.912 419.816,166.321 419.383 L 161.313 419.098 161.092 414.449 C 160.738 407.002,160.712 406.976,153.204 406.551 L 148.400 406.280 148.397 404.040 C 148.394 401.898,147.819 397.421,147.346 395.863 C 146.985 394.674,144.671 393.997,140.064 393.733 L 135.750 393.486 135.258 390.043 C 134.987 388.149,134.662 385.896,134.537 385.036 C 134.096 382.019,132.918 381.470,125.609 380.876 L 122.217 380.600 121.742 376.544 C 120.961 369.884,120.164 369.101,113.463 368.407 C 108.385 367.880,108.552 367.989,108.274 365.008 C 107.719 359.072,105.505 356.839,99.433 356.091 C 96.203 355.694,96.129 354.977,99.285 354.657 C 108.568 353.714,108.804 353.491,109.455 345.023 L 109.712 341.673 112.956 341.420 C 121.198 340.777,121.571 340.404,122.217 332.171 L 122.471 328.941 126.748 328.494 C 134.291 327.705,134.275 327.725,135.464 317.986 L 135.685 316.172 140.485 315.534 C 146.947 314.676,147.076 314.547,147.934 308.085 L 148.572 303.285 150.386 303.042 C 151.384 302.909,153.410 302.643,154.890 302.452 C 159.591 301.846,160.166 301.087,160.881 294.535 L 161.333 290.400 162.866 290.400 C 163.710 290.400,164.400 290.220,164.400 290.000 C 164.400 289.780,165.345 289.599,166.500 289.598 C 172.297 289.592,173.203 288.475,173.819 280.571 L 174.071 277.341 178.348 276.894 C 185.891 276.105,185.875 276.125,187.064 266.386 L 187.285 264.572 192.085 263.934 C 198.547 263.076,198.676 262.947,199.534 256.485 L 200.172 251.685 201.986 251.464 C 211.692 250.279,211.678 250.290,212.481 242.935 L 212.933 238.800 214.466 238.800 C 215.310 238.800,216.000 238.644,216.000 238.453 C 216.000 238.262,217.362 238.018,219.026 237.911 C 223.728 237.609,225.129 236.059,225.177 231.100 C 225.190 229.835,225.380 228.800,225.600 228.800 C 225.820 228.800,226.000 228.110,226.000 227.266 L 226.000 225.733 230.135 225.281 C 237.490 224.478,237.479 224.492,238.664 214.786 L 238.885 212.972 243.685 212.334 C 250.147 211.476,250.276 211.347,251.134 204.885 L 251.772 200.085 253.586 199.864 C 263.292 198.679,263.278 198.690,264.081 191.335 L 264.533 187.200 266.066 187.200 C 266.910 187.200,267.600 187.020,267.600 186.800 C 267.600 186.580,268.635 186.390,269.900 186.377 C 274.859 186.329,276.409 184.928,276.711 180.226 C 276.818 178.562,277.062 177.200,277.253 177.200 C 277.444 177.200,277.600 176.496,277.600 175.635 C 277.600 173.878,277.465 173.931,283.251 173.393 C 287.938 172.958,289.493 171.474,289.570 167.367 C 289.586 166.468,289.802 164.729,290.048 163.502 C 290.553 160.989,290.334 161.100,295.800 160.574 C 301.145 160.060,302.060 159.145,302.574 153.800 C 303.100 148.334,302.989 148.553,305.502 148.048 C 306.729 147.802,308.468 147.586,309.367 147.570 C 313.474 147.493,314.958 145.938,315.393 141.251 C 315.968 135.070,315.778 135.248,322.485 134.613 C 326.713 134.213,327.915 133.012,328.248 128.855 C 328.761 122.460,329.112 122.022,333.750 121.982 C 339.303 121.935,340.563 120.643,341.419 114.126 C 342.086 109.043,341.498 109.649,346.252 109.139 C 353.107 108.403,353.603 107.907,354.339 101.052 C 354.850 96.297,354.186 96.914,359.545 96.207 C 365.894 95.370,366.610 94.767,367.024 89.910 C 367.577 83.411,367.400 83.583,374.081 83.045 C 378.307 82.705,379.505 81.507,379.845 77.281 C 380.383 70.600,380.211 70.777,386.710 70.224 C 389.486 69.988,391.356 69.203,391.997 68.006 C 392.301 67.437,393.600 59.434,393.600 58.125 C 393.600 58.056,395.040 58.000,396.800 58.000 L 400.000 58.000 400.000 39.000 L 400.000 20.000 396.800 20.000 L 393.600 20.000 393.600 15.049 C 393.600 6.960,393.236 6.577,385.899 6.937 C 383.342 7.063,382.477 7.022,383.600 6.829 L 385.400 6.520 383.100 6.460 L 380.800 6.400 380.800 3.200 L 380.800 0.000 361.560 0.000 L 342.320 0.000 342.460 3.600 M329.876 12.300 C 329.775 12.685,329.693 12.370,329.693 11.600 C 329.693 10.830,329.775 10.515,329.876 10.900 C 329.976 11.285,329.976 11.915,329.876 12.300 M309.100 33.076 C 308.715 33.176,308.085 33.176,307.700 33.076 C 307.315 32.975,307.630 32.893,308.400 32.893 C 309.170 32.893,309.485 32.975,309.100 33.076 M297.500 45.876 C 297.115 45.976,296.485 45.976,296.100 45.876 C 295.715 45.775,296.030 45.693,296.800 45.693 C 297.570 45.693,297.885 45.775,297.500 45.876 M291.076 52.300 C 290.975 52.685,290.893 52.370,290.893 51.600 C 290.893 50.830,290.975 50.515,291.076 50.900 C 291.176 51.285,291.176 51.915,291.076 52.300 M278.276 64.300 C 278.175 64.685,278.093 64.370,278.093 63.600 C 278.093 62.830,278.175 62.515,278.276 62.900 C 278.376 63.285,278.376 63.915,278.276 64.300 M257.900 84.676 C 257.515 84.776,256.885 84.776,256.500 84.676 C 256.115 84.575,256.430 84.493,257.200 84.493 C 257.970 84.493,258.285 84.575,257.900 84.676 M252.282 91.700 C 252.187 92.195,252.109 91.790,252.109 90.800 C 252.109 89.810,252.187 89.405,252.282 89.900 C 252.378 90.395,252.378 91.205,252.282 91.700 M245.900 97.476 C 245.515 97.576,244.885 97.576,244.500 97.476 C 244.115 97.375,244.430 97.293,245.200 97.293 C 245.970 97.293,246.285 97.375,245.900 97.476 M239.476 103.500 C 239.375 103.885,239.293 103.570,239.293 102.800 C 239.293 102.030,239.375 101.715,239.476 102.100 C 239.576 102.485,239.576 103.115,239.476 103.500 M226.676 115.500 C 226.575 115.885,226.493 115.570,226.493 114.800 C 226.493 114.030,226.575 113.715,226.676 114.100 C 226.776 114.485,226.776 115.115,226.676 115.500 M206.300 136.276 C 205.915 136.376,205.285 136.376,204.900 136.276 C 204.515 136.175,204.830 136.093,205.600 136.093 C 206.370 136.093,206.685 136.175,206.300 136.276 M200.682 143.300 C 200.587 143.795,200.509 143.390,200.509 142.400 C 200.509 141.410,200.587 141.005,200.682 141.500 C 200.778 141.995,200.778 142.805,200.682 143.300 M194.300 149.076 C 193.915 149.176,193.285 149.176,192.900 149.076 C 192.515 148.975,192.830 148.893,193.600 148.893 C 194.370 148.893,194.685 148.975,194.300 149.076 M187.876 155.100 C 187.775 155.485,187.693 155.170,187.693 154.400 C 187.693 153.630,187.775 153.315,187.876 153.700 C 187.976 154.085,187.976 154.715,187.876 155.100 M175.076 167.100 C 174.975 167.485,174.893 167.170,174.893 166.400 C 174.893 165.630,174.975 165.315,175.076 165.700 C 175.176 166.085,175.176 166.715,175.076 167.100 M154.700 187.876 C 154.315 187.976,153.685 187.976,153.300 187.876 C 152.915 187.775,153.230 187.693,154.000 187.693 C 154.770 187.693,155.085 187.775,154.700 187.876 M149.082 194.900 C 148.987 195.395,148.909 194.990,148.909 194.000 C 148.909 193.010,148.987 192.605,149.082 193.100 C 149.178 193.595,149.178 194.405,149.082 194.900 M142.705 200.675 C 142.322 200.775,141.602 200.779,141.105 200.683 C 140.607 200.587,140.920 200.505,141.800 200.501 C 142.680 200.496,143.087 200.575,142.705 200.675 M136.276 206.700 C 136.175 207.085,136.093 206.770,136.093 206.000 C 136.093 205.230,136.175 204.915,136.276 205.300 C 136.376 205.685,136.376 206.315,136.276 206.700 M130.500 213.482 C 130.005 213.578,129.195 213.578,128.700 213.482 C 128.205 213.387,128.610 213.309,129.600 213.309 C 130.590 213.309,130.995 213.387,130.500 213.482 M103.100 239.476 C 102.715 239.576,102.085 239.576,101.700 239.476 C 101.315 239.375,101.630 239.293,102.400 239.293 C 103.170 239.293,103.485 239.375,103.100 239.476 M97.482 246.900 C 97.387 247.395,97.309 246.990,97.309 246.000 C 97.309 245.010,97.387 244.605,97.482 245.100 C 97.578 245.595,97.578 246.405,97.482 246.900 M91.105 252.275 C 90.722 252.375,90.002 252.379,89.505 252.283 C 89.007 252.187,89.320 252.105,90.200 252.101 C 91.080 252.096,91.487 252.175,91.105 252.275 M84.683 258.495 C 84.587 258.993,84.505 258.680,84.501 257.800 C 84.496 256.920,84.575 256.513,84.675 256.895 C 84.775 257.278,84.779 257.998,84.683 258.495 M79.300 265.082 C 78.805 265.178,77.995 265.178,77.500 265.082 C 77.005 264.987,77.410 264.909,78.400 264.909 C 79.390 264.909,79.795 264.987,79.300 265.082 M51.500 291.076 C 51.115 291.176,50.485 291.176,50.100 291.076 C 49.715 290.975,50.030 290.893,50.800 290.893 C 51.570 290.893,51.885 290.975,51.500 291.076 M45.883 297.695 C 45.787 298.193,45.705 297.880,45.701 297.000 C 45.696 296.120,45.775 295.713,45.875 296.095 C 45.975 296.478,45.979 297.198,45.883 297.695 M39.505 303.875 C 39.122 303.975,38.402 303.979,37.905 303.883 C 37.407 303.787,37.720 303.705,38.600 303.701 C 39.480 303.696,39.887 303.775,39.505 303.875 M33.083 309.695 C 32.987 310.193,32.905 309.880,32.901 309.000 C 32.896 308.120,32.975 307.713,33.075 308.095 C 33.175 308.478,33.179 309.198,33.083 309.695 M27.700 316.682 C 27.205 316.778,26.395 316.778,25.900 316.682 C 25.405 316.587,25.810 316.509,26.800 316.509 C 27.790 316.509,28.195 316.587,27.700 316.682 M151.305 407.082 C 150.814 407.177,149.914 407.179,149.305 407.087 C 148.697 406.995,149.100 406.917,150.200 406.914 C 151.300 406.911,151.797 406.987,151.305 407.082 M165.100 419.887 C 164.495 419.978,163.505 419.978,162.900 419.887 C 162.295 419.795,162.790 419.720,164.000 419.720 C 165.210 419.720,165.705 419.795,165.100 419.887 M97.482 464.100 C 97.387 464.595,97.309 464.190,97.309 463.200 C 97.309 462.210,97.387 461.805,97.482 462.300 C 97.578 462.795,97.578 463.605,97.482 464.100 M267.500 510.287 C 266.895 510.378,265.905 510.378,265.300 510.287 C 264.695 510.195,265.190 510.120,266.400 510.120 C 267.610 510.120,268.105 510.195,267.500 510.287 M281.507 523.086 C 280.906 523.177,279.826 523.179,279.107 523.090 C 278.388 523.001,278.880 522.926,280.200 522.924 C 281.520 522.922,282.108 522.995,281.507 523.086 M226.687 579.100 C 226.595 579.705,226.520 579.210,226.520 578.000 C 226.520 576.790,226.595 576.295,226.687 576.900 C 226.778 577.505,226.778 578.495,226.687 579.100 M239.476 588.700 C 239.375 589.085,239.293 588.770,239.293 588.000 C 239.293 587.230,239.375 586.915,239.476 587.300 C 239.576 587.685,239.576 588.315,239.476 588.700 M384.307 613.486 C 383.706 613.577,382.626 613.579,381.907 613.490 C 381.188 613.401,381.680 613.326,383.000 613.324 C 384.320 613.322,384.908 613.395,384.307 613.486 M329.887 669.895 C 329.795 670.503,329.717 670.100,329.714 669.000 C 329.711 667.900,329.787 667.403,329.882 667.895 C 329.977 668.386,329.979 669.286,329.887 669.895 " stroke="none" fill="#545454" fill-rule="evenodd"></path><path id="path1" d="M342.096 3.500 C 342.101 5.535,342.222 7.200,342.366 7.200 C 342.509 7.200,342.567 5.895,342.495 4.300 C 342.292 -0.185,342.085 -0.599,342.096 3.500 M335.500 7.082 C 335.995 7.178,336.805 7.178,337.300 7.082 C 337.795 6.987,337.390 6.909,336.400 6.909 C 335.410 6.909,335.005 6.987,335.500 7.082 M383.107 7.090 C 383.826 7.179,384.906 7.177,385.507 7.086 C 386.108 6.995,385.520 6.922,384.200 6.924 C 382.880 6.926,382.388 7.001,383.107 7.090 M329.693 11.600 C 329.693 12.370,329.775 12.685,329.876 12.300 C 329.976 11.915,329.976 11.285,329.876 10.900 C 329.775 10.515,329.693 10.830,329.693 11.600 M329.310 17.514 C 329.322 18.896,329.456 19.886,329.607 19.714 C 329.757 19.541,329.748 18.410,329.584 17.200 L 329.288 15.000 329.310 17.514 M324.100 19.887 C 324.705 19.978,325.695 19.978,326.300 19.887 C 326.905 19.795,326.410 19.720,325.200 19.720 C 323.990 19.720,323.495 19.795,324.100 19.887 M395.100 19.893 C 396.035 19.977,397.565 19.977,398.500 19.893 C 399.435 19.809,398.670 19.740,396.800 19.740 C 394.930 19.740,394.165 19.809,395.100 19.893 M316.520 28.400 C 316.520 29.610,316.595 30.105,316.687 29.500 C 316.778 28.895,316.778 27.905,316.687 27.300 C 316.595 26.695,316.520 27.190,316.520 28.400 M314.000 32.784 C 315.210 32.948,316.341 32.957,316.514 32.807 C 316.686 32.656,315.696 32.522,314.314 32.510 L 311.800 32.488 314.000 32.784 M307.700 33.076 C 308.085 33.176,308.715 33.176,309.100 33.076 C 309.485 32.975,309.170 32.893,308.400 32.893 C 307.630 32.893,307.315 32.975,307.700 33.076 M303.709 39.600 C 303.709 40.590,303.787 40.995,303.882 40.500 C 303.978 40.005,303.978 39.195,303.882 38.700 C 303.787 38.205,303.709 38.610,303.709 39.600 M296.100 45.876 C 296.485 45.976,297.115 45.976,297.500 45.876 C 297.885 45.775,297.570 45.693,296.800 45.693 C 296.030 45.693,295.715 45.775,296.100 45.876 M290.893 51.600 C 290.893 52.370,290.975 52.685,291.076 52.300 C 291.176 51.915,291.176 51.285,291.076 50.900 C 290.975 50.515,290.893 50.830,290.893 51.600 M290.467 57.374 C 290.518 58.130,290.674 58.678,290.813 58.592 C 291.081 58.426,290.827 56.000,290.542 56.000 C 290.450 56.000,290.417 56.618,290.467 57.374 M284.300 58.682 C 284.795 58.778,285.605 58.778,286.100 58.682 C 286.595 58.587,286.190 58.509,285.200 58.509 C 284.210 58.509,283.805 58.587,284.300 58.682 M278.093 63.600 C 278.093 64.370,278.175 64.685,278.276 64.300 C 278.376 63.915,278.376 63.285,278.276 62.900 C 278.175 62.515,278.093 62.830,278.093 63.600 M277.639 68.913 C 277.687 70.395,277.821 71.513,277.936 71.398 C 278.187 71.146,278.014 66.681,277.742 66.409 C 277.638 66.304,277.591 67.431,277.639 68.913 M272.900 71.487 C 273.505 71.578,274.495 71.578,275.100 71.487 C 275.705 71.395,275.210 71.320,274.000 71.320 C 272.790 71.320,272.295 71.395,272.900 71.487 M264.914 79.400 C 264.917 80.500,264.995 80.903,265.087 80.295 C 265.179 79.686,265.177 78.786,265.082 78.295 C 264.987 77.803,264.911 78.300,264.914 79.400 M261.209 84.140 C 261.491 84.417,264.731 84.602,264.978 84.355 C 265.095 84.238,264.252 84.100,263.105 84.047 C 261.958 83.995,261.105 84.037,261.209 84.140 M256.500 84.676 C 256.885 84.776,257.515 84.776,257.900 84.676 C 258.285 84.575,257.970 84.493,257.200 84.493 C 256.430 84.493,256.115 84.575,256.500 84.676 M252.109 90.800 C 252.109 91.790,252.187 92.195,252.282 91.700 C 252.378 91.205,252.378 90.395,252.282 89.900 C 252.187 89.405,252.109 89.810,252.109 90.800 M244.500 97.476 C 244.885 97.576,245.515 97.576,245.900 97.476 C 246.285 97.375,245.970 97.293,245.200 97.293 C 244.430 97.293,244.115 97.375,244.500 97.476 M239.293 102.800 C 239.293 103.570,239.375 103.885,239.476 103.500 C 239.576 103.115,239.576 102.485,239.476 102.100 C 239.375 101.715,239.293 102.030,239.293 102.800 M238.867 108.974 C 238.918 109.730,239.074 110.278,239.213 110.192 C 239.481 110.026,239.227 107.600,238.942 107.600 C 238.850 107.600,238.817 108.218,238.867 108.974 M232.700 110.282 C 233.195 110.378,234.005 110.378,234.500 110.282 C 234.995 110.187,234.590 110.109,233.600 110.109 C 232.610 110.109,232.205 110.187,232.700 110.282 M226.493 114.800 C 226.493 115.570,226.575 115.885,226.676 115.500 C 226.776 115.115,226.776 114.485,226.676 114.100 C 226.575 113.715,226.493 114.030,226.493 114.800 M226.110 120.516 C 226.120 122.010,226.249 123.090,226.399 122.916 C 226.548 122.742,226.541 121.520,226.382 120.200 L 226.093 117.800 226.110 120.516 M221.300 123.087 C 221.905 123.178,222.895 123.178,223.500 123.087 C 224.105 122.995,223.610 122.920,222.400 122.920 C 221.190 122.920,220.695 122.995,221.300 123.087 M213.314 131.000 C 213.317 132.100,213.395 132.503,213.487 131.895 C 213.579 131.286,213.577 130.386,213.482 129.895 C 213.387 129.403,213.311 129.900,213.314 131.000 M209.609 135.740 C 209.891 136.017,213.131 136.202,213.378 135.955 C 213.495 135.838,212.652 135.700,211.505 135.647 C 210.358 135.595,209.505 135.637,209.609 135.740 M204.900 136.276 C 205.285 136.376,205.915 136.376,206.300 136.276 C 206.685 136.175,206.370 136.093,205.600 136.093 C 204.830 136.093,204.515 136.175,204.900 136.276 M200.509 142.400 C 200.509 143.390,200.587 143.795,200.682 143.300 C 200.778 142.805,200.778 141.995,200.682 141.500 C 200.587 141.005,200.509 141.410,200.509 142.400 M192.900 149.076 C 193.285 149.176,193.915 149.176,194.300 149.076 C 194.685 148.975,194.370 148.893,193.600 148.893 C 192.830 148.893,192.515 148.975,192.900 149.076 M187.693 154.400 C 187.693 155.170,187.775 155.485,187.876 155.100 C 187.976 154.715,187.976 154.085,187.876 153.700 C 187.775 153.315,187.693 153.630,187.693 154.400 M187.267 160.574 C 187.318 161.330,187.474 161.878,187.613 161.792 C 187.881 161.626,187.627 159.200,187.342 159.200 C 187.250 159.200,187.217 159.818,187.267 160.574 M181.100 161.882 C 181.595 161.978,182.405 161.978,182.900 161.882 C 183.395 161.787,182.990 161.709,182.000 161.709 C 181.010 161.709,180.605 161.787,181.100 161.882 M174.893 166.400 C 174.893 167.170,174.975 167.485,175.076 167.100 C 175.176 166.715,175.176 166.085,175.076 165.700 C 174.975 165.315,174.893 165.630,174.893 166.400 M174.510 172.116 C 174.520 173.610,174.649 174.690,174.799 174.516 C 174.948 174.342,174.941 173.120,174.782 171.800 L 174.493 169.400 174.510 172.116 M169.700 174.687 C 170.305 174.778,171.295 174.778,171.900 174.687 C 172.505 174.595,172.010 174.520,170.800 174.520 C 169.590 174.520,169.095 174.595,169.700 174.687 M161.714 182.600 C 161.717 183.700,161.795 184.103,161.887 183.495 C 161.979 182.886,161.977 181.986,161.882 181.495 C 161.787 181.003,161.711 181.500,161.714 182.600 M158.009 187.340 C 158.291 187.617,161.531 187.802,161.778 187.555 C 161.895 187.438,161.052 187.300,159.905 187.247 C 158.758 187.195,157.905 187.237,158.009 187.340 M153.300 187.876 C 153.685 187.976,154.315 187.976,154.700 187.876 C 155.085 187.775,154.770 187.693,154.000 187.693 C 153.230 187.693,152.915 187.775,153.300 187.876 M148.909 194.000 C 148.909 194.990,148.987 195.395,149.082 194.900 C 149.178 194.405,149.178 193.595,149.082 193.100 C 148.987 192.605,148.909 193.010,148.909 194.000 M146.400 200.155 C 146.400 200.240,146.930 200.387,147.579 200.482 C 148.227 200.577,148.667 200.508,148.555 200.328 C 148.357 200.007,146.400 199.850,146.400 200.155 M141.105 200.683 C 141.602 200.779,142.322 200.775,142.705 200.675 C 143.087 200.575,142.680 200.496,141.800 200.501 C 140.920 200.505,140.607 200.587,141.105 200.683 M136.093 206.000 C 136.093 206.770,136.175 207.085,136.276 206.700 C 136.376 206.315,136.376 205.685,136.276 205.300 C 136.175 204.915,136.093 205.230,136.093 206.000 M128.700 213.482 C 129.195 213.578,130.005 213.578,130.500 213.482 C 130.995 213.387,130.590 213.309,129.600 213.309 C 128.610 213.309,128.205 213.387,128.700 213.482 M122.924 223.400 C 122.926 224.720,123.001 225.212,123.090 224.493 C 123.179 223.774,123.177 222.694,123.086 222.093 C 122.995 221.492,122.922 222.080,122.924 223.400 M117.300 226.287 C 117.905 226.378,118.895 226.378,119.500 226.287 C 120.105 226.195,119.610 226.120,118.400 226.120 C 117.190 226.120,116.695 226.195,117.300 226.287 M110.120 234.400 C 110.120 235.610,110.195 236.105,110.287 235.500 C 110.378 234.895,110.378 233.905,110.287 233.300 C 110.195 232.695,110.120 233.190,110.120 234.400 M105.209 238.942 C 105.481 239.214,109.946 239.387,110.198 239.136 C 110.313 239.021,109.195 238.887,107.713 238.839 C 106.231 238.791,105.104 238.838,105.209 238.942 M101.700 239.476 C 102.085 239.576,102.715 239.576,103.100 239.476 C 103.485 239.375,103.170 239.293,102.400 239.293 C 101.630 239.293,101.315 239.375,101.700 239.476 M97.309 246.000 C 97.309 246.990,97.387 247.395,97.482 246.900 C 97.578 246.405,97.578 245.595,97.482 245.100 C 97.387 244.605,97.309 245.010,97.309 246.000 M95.200 251.747 C 95.200 252.037,97.216 252.298,97.382 252.029 C 97.471 251.884,97.017 251.726,96.372 251.677 C 95.728 251.627,95.200 251.659,95.200 251.747 M89.505 252.283 C 90.002 252.379,90.722 252.375,91.105 252.275 C 91.487 252.175,91.080 252.096,90.200 252.101 C 89.320 252.105,89.007 252.187,89.505 252.283 M84.501 257.800 C 84.505 258.680,84.587 258.993,84.683 258.495 C 84.779 257.998,84.775 257.278,84.675 256.895 C 84.575 256.513,84.496 256.920,84.501 257.800 M84.032 262.676 C 84.014 263.598,84.142 264.441,84.316 264.548 C 84.490 264.656,84.567 264.082,84.487 263.272 C 84.269 261.058,84.067 260.795,84.032 262.676 M77.500 265.082 C 77.995 265.178,78.805 265.178,79.300 265.082 C 79.795 264.987,79.390 264.909,78.400 264.909 C 77.410 264.909,77.005 264.987,77.500 265.082 M71.324 274.200 C 71.326 275.520,71.401 276.012,71.490 275.293 C 71.579 274.574,71.577 273.494,71.486 272.893 C 71.395 272.292,71.322 272.880,71.324 274.200 M65.700 277.887 C 66.305 277.978,67.295 277.978,67.900 277.887 C 68.505 277.795,68.010 277.720,66.800 277.720 C 65.590 277.720,65.095 277.795,65.700 277.887 M58.514 285.400 C 58.517 286.500,58.595 286.903,58.687 286.295 C 58.779 285.686,58.777 284.786,58.682 284.295 C 58.587 283.803,58.511 284.300,58.514 285.400 M54.707 290.690 C 55.426 290.779,56.506 290.777,57.107 290.686 C 57.708 290.595,57.120 290.522,55.800 290.524 C 54.480 290.526,53.988 290.601,54.707 290.690 M50.100 291.076 C 50.485 291.176,51.115 291.176,51.500 291.076 C 51.885 290.975,51.570 290.893,50.800 290.893 C 50.030 290.893,49.715 290.975,50.100 291.076 M45.701 297.000 C 45.705 297.880,45.787 298.193,45.883 297.695 C 45.979 297.198,45.975 296.478,45.875 296.095 C 45.775 295.713,45.696 296.120,45.701 297.000 M37.905 303.883 C 38.402 303.979,39.122 303.975,39.505 303.875 C 39.887 303.775,39.480 303.696,38.600 303.701 C 37.720 303.705,37.407 303.787,37.905 303.883 M32.901 309.000 C 32.905 309.880,32.987 310.193,33.083 309.695 C 33.179 309.198,33.175 308.478,33.075 308.095 C 32.975 307.713,32.896 308.120,32.901 309.000 M32.509 314.400 C 32.509 315.390,32.587 315.795,32.682 315.300 C 32.778 314.805,32.778 313.995,32.682 313.500 C 32.587 313.005,32.509 313.410,32.509 314.400 M25.900 316.682 C 26.395 316.778,27.205 316.778,27.700 316.682 C 28.195 316.587,27.790 316.509,26.800 316.509 C 25.810 316.509,25.405 316.587,25.900 316.682 M19.724 325.800 C 19.726 327.120,19.801 327.612,19.890 326.893 C 19.979 326.174,19.977 325.094,19.886 324.493 C 19.795 323.892,19.722 324.480,19.724 325.800 M14.500 329.487 C 15.105 329.578,16.095 329.578,16.700 329.487 C 17.305 329.395,16.810 329.320,15.600 329.320 C 14.390 329.320,13.895 329.395,14.500 329.487 M6.909 337.200 C 6.909 338.190,6.987 338.595,7.082 338.100 C 7.178 337.605,7.178 336.795,7.082 336.300 C 6.987 335.805,6.909 336.210,6.909 337.200 M0.017 342.150 C 0.285 342.418,6.765 342.568,7.021 342.312 C 7.135 342.199,5.561 342.072,3.525 342.031 C 1.489 341.990,-0.090 342.043,0.017 342.150 M6.893 381.600 C 6.893 382.370,6.975 382.685,7.076 382.300 C 7.176 381.915,7.176 381.285,7.076 380.900 C 6.975 380.515,6.893 380.830,6.893 381.600 M149.305 407.087 C 149.914 407.179,150.814 407.177,151.305 407.082 C 151.797 406.987,151.300 406.911,150.200 406.914 C 149.100 406.917,148.697 406.995,149.305 407.087 M162.900 419.887 C 163.505 419.978,164.495 419.978,165.100 419.887 C 165.705 419.795,165.210 419.720,164.000 419.720 C 162.790 419.720,162.295 419.795,162.900 419.887 M176.900 432.687 C 177.505 432.778,178.495 432.778,179.100 432.687 C 179.705 432.595,179.210 432.520,178.000 432.520 C 176.790 432.520,176.295 432.595,176.900 432.687 M189.700 445.487 C 190.305 445.578,191.295 445.578,191.900 445.487 C 192.505 445.395,192.010 445.320,190.800 445.320 C 189.590 445.320,189.095 445.395,189.700 445.487 M97.309 463.200 C 97.309 464.190,97.387 464.595,97.482 464.100 C 97.578 463.605,97.578 462.795,97.482 462.300 C 97.387 461.805,97.309 462.210,97.309 463.200 M110.109 472.400 C 110.109 473.390,110.187 473.795,110.282 473.300 C 110.378 472.805,110.378 471.995,110.282 471.500 C 110.187 471.005,110.109 471.410,110.109 472.400 M265.300 510.287 C 265.905 510.378,266.895 510.378,267.500 510.287 C 268.105 510.195,267.610 510.120,266.400 510.120 C 265.190 510.120,264.695 510.195,265.300 510.287 M279.107 523.090 C 279.826 523.179,280.906 523.177,281.507 523.086 C 282.108 522.995,281.520 522.922,280.200 522.924 C 278.880 522.926,278.388 523.001,279.107 523.090 M292.900 535.887 C 293.505 535.978,294.495 535.978,295.100 535.887 C 295.705 535.795,295.210 535.720,294.000 535.720 C 292.790 535.720,292.295 535.795,292.900 535.887 M307.305 548.687 C 307.914 548.779,308.814 548.777,309.305 548.682 C 309.797 548.587,309.300 548.511,308.200 548.514 C 307.100 548.517,306.697 548.595,307.305 548.687 M213.324 563.800 C 213.326 565.120,213.401 565.612,213.490 564.893 C 213.579 564.174,213.577 563.094,213.486 562.493 C 213.395 561.892,213.322 562.480,213.324 563.800 M226.520 578.000 C 226.520 579.210,226.595 579.705,226.687 579.100 C 226.778 578.495,226.778 577.505,226.687 576.900 C 226.595 576.295,226.520 576.790,226.520 578.000 M239.293 588.000 C 239.293 588.770,239.375 589.085,239.476 588.700 C 239.576 588.315,239.576 587.685,239.476 587.300 C 239.375 586.915,239.293 587.230,239.293 588.000 M381.907 613.490 C 382.626 613.579,383.706 613.577,384.307 613.486 C 384.908 613.395,384.320 613.322,383.000 613.324 C 381.680 613.326,381.188 613.401,381.907 613.490 M395.100 626.293 C 396.035 626.377,397.565 626.377,398.500 626.293 C 399.435 626.209,398.670 626.140,396.800 626.140 C 394.930 626.140,394.165 626.209,395.100 626.293 M303.701 644.600 C 303.705 645.480,303.787 645.793,303.883 645.295 C 303.979 644.798,303.975 644.078,303.875 643.695 C 303.775 643.313,303.696 643.720,303.701 644.600 M316.524 654.600 C 316.526 655.920,316.601 656.412,316.690 655.693 C 316.779 654.974,316.777 653.894,316.686 653.293 C 316.595 652.692,316.522 653.280,316.524 654.600 M329.714 669.000 C 329.717 670.100,329.795 670.503,329.887 669.895 C 329.979 669.286,329.977 668.386,329.882 667.895 C 329.787 667.403,329.711 667.900,329.714 669.000 M342.540 680.400 C 342.540 682.270,342.609 683.035,342.693 682.100 C 342.777 681.165,342.777 679.635,342.693 678.700 C 342.609 677.765,342.540 678.530,342.540 680.400 M371.340 680.400 C 371.340 682.270,371.409 683.035,371.493 682.100 C 371.577 681.165,371.577 679.635,371.493 678.700 C 371.409 677.765,371.340 678.530,371.340 680.400 " stroke="none" fill="#585454" fill-rule="evenodd"></path><path id="path2" d="M342.096 3.500 C 342.101 5.535,342.222 7.200,342.366 7.200 C 342.509 7.200,342.567 5.895,342.495 4.300 C 342.292 -0.185,342.085 -0.599,342.096 3.500 M335.500 7.082 C 335.995 7.178,336.805 7.178,337.300 7.082 C 337.795 6.987,337.390 6.909,336.400 6.909 C 335.410 6.909,335.005 6.987,335.500 7.082 M383.107 7.090 C 383.826 7.179,384.906 7.177,385.507 7.086 C 386.108 6.995,385.520 6.922,384.200 6.924 C 382.880 6.926,382.388 7.001,383.107 7.090 M329.693 11.600 C 329.693 12.370,329.775 12.685,329.876 12.300 C 329.976 11.915,329.976 11.285,329.876 10.900 C 329.775 10.515,329.693 10.830,329.693 11.600 M329.310 17.514 C 329.322 18.896,329.456 19.886,329.607 19.714 C 329.757 19.541,329.748 18.410,329.584 17.200 L 329.288 15.000 329.310 17.514 M324.100 19.887 C 324.705 19.978,325.695 19.978,326.300 19.887 C 326.905 19.795,326.410 19.720,325.200 19.720 C 323.990 19.720,323.495 19.795,324.100 19.887 M395.100 19.893 C 396.035 19.977,397.565 19.977,398.500 19.893 C 399.435 19.809,398.670 19.740,396.800 19.740 C 394.930 19.740,394.165 19.809,395.100 19.893 M316.520 28.400 C 316.520 29.610,316.595 30.105,316.687 29.500 C 316.778 28.895,316.778 27.905,316.687 27.300 C 316.595 26.695,316.520 27.190,316.520 28.400 M314.000 32.784 C 315.210 32.948,316.341 32.957,316.514 32.807 C 316.686 32.656,315.696 32.522,314.314 32.510 L 311.800 32.488 314.000 32.784 M307.700 33.076 C 308.085 33.176,308.715 33.176,309.100 33.076 C 309.485 32.975,309.170 32.893,308.400 32.893 C 307.630 32.893,307.315 32.975,307.700 33.076 M303.709 39.600 C 303.709 40.590,303.787 40.995,303.882 40.500 C 303.978 40.005,303.978 39.195,303.882 38.700 C 303.787 38.205,303.709 38.610,303.709 39.600 M296.100 45.876 C 296.485 45.976,297.115 45.976,297.500 45.876 C 297.885 45.775,297.570 45.693,296.800 45.693 C 296.030 45.693,295.715 45.775,296.100 45.876 M290.893 51.600 C 290.893 52.370,290.975 52.685,291.076 52.300 C 291.176 51.915,291.176 51.285,291.076 50.900 C 290.975 50.515,290.893 50.830,290.893 51.600 M290.467 57.374 C 290.518 58.130,290.674 58.678,290.813 58.592 C 291.081 58.426,290.827 56.000,290.542 56.000 C 290.450 56.000,290.417 56.618,290.467 57.374 M284.300 58.682 C 284.795 58.778,285.605 58.778,286.100 58.682 C 286.595 58.587,286.190 58.509,285.200 58.509 C 284.210 58.509,283.805 58.587,284.300 58.682 M278.093 63.600 C 278.093 64.370,278.175 64.685,278.276 64.300 C 278.376 63.915,278.376 63.285,278.276 62.900 C 278.175 62.515,278.093 62.830,278.093 63.600 M277.639 68.913 C 277.687 70.395,277.821 71.513,277.936 71.398 C 278.187 71.146,278.014 66.681,277.742 66.409 C 277.638 66.304,277.591 67.431,277.639 68.913 M272.900 71.487 C 273.505 71.578,274.495 71.578,275.100 71.487 C 275.705 71.395,275.210 71.320,274.000 71.320 C 272.790 71.320,272.295 71.395,272.900 71.487 M264.914 79.400 C 264.917 80.500,264.995 80.903,265.087 80.295 C 265.179 79.686,265.177 78.786,265.082 78.295 C 264.987 77.803,264.911 78.300,264.914 79.400 M261.209 84.140 C 261.491 84.417,264.731 84.602,264.978 84.355 C 265.095 84.238,264.252 84.100,263.105 84.047 C 261.958 83.995,261.105 84.037,261.209 84.140 M256.500 84.676 C 256.885 84.776,257.515 84.776,257.900 84.676 C 258.285 84.575,257.970 84.493,257.200 84.493 C 256.430 84.493,256.115 84.575,256.500 84.676 M252.109 90.800 C 252.109 91.790,252.187 92.195,252.282 91.700 C 252.378 91.205,252.378 90.395,252.282 89.900 C 252.187 89.405,252.109 89.810,252.109 90.800 M244.500 97.476 C 244.885 97.576,245.515 97.576,245.900 97.476 C 246.285 97.375,245.970 97.293,245.200 97.293 C 244.430 97.293,244.115 97.375,244.500 97.476 M239.293 102.800 C 239.293 103.570,239.375 103.885,239.476 103.500 C 239.576 103.115,239.576 102.485,239.476 102.100 C 239.375 101.715,239.293 102.030,239.293 102.800 M238.867 108.974 C 238.918 109.730,239.074 110.278,239.213 110.192 C 239.481 110.026,239.227 107.600,238.942 107.600 C 238.850 107.600,238.817 108.218,238.867 108.974 M232.700 110.282 C 233.195 110.378,234.005 110.378,234.500 110.282 C 234.995 110.187,234.590 110.109,233.600 110.109 C 232.610 110.109,232.205 110.187,232.700 110.282 M226.493 114.800 C 226.493 115.570,226.575 115.885,226.676 115.500 C 226.776 115.115,226.776 114.485,226.676 114.100 C 226.575 113.715,226.493 114.030,226.493 114.800 M226.110 120.516 C 226.120 122.010,226.249 123.090,226.399 122.916 C 226.548 122.742,226.541 121.520,226.382 120.200 L 226.093 117.800 226.110 120.516 M221.300 123.087 C 221.905 123.178,222.895 123.178,223.500 123.087 C 224.105 122.995,223.610 122.920,222.400 122.920 C 221.190 122.920,220.695 122.995,221.300 123.087 M213.314 131.000 C 213.317 132.100,213.395 132.503,213.487 131.895 C 213.579 131.286,213.577 130.386,213.482 129.895 C 213.387 129.403,213.311 129.900,213.314 131.000 M209.609 135.740 C 209.891 136.017,213.131 136.202,213.378 135.955 C 213.495 135.838,212.652 135.700,211.505 135.647 C 210.358 135.595,209.505 135.637,209.609 135.740 M204.900 136.276 C 205.285 136.376,205.915 136.376,206.300 136.276 C 206.685 136.175,206.370 136.093,205.600 136.093 C 204.830 136.093,204.515 136.175,204.900 136.276 M200.509 142.400 C 200.509 143.390,200.587 143.795,200.682 143.300 C 200.778 142.805,200.778 141.995,200.682 141.500 C 200.587 141.005,200.509 141.410,200.509 142.400 M192.900 149.076 C 193.285 149.176,193.915 149.176,194.300 149.076 C 194.685 148.975,194.370 148.893,193.600 148.893 C 192.830 148.893,192.515 148.975,192.900 149.076 M187.693 154.400 C 187.693 155.170,187.775 155.485,187.876 155.100 C 187.976 154.715,187.976 154.085,187.876 153.700 C 187.775 153.315,187.693 153.630,187.693 154.400 M187.267 160.574 C 187.318 161.330,187.474 161.878,187.613 161.792 C 187.881 161.626,187.627 159.200,187.342 159.200 C 187.250 159.200,187.217 159.818,187.267 160.574 M181.100 161.882 C 181.595 161.978,182.405 161.978,182.900 161.882 C 183.395 161.787,182.990 161.709,182.000 161.709 C 181.010 161.709,180.605 161.787,181.100 161.882 M174.893 166.400 C 174.893 167.170,174.975 167.485,175.076 167.100 C 175.176 166.715,175.176 166.085,175.076 165.700 C 174.975 165.315,174.893 165.630,174.893 166.400 M174.510 172.116 C 174.520 173.610,174.649 174.690,174.799 174.516 C 174.948 174.342,174.941 173.120,174.782 171.800 L 174.493 169.400 174.510 172.116 M169.700 174.687 C 170.305 174.778,171.295 174.778,171.900 174.687 C 172.505 174.595,172.010 174.520,170.800 174.520 C 169.590 174.520,169.095 174.595,169.700 174.687 M161.714 182.600 C 161.717 183.700,161.795 184.103,161.887 183.495 C 161.979 182.886,161.977 181.986,161.882 181.495 C 161.787 181.003,161.711 181.500,161.714 182.600 M158.009 187.340 C 158.291 187.617,161.531 187.802,161.778 187.555 C 161.895 187.438,161.052 187.300,159.905 187.247 C 158.758 187.195,157.905 187.237,158.009 187.340 M153.300 187.876 C 153.685 187.976,154.315 187.976,154.700 187.876 C 155.085 187.775,154.770 187.693,154.000 187.693 C 153.230 187.693,152.915 187.775,153.300 187.876 M148.909 194.000 C 148.909 194.990,148.987 195.395,149.082 194.900 C 149.178 194.405,149.178 193.595,149.082 193.100 C 148.987 192.605,148.909 193.010,148.909 194.000 M146.400 200.155 C 146.400 200.240,146.930 200.387,147.579 200.482 C 148.227 200.577,148.667 200.508,148.555 200.328 C 148.357 200.007,146.400 199.850,146.400 200.155 M141.105 200.683 C 141.602 200.779,142.322 200.775,142.705 200.675 C 143.087 200.575,142.680 200.496,141.800 200.501 C 140.920 200.505,140.607 200.587,141.105 200.683 M136.093 206.000 C 136.093 206.770,136.175 207.085,136.276 206.700 C 136.376 206.315,136.376 205.685,136.276 205.300 C 136.175 204.915,136.093 205.230,136.093 206.000 M128.700 213.482 C 129.195 213.578,130.005 213.578,130.500 213.482 C 130.995 213.387,130.590 213.309,129.600 213.309 C 128.610 213.309,128.205 213.387,128.700 213.482 M122.924 223.400 C 122.926 224.720,123.001 225.212,123.090 224.493 C 123.179 223.774,123.177 222.694,123.086 222.093 C 122.995 221.492,122.922 222.080,122.924 223.400 M117.300 226.287 C 117.905 226.378,118.895 226.378,119.500 226.287 C 120.105 226.195,119.610 226.120,118.400 226.120 C 117.190 226.120,116.695 226.195,117.300 226.287 M110.120 234.400 C 110.120 235.610,110.195 236.105,110.287 235.500 C 110.378 234.895,110.378 233.905,110.287 233.300 C 110.195 232.695,110.120 233.190,110.120 234.400 M105.209 238.942 C 105.481 239.214,109.946 239.387,110.198 239.136 C 110.313 239.021,109.195 238.887,107.713 238.839 C 106.231 238.791,105.104 238.838,105.209 238.942 M101.700 239.476 C 102.085 239.576,102.715 239.576,103.100 239.476 C 103.485 239.375,103.170 239.293,102.400 239.293 C 101.630 239.293,101.315 239.375,101.700 239.476 M97.309 246.000 C 97.309 246.990,97.387 247.395,97.482 246.900 C 97.578 246.405,97.578 245.595,97.482 245.100 C 97.387 244.605,97.309 245.010,97.309 246.000 M95.200 251.747 C 95.200 252.037,97.216 252.298,97.382 252.029 C 97.471 251.884,97.017 251.726,96.372 251.677 C 95.728 251.627,95.200 251.659,95.200 251.747 M89.505 252.283 C 90.002 252.379,90.722 252.375,91.105 252.275 C 91.487 252.175,91.080 252.096,90.200 252.101 C 89.320 252.105,89.007 252.187,89.505 252.283 M84.501 257.800 C 84.505 258.680,84.587 258.993,84.683 258.495 C 84.779 257.998,84.775 257.278,84.675 256.895 C 84.575 256.513,84.496 256.920,84.501 257.800 M84.032 262.676 C 84.014 263.598,84.142 264.441,84.316 264.548 C 84.490 264.656,84.567 264.082,84.487 263.272 C 84.269 261.058,84.067 260.795,84.032 262.676 M77.500 265.082 C 77.995 265.178,78.805 265.178,79.300 265.082 C 79.795 264.987,79.390 264.909,78.400 264.909 C 77.410 264.909,77.005 264.987,77.500 265.082 M71.324 274.200 C 71.326 275.520,71.401 276.012,71.490 275.293 C 71.579 274.574,71.577 273.494,71.486 272.893 C 71.395 272.292,71.322 272.880,71.324 274.200 M65.700 277.887 C 66.305 277.978,67.295 277.978,67.900 277.887 C 68.505 277.795,68.010 277.720,66.800 277.720 C 65.590 277.720,65.095 277.795,65.700 277.887 M58.514 285.400 C 58.517 286.500,58.595 286.903,58.687 286.295 C 58.779 285.686,58.777 284.786,58.682 284.295 C 58.587 283.803,58.511 284.300,58.514 285.400 M54.707 290.690 C 55.426 290.779,56.506 290.777,57.107 290.686 C 57.708 290.595,57.120 290.522,55.800 290.524 C 54.480 290.526,53.988 290.601,54.707 290.690 M50.100 291.076 C 50.485 291.176,51.115 291.176,51.500 291.076 C 51.885 290.975,51.570 290.893,50.800 290.893 C 50.030 290.893,49.715 290.975,50.100 291.076 M45.701 297.000 C 45.705 297.880,45.787 298.193,45.883 297.695 C 45.979 297.198,45.975 296.478,45.875 296.095 C 45.775 295.713,45.696 296.120,45.701 297.000 M37.905 303.883 C 38.402 303.979,39.122 303.975,39.505 303.875 C 39.887 303.775,39.480 303.696,38.600 303.701 C 37.720 303.705,37.407 303.787,37.905 303.883 M32.901 309.000 C 32.905 309.880,32.987 310.193,33.083 309.695 C 33.179 309.198,33.175 308.478,33.075 308.095 C 32.975 307.713,32.896 308.120,32.901 309.000 M32.509 314.400 C 32.509 315.390,32.587 315.795,32.682 315.300 C 32.778 314.805,32.778 313.995,32.682 313.500 C 32.587 313.005,32.509 313.410,32.509 314.400 M25.900 316.682 C 26.395 316.778,27.205 316.778,27.700 316.682 C 28.195 316.587,27.790 316.509,26.800 316.509 C 25.810 316.509,25.405 316.587,25.900 316.682 M19.724 325.800 C 19.726 327.120,19.801 327.612,19.890 326.893 C 19.979 326.174,19.977 325.094,19.886 324.493 C 19.795 323.892,19.722 324.480,19.724 325.800 M14.500 329.487 C 15.105 329.578,16.095 329.578,16.700 329.487 C 17.305 329.395,16.810 329.320,15.600 329.320 C 14.390 329.320,13.895 329.395,14.500 329.487 M6.909 337.200 C 6.909 338.190,6.987 338.595,7.082 338.100 C 7.178 337.605,7.178 336.795,7.082 336.300 C 6.987 335.805,6.909 336.210,6.909 337.200 M0.017 342.150 C 0.285 342.418,6.765 342.568,7.021 342.312 C 7.135 342.199,5.561 342.072,3.525 342.031 C 1.489 341.990,-0.090 342.043,0.017 342.150 M6.893 381.600 C 6.893 382.370,6.975 382.685,7.076 382.300 C 7.176 381.915,7.176 381.285,7.076 380.900 C 6.975 380.515,6.893 380.830,6.893 381.600 M149.305 407.087 C 149.914 407.179,150.814 407.177,151.305 407.082 C 151.797 406.987,151.300 406.911,150.200 406.914 C 149.100 406.917,148.697 406.995,149.305 407.087 M162.900 419.887 C 163.505 419.978,164.495 419.978,165.100 419.887 C 165.705 419.795,165.210 419.720,164.000 419.720 C 162.790 419.720,162.295 419.795,162.900 419.887 M176.900 432.687 C 177.505 432.778,178.495 432.778,179.100 432.687 C 179.705 432.595,179.210 432.520,178.000 432.520 C 176.790 432.520,176.295 432.595,176.900 432.687 M189.700 445.487 C 190.305 445.578,191.295 445.578,191.900 445.487 C 192.505 445.395,192.010 445.320,190.800 445.320 C 189.590 445.320,189.095 445.395,189.700 445.487 M97.309 463.200 C 97.309 464.190,97.387 464.595,97.482 464.100 C 97.578 463.605,97.578 462.795,97.482 462.300 C 97.387 461.805,97.309 462.210,97.309 463.200 M110.109 472.400 C 110.109 473.390,110.187 473.795,110.282 473.300 C 110.378 472.805,110.378 471.995,110.282 471.500 C 110.187 471.005,110.109 471.410,110.109 472.400 M265.300 510.287 C 265.905 510.378,266.895 510.378,267.500 510.287 C 268.105 510.195,267.610 510.120,266.400 510.120 C 265.190 510.120,264.695 510.195,265.300 510.287 M279.107 523.090 C 279.826 523.179,280.906 523.177,281.507 523.086 C 282.108 522.995,281.520 522.922,280.200 522.924 C 278.880 522.926,278.388 523.001,279.107 523.090 M292.900 535.887 C 293.505 535.978,294.495 535.978,295.100 535.887 C 295.705 535.795,295.210 535.720,294.000 535.720 C 292.790 535.720,292.295 535.795,292.900 535.887 M307.305 548.687 C 307.914 548.779,308.814 548.777,309.305 548.682 C 309.797 548.587,309.300 548.511,308.200 548.514 C 307.100 548.517,306.697 548.595,307.305 548.687 M213.324 563.800 C 213.326 565.120,213.401 565.612,213.490 564.893 C 213.579 564.174,213.577 563.094,213.486 562.493 C 213.395 561.892,213.322 562.480,213.324 563.800 M226.520 578.000 C 226.520 579.210,226.595 579.705,226.687 579.100 C 226.778 578.495,226.778 577.505,226.687 576.900 C 226.595 576.295,226.520 576.790,226.520 578.000 M239.293 588.000 C 239.293 588.770,239.375 589.085,239.476 588.700 C 239.576 588.315,239.576 587.685,239.476 587.300 C 239.375 586.915,239.293 587.230,239.293 588.000 M381.907 613.490 C 382.626 613.579,383.706 613.577,384.307 613.486 C 384.908 613.395,384.320 613.322,383.000 613.324 C 381.680 613.326,381.188 613.401,381.907 613.490 M395.100 626.293 C 396.035 626.377,397.565 626.377,398.500 626.293 C 399.435 626.209,398.670 626.140,396.800 626.140 C 394.930 626.140,394.165 626.209,395.100 626.293 M303.701 644.600 C 303.705 645.480,303.787 645.793,303.883 645.295 C 303.979 644.798,303.975 644.078,303.875 643.695 C 303.775 643.313,303.696 643.720,303.701 644.600 M316.524 654.600 C 316.526 655.920,316.601 656.412,316.690 655.693 C 316.779 654.974,316.777 653.894,316.686 653.293 C 316.595 652.692,316.522 653.280,316.524 654.600 M329.714 669.000 C 329.717 670.100,329.795 670.503,329.887 669.895 C 329.979 669.286,329.977 668.386,329.882 667.895 C 329.787 667.403,329.711 667.900,329.714 669.000 M342.540 680.400 C 342.540 682.270,342.609 683.035,342.693 682.100 C 342.777 681.165,342.777 679.635,342.693 678.700 C 342.609 677.765,342.540 678.530,342.540 680.400 M371.340 680.400 C 371.340 682.270,371.409 683.035,371.493 682.100 C 371.577 681.165,371.577 679.635,371.493 678.700 C 371.409 677.765,371.340 678.530,371.340 680.400 " stroke="none" fill="#585454" fill-rule="evenodd"></path><path id="path3" d="M342.096 3.500 C 342.101 5.535,342.222 7.200,342.366 7.200 C 342.509 7.200,342.567 5.895,342.495 4.300 C 342.292 -0.185,342.085 -0.599,342.096 3.500 M335.500 7.082 C 335.995 7.178,336.805 7.178,337.300 7.082 C 337.795 6.987,337.390 6.909,336.400 6.909 C 335.410 6.909,335.005 6.987,335.500 7.082 M383.107 7.090 C 383.826 7.179,384.906 7.177,385.507 7.086 C 386.108 6.995,385.520 6.922,384.200 6.924 C 382.880 6.926,382.388 7.001,383.107 7.090 M329.693 11.600 C 329.693 12.370,329.775 12.685,329.876 12.300 C 329.976 11.915,329.976 11.285,329.876 10.900 C 329.775 10.515,329.693 10.830,329.693 11.600 M329.310 17.514 C 329.322 18.896,329.456 19.886,329.607 19.714 C 329.757 19.541,329.748 18.410,329.584 17.200 L 329.288 15.000 329.310 17.514 M324.100 19.887 C 324.705 19.978,325.695 19.978,326.300 19.887 C 326.905 19.795,326.410 19.720,325.200 19.720 C 323.990 19.720,323.495 19.795,324.100 19.887 M395.100 19.893 C 396.035 19.977,397.565 19.977,398.500 19.893 C 399.435 19.809,398.670 19.740,396.800 19.740 C 394.930 19.740,394.165 19.809,395.100 19.893 M316.520 28.400 C 316.520 29.610,316.595 30.105,316.687 29.500 C 316.778 28.895,316.778 27.905,316.687 27.300 C 316.595 26.695,316.520 27.190,316.520 28.400 M314.000 32.784 C 315.210 32.948,316.341 32.957,316.514 32.807 C 316.686 32.656,315.696 32.522,314.314 32.510 L 311.800 32.488 314.000 32.784 M307.700 33.076 C 308.085 33.176,308.715 33.176,309.100 33.076 C 309.485 32.975,309.170 32.893,308.400 32.893 C 307.630 32.893,307.315 32.975,307.700 33.076 M303.709 39.600 C 303.709 40.590,303.787 40.995,303.882 40.500 C 303.978 40.005,303.978 39.195,303.882 38.700 C 303.787 38.205,303.709 38.610,303.709 39.600 M296.100 45.876 C 296.485 45.976,297.115 45.976,297.500 45.876 C 297.885 45.775,297.570 45.693,296.800 45.693 C 296.030 45.693,295.715 45.775,296.100 45.876 M290.893 51.600 C 290.893 52.370,290.975 52.685,291.076 52.300 C 291.176 51.915,291.176 51.285,291.076 50.900 C 290.975 50.515,290.893 50.830,290.893 51.600 M290.467 57.374 C 290.518 58.130,290.674 58.678,290.813 58.592 C 291.081 58.426,290.827 56.000,290.542 56.000 C 290.450 56.000,290.417 56.618,290.467 57.374 M284.300 58.682 C 284.795 58.778,285.605 58.778,286.100 58.682 C 286.595 58.587,286.190 58.509,285.200 58.509 C 284.210 58.509,283.805 58.587,284.300 58.682 M278.093 63.600 C 278.093 64.370,278.175 64.685,278.276 64.300 C 278.376 63.915,278.376 63.285,278.276 62.900 C 278.175 62.515,278.093 62.830,278.093 63.600 M277.639 68.913 C 277.687 70.395,277.821 71.513,277.936 71.398 C 278.187 71.146,278.014 66.681,277.742 66.409 C 277.638 66.304,277.591 67.431,277.639 68.913 M272.900 71.487 C 273.505 71.578,274.495 71.578,275.100 71.487 C 275.705 71.395,275.210 71.320,274.000 71.320 C 272.790 71.320,272.295 71.395,272.900 71.487 M264.914 79.400 C 264.917 80.500,264.995 80.903,265.087 80.295 C 265.179 79.686,265.177 78.786,265.082 78.295 C 264.987 77.803,264.911 78.300,264.914 79.400 M261.209 84.140 C 261.491 84.417,264.731 84.602,264.978 84.355 C 265.095 84.238,264.252 84.100,263.105 84.047 C 261.958 83.995,261.105 84.037,261.209 84.140 M256.500 84.676 C 256.885 84.776,257.515 84.776,257.900 84.676 C 258.285 84.575,257.970 84.493,257.200 84.493 C 256.430 84.493,256.115 84.575,256.500 84.676 M252.109 90.800 C 252.109 91.790,252.187 92.195,252.282 91.700 C 252.378 91.205,252.378 90.395,252.282 89.900 C 252.187 89.405,252.109 89.810,252.109 90.800 M244.500 97.476 C 244.885 97.576,245.515 97.576,245.900 97.476 C 246.285 97.375,245.970 97.293,245.200 97.293 C 244.430 97.293,244.115 97.375,244.500 97.476 M239.293 102.800 C 239.293 103.570,239.375 103.885,239.476 103.500 C 239.576 103.115,239.576 102.485,239.476 102.100 C 239.375 101.715,239.293 102.030,239.293 102.800 M238.867 108.974 C 238.918 109.730,239.074 110.278,239.213 110.192 C 239.481 110.026,239.227 107.600,238.942 107.600 C 238.850 107.600,238.817 108.218,238.867 108.974 M232.700 110.282 C 233.195 110.378,234.005 110.378,234.500 110.282 C 234.995 110.187,234.590 110.109,233.600 110.109 C 232.610 110.109,232.205 110.187,232.700 110.282 M226.493 114.800 C 226.493 115.570,226.575 115.885,226.676 115.500 C 226.776 115.115,226.776 114.485,226.676 114.100 C 226.575 113.715,226.493 114.030,226.493 114.800 M226.110 120.516 C 226.120 122.010,226.249 123.090,226.399 122.916 C 226.548 122.742,226.541 121.520,226.382 120.200 L 226.093 117.800 226.110 120.516 M221.300 123.087 C 221.905 123.178,222.895 123.178,223.500 123.087 C 224.105 122.995,223.610 122.920,222.400 122.920 C 221.190 122.920,220.695 122.995,221.300 123.087 M213.314 131.000 C 213.317 132.100,213.395 132.503,213.487 131.895 C 213.579 131.286,213.577 130.386,213.482 129.895 C 213.387 129.403,213.311 129.900,213.314 131.000 M209.609 135.740 C 209.891 136.017,213.131 136.202,213.378 135.955 C 213.495 135.838,212.652 135.700,211.505 135.647 C 210.358 135.595,209.505 135.637,209.609 135.740 M204.900 136.276 C 205.285 136.376,205.915 136.376,206.300 136.276 C 206.685 136.175,206.370 136.093,205.600 136.093 C 204.830 136.093,204.515 136.175,204.900 136.276 M200.509 142.400 C 200.509 143.390,200.587 143.795,200.682 143.300 C 200.778 142.805,200.778 141.995,200.682 141.500 C 200.587 141.005,200.509 141.410,200.509 142.400 M192.900 149.076 C 193.285 149.176,193.915 149.176,194.300 149.076 C 194.685 148.975,194.370 148.893,193.600 148.893 C 192.830 148.893,192.515 148.975,192.900 149.076 M187.693 154.400 C 187.693 155.170,187.775 155.485,187.876 155.100 C 187.976 154.715,187.976 154.085,187.876 153.700 C 187.775 153.315,187.693 153.630,187.693 154.400 M187.267 160.574 C 187.318 161.330,187.474 161.878,187.613 161.792 C 187.881 161.626,187.627 159.200,187.342 159.200 C 187.250 159.200,187.217 159.818,187.267 160.574 M181.100 161.882 C 181.595 161.978,182.405 161.978,182.900 161.882 C 183.395 161.787,182.990 161.709,182.000 161.709 C 181.010 161.709,180.605 161.787,181.100 161.882 M174.893 166.400 C 174.893 167.170,174.975 167.485,175.076 167.100 C 175.176 166.715,175.176 166.085,175.076 165.700 C 174.975 165.315,174.893 165.630,174.893 166.400 M174.510 172.116 C 174.520 173.610,174.649 174.690,174.799 174.516 C 174.948 174.342,174.941 173.120,174.782 171.800 L 174.493 169.400 174.510 172.116 M169.700 174.687 C 170.305 174.778,171.295 174.778,171.900 174.687 C 172.505 174.595,172.010 174.520,170.800 174.520 C 169.590 174.520,169.095 174.595,169.700 174.687 M161.714 182.600 C 161.717 183.700,161.795 184.103,161.887 183.495 C 161.979 182.886,161.977 181.986,161.882 181.495 C 161.787 181.003,161.711 181.500,161.714 182.600 M158.009 187.340 C 158.291 187.617,161.531 187.802,161.778 187.555 C 161.895 187.438,161.052 187.300,159.905 187.247 C 158.758 187.195,157.905 187.237,158.009 187.340 M153.300 187.876 C 153.685 187.976,154.315 187.976,154.700 187.876 C 155.085 187.775,154.770 187.693,154.000 187.693 C 153.230 187.693,152.915 187.775,153.300 187.876 M148.909 194.000 C 148.909 194.990,148.987 195.395,149.082 194.900 C 149.178 194.405,149.178 193.595,149.082 193.100 C 148.987 192.605,148.909 193.010,148.909 194.000 M146.400 200.155 C 146.400 200.240,146.930 200.387,147.579 200.482 C 148.227 200.577,148.667 200.508,148.555 200.328 C 148.357 200.007,146.400 199.850,146.400 200.155 M141.105 200.683 C 141.602 200.779,142.322 200.775,142.705 200.675 C 143.087 200.575,142.680 200.496,141.800 200.501 C 140.920 200.505,140.607 200.587,141.105 200.683 M136.093 206.000 C 136.093 206.770,136.175 207.085,136.276 206.700 C 136.376 206.315,136.376 205.685,136.276 205.300 C 136.175 204.915,136.093 205.230,136.093 206.000 M128.700 213.482 C 129.195 213.578,130.005 213.578,130.500 213.482 C 130.995 213.387,130.590 213.309,129.600 213.309 C 128.610 213.309,128.205 213.387,128.700 213.482 M122.924 223.400 C 122.926 224.720,123.001 225.212,123.090 224.493 C 123.179 223.774,123.177 222.694,123.086 222.093 C 122.995 221.492,122.922 222.080,122.924 223.400 M117.300 226.287 C 117.905 226.378,118.895 226.378,119.500 226.287 C 120.105 226.195,119.610 226.120,118.400 226.120 C 117.190 226.120,116.695 226.195,117.300 226.287 M110.120 234.400 C 110.120 235.610,110.195 236.105,110.287 235.500 C 110.378 234.895,110.378 233.905,110.287 233.300 C 110.195 232.695,110.120 233.190,110.120 234.400 M105.209 238.942 C 105.481 239.214,109.946 239.387,110.198 239.136 C 110.313 239.021,109.195 238.887,107.713 238.839 C 106.231 238.791,105.104 238.838,105.209 238.942 M101.700 239.476 C 102.085 239.576,102.715 239.576,103.100 239.476 C 103.485 239.375,103.170 239.293,102.400 239.293 C 101.630 239.293,101.315 239.375,101.700 239.476 M97.309 246.000 C 97.309 246.990,97.387 247.395,97.482 246.900 C 97.578 246.405,97.578 245.595,97.482 245.100 C 97.387 244.605,97.309 245.010,97.309 246.000 M95.200 251.747 C 95.200 252.037,97.216 252.298,97.382 252.029 C 97.471 251.884,97.017 251.726,96.372 251.677 C 95.728 251.627,95.200 251.659,95.200 251.747 M89.505 252.283 C 90.002 252.379,90.722 252.375,91.105 252.275 C 91.487 252.175,91.080 252.096,90.200 252.101 C 89.320 252.105,89.007 252.187,89.505 252.283 M84.501 257.800 C 84.505 258.680,84.587 258.993,84.683 258.495 C 84.779 257.998,84.775 257.278,84.675 256.895 C 84.575 256.513,84.496 256.920,84.501 257.800 M84.032 262.676 C 84.014 263.598,84.142 264.441,84.316 264.548 C 84.490 264.656,84.567 264.082,84.487 263.272 C 84.269 261.058,84.067 260.795,84.032 262.676 M77.500 265.082 C 77.995 265.178,78.805 265.178,79.300 265.082 C 79.795 264.987,79.390 264.909,78.400 264.909 C 77.410 264.909,77.005 264.987,77.500 265.082 M71.324 274.200 C 71.326 275.520,71.401 276.012,71.490 275.293 C 71.579 274.574,71.577 273.494,71.486 272.893 C 71.395 272.292,71.322 272.880,71.324 274.200 M65.700 277.887 C 66.305 277.978,67.295 277.978,67.900 277.887 C 68.505 277.795,68.010 277.720,66.800 277.720 C 65.590 277.720,65.095 277.795,65.700 277.887 M58.514 285.400 C 58.517 286.500,58.595 286.903,58.687 286.295 C 58.779 285.686,58.777 284.786,58.682 284.295 C 58.587 283.803,58.511 284.300,58.514 285.400 M54.707 290.690 C 55.426 290.779,56.506 290.777,57.107 290.686 C 57.708 290.595,57.120 290.522,55.800 290.524 C 54.480 290.526,53.988 290.601,54.707 290.690 M50.100 291.076 C 50.485 291.176,51.115 291.176,51.500 291.076 C 51.885 290.975,51.570 290.893,50.800 290.893 C 50.030 290.893,49.715 290.975,50.100 291.076 M45.701 297.000 C 45.705 297.880,45.787 298.193,45.883 297.695 C 45.979 297.198,45.975 296.478,45.875 296.095 C 45.775 295.713,45.696 296.120,45.701 297.000 M37.905 303.883 C 38.402 303.979,39.122 303.975,39.505 303.875 C 39.887 303.775,39.480 303.696,38.600 303.701 C 37.720 303.705,37.407 303.787,37.905 303.883 M32.901 309.000 C 32.905 309.880,32.987 310.193,33.083 309.695 C 33.179 309.198,33.175 308.478,33.075 308.095 C 32.975 307.713,32.896 308.120,32.901 309.000 M32.509 314.400 C 32.509 315.390,32.587 315.795,32.682 315.300 C 32.778 314.805,32.778 313.995,32.682 313.500 C 32.587 313.005,32.509 313.410,32.509 314.400 M25.900 316.682 C 26.395 316.778,27.205 316.778,27.700 316.682 C 28.195 316.587,27.790 316.509,26.800 316.509 C 25.810 316.509,25.405 316.587,25.900 316.682 M19.724 325.800 C 19.726 327.120,19.801 327.612,19.890 326.893 C 19.979 326.174,19.977 325.094,19.886 324.493 C 19.795 323.892,19.722 324.480,19.724 325.800 M14.500 329.487 C 15.105 329.578,16.095 329.578,16.700 329.487 C 17.305 329.395,16.810 329.320,15.600 329.320 C 14.390 329.320,13.895 329.395,14.500 329.487 M6.909 337.200 C 6.909 338.190,6.987 338.595,7.082 338.100 C 7.178 337.605,7.178 336.795,7.082 336.300 C 6.987 335.805,6.909 336.210,6.909 337.200 M0.017 342.150 C 0.285 342.418,6.765 342.568,7.021 342.312 C 7.135 342.199,5.561 342.072,3.525 342.031 C 1.489 341.990,-0.090 342.043,0.017 342.150 M6.893 381.600 C 6.893 382.370,6.975 382.685,7.076 382.300 C 7.176 381.915,7.176 381.285,7.076 380.900 C 6.975 380.515,6.893 380.830,6.893 381.600 M149.305 407.087 C 149.914 407.179,150.814 407.177,151.305 407.082 C 151.797 406.987,151.300 406.911,150.200 406.914 C 149.100 406.917,148.697 406.995,149.305 407.087 M162.900 419.887 C 163.505 419.978,164.495 419.978,165.100 419.887 C 165.705 419.795,165.210 419.720,164.000 419.720 C 162.790 419.720,162.295 419.795,162.900 419.887 M176.900 432.687 C 177.505 432.778,178.495 432.778,179.100 432.687 C 179.705 432.595,179.210 432.520,178.000 432.520 C 176.790 432.520,176.295 432.595,176.900 432.687 M189.700 445.487 C 190.305 445.578,191.295 445.578,191.900 445.487 C 192.505 445.395,192.010 445.320,190.800 445.320 C 189.590 445.320,189.095 445.395,189.700 445.487 M97.309 463.200 C 97.309 464.190,97.387 464.595,97.482 464.100 C 97.578 463.605,97.578 462.795,97.482 462.300 C 97.387 461.805,97.309 462.210,97.309 463.200 M110.109 472.400 C 110.109 473.390,110.187 473.795,110.282 473.300 C 110.378 472.805,110.378 471.995,110.282 471.500 C 110.187 471.005,110.109 471.410,110.109 472.400 M265.300 510.287 C 265.905 510.378,266.895 510.378,267.500 510.287 C 268.105 510.195,267.610 510.120,266.400 510.120 C 265.190 510.120,264.695 510.195,265.300 510.287 M279.107 523.090 C 279.826 523.179,280.906 523.177,281.507 523.086 C 282.108 522.995,281.520 522.922,280.200 522.924 C 278.880 522.926,278.388 523.001,279.107 523.090 M292.900 535.887 C 293.505 535.978,294.495 535.978,295.100 535.887 C 295.705 535.795,295.210 535.720,294.000 535.720 C 292.790 535.720,292.295 535.795,292.900 535.887 M307.305 548.687 C 307.914 548.779,308.814 548.777,309.305 548.682 C 309.797 548.587,309.300 548.511,308.200 548.514 C 307.100 548.517,306.697 548.595,307.305 548.687 M213.324 563.800 C 213.326 565.120,213.401 565.612,213.490 564.893 C 213.579 564.174,213.577 563.094,213.486 562.493 C 213.395 561.892,213.322 562.480,213.324 563.800 M226.520 578.000 C 226.520 579.210,226.595 579.705,226.687 579.100 C 226.778 578.495,226.778 577.505,226.687 576.900 C 226.595 576.295,226.520 576.790,226.520 578.000 M239.293 588.000 C 239.293 588.770,239.375 589.085,239.476 588.700 C 239.576 588.315,239.576 587.685,239.476 587.300 C 239.375 586.915,239.293 587.230,239.293 588.000 M381.907 613.490 C 382.626 613.579,383.706 613.577,384.307 613.486 C 384.908 613.395,384.320 613.322,383.000 613.324 C 381.680 613.326,381.188 613.401,381.907 613.490 M395.100 626.293 C 396.035 626.377,397.565 626.377,398.500 626.293 C 399.435 626.209,398.670 626.140,396.800 626.140 C 394.930 626.140,394.165 626.209,395.100 626.293 M303.701 644.600 C 303.705 645.480,303.787 645.793,303.883 645.295 C 303.979 644.798,303.975 644.078,303.875 643.695 C 303.775 643.313,303.696 643.720,303.701 644.600 M316.524 654.600 C 316.526 655.920,316.601 656.412,316.690 655.693 C 316.779 654.974,316.777 653.894,316.686 653.293 C 316.595 652.692,316.522 653.280,316.524 654.600 M329.714 669.000 C 329.717 670.100,329.795 670.503,329.887 669.895 C 329.979 669.286,329.977 668.386,329.882 667.895 C 329.787 667.403,329.711 667.900,329.714 669.000 M342.540 680.400 C 342.540 682.270,342.609 683.035,342.693 682.100 C 342.777 681.165,342.777 679.635,342.693 678.700 C 342.609 677.765,342.540 678.530,342.540 680.400 M371.340 680.400 C 371.340 682.270,371.409 683.035,371.493 682.100 C 371.577 681.165,371.577 679.635,371.493 678.700 C 371.409 677.765,371.340 678.530,371.340 680.400 " stroke="none" fill="#585454" fill-rule="evenodd"></path><path id="path4" d="M342.096 3.500 C 342.101 5.535,342.222 7.200,342.366 7.200 C 342.509 7.200,342.567 5.895,342.495 4.300 C 342.292 -0.185,342.085 -0.599,342.096 3.500 M335.500 7.082 C 335.995 7.178,336.805 7.178,337.300 7.082 C 337.795 6.987,337.390 6.909,336.400 6.909 C 335.410 6.909,335.005 6.987,335.500 7.082 M383.107 7.090 C 383.826 7.179,384.906 7.177,385.507 7.086 C 386.108 6.995,385.520 6.922,384.200 6.924 C 382.880 6.926,382.388 7.001,383.107 7.090 M329.693 11.600 C 329.693 12.370,329.775 12.685,329.876 12.300 C 329.976 11.915,329.976 11.285,329.876 10.900 C 329.775 10.515,329.693 10.830,329.693 11.600 M329.310 17.514 C 329.322 18.896,329.456 19.886,329.607 19.714 C 329.757 19.541,329.748 18.410,329.584 17.200 L 329.288 15.000 329.310 17.514 M324.100 19.887 C 324.705 19.978,325.695 19.978,326.300 19.887 C 326.905 19.795,326.410 19.720,325.200 19.720 C 323.990 19.720,323.495 19.795,324.100 19.887 M395.100 19.893 C 396.035 19.977,397.565 19.977,398.500 19.893 C 399.435 19.809,398.670 19.740,396.800 19.740 C 394.930 19.740,394.165 19.809,395.100 19.893 M316.520 28.400 C 316.520 29.610,316.595 30.105,316.687 29.500 C 316.778 28.895,316.778 27.905,316.687 27.300 C 316.595 26.695,316.520 27.190,316.520 28.400 M314.000 32.784 C 315.210 32.948,316.341 32.957,316.514 32.807 C 316.686 32.656,315.696 32.522,314.314 32.510 L 311.800 32.488 314.000 32.784 M307.700 33.076 C 308.085 33.176,308.715 33.176,309.100 33.076 C 309.485 32.975,309.170 32.893,308.400 32.893 C 307.630 32.893,307.315 32.975,307.700 33.076 M303.709 39.600 C 303.709 40.590,303.787 40.995,303.882 40.500 C 303.978 40.005,303.978 39.195,303.882 38.700 C 303.787 38.205,303.709 38.610,303.709 39.600 M296.100 45.876 C 296.485 45.976,297.115 45.976,297.500 45.876 C 297.885 45.775,297.570 45.693,296.800 45.693 C 296.030 45.693,295.715 45.775,296.100 45.876 M290.893 51.600 C 290.893 52.370,290.975 52.685,291.076 52.300 C 291.176 51.915,291.176 51.285,291.076 50.900 C 290.975 50.515,290.893 50.830,290.893 51.600 M290.467 57.374 C 290.518 58.130,290.674 58.678,290.813 58.592 C 291.081 58.426,290.827 56.000,290.542 56.000 C 290.450 56.000,290.417 56.618,290.467 57.374 M284.300 58.682 C 284.795 58.778,285.605 58.778,286.100 58.682 C 286.595 58.587,286.190 58.509,285.200 58.509 C 284.210 58.509,283.805 58.587,284.300 58.682 M278.093 63.600 C 278.093 64.370,278.175 64.685,278.276 64.300 C 278.376 63.915,278.376 63.285,278.276 62.900 C 278.175 62.515,278.093 62.830,278.093 63.600 M277.639 68.913 C 277.687 70.395,277.821 71.513,277.936 71.398 C 278.187 71.146,278.014 66.681,277.742 66.409 C 277.638 66.304,277.591 67.431,277.639 68.913 M272.900 71.487 C 273.505 71.578,274.495 71.578,275.100 71.487 C 275.705 71.395,275.210 71.320,274.000 71.320 C 272.790 71.320,272.295 71.395,272.900 71.487 M264.914 79.400 C 264.917 80.500,264.995 80.903,265.087 80.295 C 265.179 79.686,265.177 78.786,265.082 78.295 C 264.987 77.803,264.911 78.300,264.914 79.400 M261.209 84.140 C 261.491 84.417,264.731 84.602,264.978 84.355 C 265.095 84.238,264.252 84.100,263.105 84.047 C 261.958 83.995,261.105 84.037,261.209 84.140 M256.500 84.676 C 256.885 84.776,257.515 84.776,257.900 84.676 C 258.285 84.575,257.970 84.493,257.200 84.493 C 256.430 84.493,256.115 84.575,256.500 84.676 M252.109 90.800 C 252.109 91.790,252.187 92.195,252.282 91.700 C 252.378 91.205,252.378 90.395,252.282 89.900 C 252.187 89.405,252.109 89.810,252.109 90.800 M244.500 97.476 C 244.885 97.576,245.515 97.576,245.900 97.476 C 246.285 97.375,245.970 97.293,245.200 97.293 C 244.430 97.293,244.115 97.375,244.500 97.476 M239.293 102.800 C 239.293 103.570,239.375 103.885,239.476 103.500 C 239.576 103.115,239.576 102.485,239.476 102.100 C 239.375 101.715,239.293 102.030,239.293 102.800 M238.867 108.974 C 238.918 109.730,239.074 110.278,239.213 110.192 C 239.481 110.026,239.227 107.600,238.942 107.600 C 238.850 107.600,238.817 108.218,238.867 108.974 M232.700 110.282 C 233.195 110.378,234.005 110.378,234.500 110.282 C 234.995 110.187,234.590 110.109,233.600 110.109 C 232.610 110.109,232.205 110.187,232.700 110.282 M226.493 114.800 C 226.493 115.570,226.575 115.885,226.676 115.500 C 226.776 115.115,226.776 114.485,226.676 114.100 C 226.575 113.715,226.493 114.030,226.493 114.800 M226.110 120.516 C 226.120 122.010,226.249 123.090,226.399 122.916 C 226.548 122.742,226.541 121.520,226.382 120.200 L 226.093 117.800 226.110 120.516 M221.300 123.087 C 221.905 123.178,222.895 123.178,223.500 123.087 C 224.105 122.995,223.610 122.920,222.400 122.920 C 221.190 122.920,220.695 122.995,221.300 123.087 M213.314 131.000 C 213.317 132.100,213.395 132.503,213.487 131.895 C 213.579 131.286,213.577 130.386,213.482 129.895 C 213.387 129.403,213.311 129.900,213.314 131.000 M209.609 135.740 C 209.891 136.017,213.131 136.202,213.378 135.955 C 213.495 135.838,212.652 135.700,211.505 135.647 C 210.358 135.595,209.505 135.637,209.609 135.740 M204.900 136.276 C 205.285 136.376,205.915 136.376,206.300 136.276 C 206.685 136.175,206.370 136.093,205.600 136.093 C 204.830 136.093,204.515 136.175,204.900 136.276 M200.509 142.400 C 200.509 143.390,200.587 143.795,200.682 143.300 C 200.778 142.805,200.778 141.995,200.682 141.500 C 200.587 141.005,200.509 141.410,200.509 142.400 M192.900 149.076 C 193.285 149.176,193.915 149.176,194.300 149.076 C 194.685 148.975,194.370 148.893,193.600 148.893 C 192.830 148.893,192.515 148.975,192.900 149.076 M187.693 154.400 C 187.693 155.170,187.775 155.485,187.876 155.100 C 187.976 154.715,187.976 154.085,187.876 153.700 C 187.775 153.315,187.693 153.630,187.693 154.400 M187.267 160.574 C 187.318 161.330,187.474 161.878,187.613 161.792 C 187.881 161.626,187.627 159.200,187.342 159.200 C 187.250 159.200,187.217 159.818,187.267 160.574 M181.100 161.882 C 181.595 161.978,182.405 161.978,182.900 161.882 C 183.395 161.787,182.990 161.709,182.000 161.709 C 181.010 161.709,180.605 161.787,181.100 161.882 M174.893 166.400 C 174.893 167.170,174.975 167.485,175.076 167.100 C 175.176 166.715,175.176 166.085,175.076 165.700 C 174.975 165.315,174.893 165.630,174.893 166.400 M174.510 172.116 C 174.520 173.610,174.649 174.690,174.799 174.516 C 174.948 174.342,174.941 173.120,174.782 171.800 L 174.493 169.400 174.510 172.116 M169.700 174.687 C 170.305 174.778,171.295 174.778,171.900 174.687 C 172.505 174.595,172.010 174.520,170.800 174.520 C 169.590 174.520,169.095 174.595,169.700 174.687 M161.714 182.600 C 161.717 183.700,161.795 184.103,161.887 183.495 C 161.979 182.886,161.977 181.986,161.882 181.495 C 161.787 181.003,161.711 181.500,161.714 182.600 M158.009 187.340 C 158.291 187.617,161.531 187.802,161.778 187.555 C 161.895 187.438,161.052 187.300,159.905 187.247 C 158.758 187.195,157.905 187.237,158.009 187.340 M153.300 187.876 C 153.685 187.976,154.315 187.976,154.700 187.876 C 155.085 187.775,154.770 187.693,154.000 187.693 C 153.230 187.693,152.915 187.775,153.300 187.876 M148.909 194.000 C 148.909 194.990,148.987 195.395,149.082 194.900 C 149.178 194.405,149.178 193.595,149.082 193.100 C 148.987 192.605,148.909 193.010,148.909 194.000 M146.400 200.155 C 146.400 200.240,146.930 200.387,147.579 200.482 C 148.227 200.577,148.667 200.508,148.555 200.328 C 148.357 200.007,146.400 199.850,146.400 200.155 M141.105 200.683 C 141.602 200.779,142.322 200.775,142.705 200.675 C 143.087 200.575,142.680 200.496,141.800 200.501 C 140.920 200.505,140.607 200.587,141.105 200.683 M136.093 206.000 C 136.093 206.770,136.175 207.085,136.276 206.700 C 136.376 206.315,136.376 205.685,136.276 205.300 C 136.175 204.915,136.093 205.230,136.093 206.000 M128.700 213.482 C 129.195 213.578,130.005 213.578,130.500 213.482 C 130.995 213.387,130.590 213.309,129.600 213.309 C 128.610 213.309,128.205 213.387,128.700 213.482 M122.924 223.400 C 122.926 224.720,123.001 225.212,123.090 224.493 C 123.179 223.774,123.177 222.694,123.086 222.093 C 122.995 221.492,122.922 222.080,122.924 223.400 M117.300 226.287 C 117.905 226.378,118.895 226.378,119.500 226.287 C 120.105 226.195,119.610 226.120,118.400 226.120 C 117.190 226.120,116.695 226.195,117.300 226.287 M110.120 234.400 C 110.120 235.610,110.195 236.105,110.287 235.500 C 110.378 234.895,110.378 233.905,110.287 233.300 C 110.195 232.695,110.120 233.190,110.120 234.400 M105.209 238.942 C 105.481 239.214,109.946 239.387,110.198 239.136 C 110.313 239.021,109.195 238.887,107.713 238.839 C 106.231 238.791,105.104 238.838,105.209 238.942 M101.700 239.476 C 102.085 239.576,102.715 239.576,103.100 239.476 C 103.485 239.375,103.170 239.293,102.400 239.293 C 101.630 239.293,101.315 239.375,101.700 239.476 M97.309 246.000 C 97.309 246.990,97.387 247.395,97.482 246.900 C 97.578 246.405,97.578 245.595,97.482 245.100 C 97.387 244.605,97.309 245.010,97.309 246.000 M95.200 251.747 C 95.200 252.037,97.216 252.298,97.382 252.029 C 97.471 251.884,97.017 251.726,96.372 251.677 C 95.728 251.627,95.200 251.659,95.200 251.747 M89.505 252.283 C 90.002 252.379,90.722 252.375,91.105 252.275 C 91.487 252.175,91.080 252.096,90.200 252.101 C 89.320 252.105,89.007 252.187,89.505 252.283 M84.501 257.800 C 84.505 258.680,84.587 258.993,84.683 258.495 C 84.779 257.998,84.775 257.278,84.675 256.895 C 84.575 256.513,84.496 256.920,84.501 257.800 M84.032 262.676 C 84.014 263.598,84.142 264.441,84.316 264.548 C 84.490 264.656,84.567 264.082,84.487 263.272 C 84.269 261.058,84.067 260.795,84.032 262.676 M77.500 265.082 C 77.995 265.178,78.805 265.178,79.300 265.082 C 79.795 264.987,79.390 264.909,78.400 264.909 C 77.410 264.909,77.005 264.987,77.500 265.082 M71.324 274.200 C 71.326 275.520,71.401 276.012,71.490 275.293 C 71.579 274.574,71.577 273.494,71.486 272.893 C 71.395 272.292,71.322 272.880,71.324 274.200 M65.700 277.887 C 66.305 277.978,67.295 277.978,67.900 277.887 C 68.505 277.795,68.010 277.720,66.800 277.720 C 65.590 277.720,65.095 277.795,65.700 277.887 M58.514 285.400 C 58.517 286.500,58.595 286.903,58.687 286.295 C 58.779 285.686,58.777 284.786,58.682 284.295 C 58.587 283.803,58.511 284.300,58.514 285.400 M54.707 290.690 C 55.426 290.779,56.506 290.777,57.107 290.686 C 57.708 290.595,57.120 290.522,55.800 290.524 C 54.480 290.526,53.988 290.601,54.707 290.690 M50.100 291.076 C 50.485 291.176,51.115 291.176,51.500 291.076 C 51.885 290.975,51.570 290.893,50.800 290.893 C 50.030 290.893,49.715 290.975,50.100 291.076 M45.701 297.000 C 45.705 297.880,45.787 298.193,45.883 297.695 C 45.979 297.198,45.975 296.478,45.875 296.095 C 45.775 295.713,45.696 296.120,45.701 297.000 M37.905 303.883 C 38.402 303.979,39.122 303.975,39.505 303.875 C 39.887 303.775,39.480 303.696,38.600 303.701 C 37.720 303.705,37.407 303.787,37.905 303.883 M32.901 309.000 C 32.905 309.880,32.987 310.193,33.083 309.695 C 33.179 309.198,33.175 308.478,33.075 308.095 C 32.975 307.713,32.896 308.120,32.901 309.000 M32.509 314.400 C 32.509 315.390,32.587 315.795,32.682 315.300 C 32.778 314.805,32.778 313.995,32.682 313.500 C 32.587 313.005,32.509 313.410,32.509 314.400 M25.900 316.682 C 26.395 316.778,27.205 316.778,27.700 316.682 C 28.195 316.587,27.790 316.509,26.800 316.509 C 25.810 316.509,25.405 316.587,25.900 316.682 M19.724 325.800 C 19.726 327.120,19.801 327.612,19.890 326.893 C 19.979 326.174,19.977 325.094,19.886 324.493 C 19.795 323.892,19.722 324.480,19.724 325.800 M14.500 329.487 C 15.105 329.578,16.095 329.578,16.700 329.487 C 17.305 329.395,16.810 329.320,15.600 329.320 C 14.390 329.320,13.895 329.395,14.500 329.487 M6.909 337.200 C 6.909 338.190,6.987 338.595,7.082 338.100 C 7.178 337.605,7.178 336.795,7.082 336.300 C 6.987 335.805,6.909 336.210,6.909 337.200 M0.017 342.150 C 0.285 342.418,6.765 342.568,7.021 342.312 C 7.135 342.199,5.561 342.072,3.525 342.031 C 1.489 341.990,-0.090 342.043,0.017 342.150 M6.893 381.600 C 6.893 382.370,6.975 382.685,7.076 382.300 C 7.176 381.915,7.176 381.285,7.076 380.900 C 6.975 380.515,6.893 380.830,6.893 381.600 M149.305 407.087 C 149.914 407.179,150.814 407.177,151.305 407.082 C 151.797 406.987,151.300 406.911,150.200 406.914 C 149.100 406.917,148.697 406.995,149.305 407.087 M162.900 419.887 C 163.505 419.978,164.495 419.978,165.100 419.887 C 165.705 419.795,165.210 419.720,164.000 419.720 C 162.790 419.720,162.295 419.795,162.900 419.887 M176.900 432.687 C 177.505 432.778,178.495 432.778,179.100 432.687 C 179.705 432.595,179.210 432.520,178.000 432.520 C 176.790 432.520,176.295 432.595,176.900 432.687 M189.700 445.487 C 190.305 445.578,191.295 445.578,191.900 445.487 C 192.505 445.395,192.010 445.320,190.800 445.320 C 189.590 445.320,189.095 445.395,189.700 445.487 M97.309 463.200 C 97.309 464.190,97.387 464.595,97.482 464.100 C 97.578 463.605,97.578 462.795,97.482 462.300 C 97.387 461.805,97.309 462.210,97.309 463.200 M110.109 472.400 C 110.109 473.390,110.187 473.795,110.282 473.300 C 110.378 472.805,110.378 471.995,110.282 471.500 C 110.187 471.005,110.109 471.410,110.109 472.400 M265.300 510.287 C 265.905 510.378,266.895 510.378,267.500 510.287 C 268.105 510.195,267.610 510.120,266.400 510.120 C 265.190 510.120,264.695 510.195,265.300 510.287 M279.107 523.090 C 279.826 523.179,280.906 523.177,281.507 523.086 C 282.108 522.995,281.520 522.922,280.200 522.924 C 278.880 522.926,278.388 523.001,279.107 523.090 M292.900 535.887 C 293.505 535.978,294.495 535.978,295.100 535.887 C 295.705 535.795,295.210 535.720,294.000 535.720 C 292.790 535.720,292.295 535.795,292.900 535.887 M307.305 548.687 C 307.914 548.779,308.814 548.777,309.305 548.682 C 309.797 548.587,309.300 548.511,308.200 548.514 C 307.100 548.517,306.697 548.595,307.305 548.687 M213.324 563.800 C 213.326 565.120,213.401 565.612,213.490 564.893 C 213.579 564.174,213.577 563.094,213.486 562.493 C 213.395 561.892,213.322 562.480,213.324 563.800 M226.520 578.000 C 226.520 579.210,226.595 579.705,226.687 579.100 C 226.778 578.495,226.778 577.505,226.687 576.900 C 226.595 576.295,226.520 576.790,226.520 578.000 M239.293 588.000 C 239.293 588.770,239.375 589.085,239.476 588.700 C 239.576 588.315,239.576 587.685,239.476 587.300 C 239.375 586.915,239.293 587.230,239.293 588.000 M381.907 613.490 C 382.626 613.579,383.706 613.577,384.307 613.486 C 384.908 613.395,384.320 613.322,383.000 613.324 C 381.680 613.326,381.188 613.401,381.907 613.490 M395.100 626.293 C 396.035 626.377,397.565 626.377,398.500 626.293 C 399.435 626.209,398.670 626.140,396.800 626.140 C 394.930 626.140,394.165 626.209,395.100 626.293 M303.701 644.600 C 303.705 645.480,303.787 645.793,303.883 645.295 C 303.979 644.798,303.975 644.078,303.875 643.695 C 303.775 643.313,303.696 643.720,303.701 644.600 M316.524 654.600 C 316.526 655.920,316.601 656.412,316.690 655.693 C 316.779 654.974,316.777 653.894,316.686 653.293 C 316.595 652.692,316.522 653.280,316.524 654.600 M329.714 669.000 C 329.717 670.100,329.795 670.503,329.887 669.895 C 329.979 669.286,329.977 668.386,329.882 667.895 C 329.787 667.403,329.711 667.900,329.714 669.000 M342.540 680.400 C 342.540 682.270,342.609 683.035,342.693 682.100 C 342.777 681.165,342.777 679.635,342.693 678.700 C 342.609 677.765,342.540 678.530,342.540 680.400 M371.340 680.400 C 371.340 682.270,371.409 683.035,371.493 682.100 C 371.577 681.165,371.577 679.635,371.493 678.700 C 371.409 677.765,371.340 678.530,371.340 680.400 " stroke="none" fill="#585454" fill-rule="evenodd"></path><path id="path5" d="M342.096 3.500 C 342.101 5.535,342.222 7.200,342.366 7.200 C 342.509 7.200,342.567 5.895,342.495 4.300 C 342.292 -0.185,342.085 -0.599,342.096 3.500 M335.500 7.082 C 335.995 7.178,336.805 7.178,337.300 7.082 C 337.795 6.987,337.390 6.909,336.400 6.909 C 335.410 6.909,335.005 6.987,335.500 7.082 M383.107 7.090 C 383.826 7.179,384.906 7.177,385.507 7.086 C 386.108 6.995,385.520 6.922,384.200 6.924 C 382.880 6.926,382.388 7.001,383.107 7.090 M329.693 11.600 C 329.693 12.370,329.775 12.685,329.876 12.300 C 329.976 11.915,329.976 11.285,329.876 10.900 C 329.775 10.515,329.693 10.830,329.693 11.600 M329.310 17.514 C 329.322 18.896,329.456 19.886,329.607 19.714 C 329.757 19.541,329.748 18.410,329.584 17.200 L 329.288 15.000 329.310 17.514 M324.100 19.887 C 324.705 19.978,325.695 19.978,326.300 19.887 C 326.905 19.795,326.410 19.720,325.200 19.720 C 323.990 19.720,323.495 19.795,324.100 19.887 M395.100 19.893 C 396.035 19.977,397.565 19.977,398.500 19.893 C 399.435 19.809,398.670 19.740,396.800 19.740 C 394.930 19.740,394.165 19.809,395.100 19.893 M316.520 28.400 C 316.520 29.610,316.595 30.105,316.687 29.500 C 316.778 28.895,316.778 27.905,316.687 27.300 C 316.595 26.695,316.520 27.190,316.520 28.400 M314.000 32.784 C 315.210 32.948,316.341 32.957,316.514 32.807 C 316.686 32.656,315.696 32.522,314.314 32.510 L 311.800 32.488 314.000 32.784 M307.700 33.076 C 308.085 33.176,308.715 33.176,309.100 33.076 C 309.485 32.975,309.170 32.893,308.400 32.893 C 307.630 32.893,307.315 32.975,307.700 33.076 M303.709 39.600 C 303.709 40.590,303.787 40.995,303.882 40.500 C 303.978 40.005,303.978 39.195,303.882 38.700 C 303.787 38.205,303.709 38.610,303.709 39.600 M296.100 45.876 C 296.485 45.976,297.115 45.976,297.500 45.876 C 297.885 45.775,297.570 45.693,296.800 45.693 C 296.030 45.693,295.715 45.775,296.100 45.876 M290.893 51.600 C 290.893 52.370,290.975 52.685,291.076 52.300 C 291.176 51.915,291.176 51.285,291.076 50.900 C 290.975 50.515,290.893 50.830,290.893 51.600 M290.467 57.374 C 290.518 58.130,290.674 58.678,290.813 58.592 C 291.081 58.426,290.827 56.000,290.542 56.000 C 290.450 56.000,290.417 56.618,290.467 57.374 M284.300 58.682 C 284.795 58.778,285.605 58.778,286.100 58.682 C 286.595 58.587,286.190 58.509,285.200 58.509 C 284.210 58.509,283.805 58.587,284.300 58.682 M278.093 63.600 C 278.093 64.370,278.175 64.685,278.276 64.300 C 278.376 63.915,278.376 63.285,278.276 62.900 C 278.175 62.515,278.093 62.830,278.093 63.600 M277.639 68.913 C 277.687 70.395,277.821 71.513,277.936 71.398 C 278.187 71.146,278.014 66.681,277.742 66.409 C 277.638 66.304,277.591 67.431,277.639 68.913 M272.900 71.487 C 273.505 71.578,274.495 71.578,275.100 71.487 C 275.705 71.395,275.210 71.320,274.000 71.320 C 272.790 71.320,272.295 71.395,272.900 71.487 M264.914 79.400 C 264.917 80.500,264.995 80.903,265.087 80.295 C 265.179 79.686,265.177 78.786,265.082 78.295 C 264.987 77.803,264.911 78.300,264.914 79.400 M261.209 84.140 C 261.491 84.417,264.731 84.602,264.978 84.355 C 265.095 84.238,264.252 84.100,263.105 84.047 C 261.958 83.995,261.105 84.037,261.209 84.140 M256.500 84.676 C 256.885 84.776,257.515 84.776,257.900 84.676 C 258.285 84.575,257.970 84.493,257.200 84.493 C 256.430 84.493,256.115 84.575,256.500 84.676 M252.109 90.800 C 252.109 91.790,252.187 92.195,252.282 91.700 C 252.378 91.205,252.378 90.395,252.282 89.900 C 252.187 89.405,252.109 89.810,252.109 90.800 M244.500 97.476 C 244.885 97.576,245.515 97.576,245.900 97.476 C 246.285 97.375,245.970 97.293,245.200 97.293 C 244.430 97.293,244.115 97.375,244.500 97.476 M239.293 102.800 C 239.293 103.570,239.375 103.885,239.476 103.500 C 239.576 103.115,239.576 102.485,239.476 102.100 C 239.375 101.715,239.293 102.030,239.293 102.800 M238.867 108.974 C 238.918 109.730,239.074 110.278,239.213 110.192 C 239.481 110.026,239.227 107.600,238.942 107.600 C 238.850 107.600,238.817 108.218,238.867 108.974 M232.700 110.282 C 233.195 110.378,234.005 110.378,234.500 110.282 C 234.995 110.187,234.590 110.109,233.600 110.109 C 232.610 110.109,232.205 110.187,232.700 110.282 M226.493 114.800 C 226.493 115.570,226.575 115.885,226.676 115.500 C 226.776 115.115,226.776 114.485,226.676 114.100 C 226.575 113.715,226.493 114.030,226.493 114.800 M226.110 120.516 C 226.120 122.010,226.249 123.090,226.399 122.916 C 226.548 122.742,226.541 121.520,226.382 120.200 L 226.093 117.800 226.110 120.516 M221.300 123.087 C 221.905 123.178,222.895 123.178,223.500 123.087 C 224.105 122.995,223.610 122.920,222.400 122.920 C 221.190 122.920,220.695 122.995,221.300 123.087 M213.314 131.000 C 213.317 132.100,213.395 132.503,213.487 131.895 C 213.579 131.286,213.577 130.386,213.482 129.895 C 213.387 129.403,213.311 129.900,213.314 131.000 M209.609 135.740 C 209.891 136.017,213.131 136.202,213.378 135.955 C 213.495 135.838,212.652 135.700,211.505 135.647 C 210.358 135.595,209.505 135.637,209.609 135.740 M204.900 136.276 C 205.285 136.376,205.915 136.376,206.300 136.276 C 206.685 136.175,206.370 136.093,205.600 136.093 C 204.830 136.093,204.515 136.175,204.900 136.276 M200.509 142.400 C 200.509 143.390,200.587 143.795,200.682 143.300 C 200.778 142.805,200.778 141.995,200.682 141.500 C 200.587 141.005,200.509 141.410,200.509 142.400 M192.900 149.076 C 193.285 149.176,193.915 149.176,194.300 149.076 C 194.685 148.975,194.370 148.893,193.600 148.893 C 192.830 148.893,192.515 148.975,192.900 149.076 M187.693 154.400 C 187.693 155.170,187.775 155.485,187.876 155.100 C 187.976 154.715,187.976 154.085,187.876 153.700 C 187.775 153.315,187.693 153.630,187.693 154.400 M187.267 160.574 C 187.318 161.330,187.474 161.878,187.613 161.792 C 187.881 161.626,187.627 159.200,187.342 159.200 C 187.250 159.200,187.217 159.818,187.267 160.574 M181.100 161.882 C 181.595 161.978,182.405 161.978,182.900 161.882 C 183.395 161.787,182.990 161.709,182.000 161.709 C 181.010 161.709,180.605 161.787,181.100 161.882 M174.893 166.400 C 174.893 167.170,174.975 167.485,175.076 167.100 C 175.176 166.715,175.176 166.085,175.076 165.700 C 174.975 165.315,174.893 165.630,174.893 166.400 M174.510 172.116 C 174.520 173.610,174.649 174.690,174.799 174.516 C 174.948 174.342,174.941 173.120,174.782 171.800 L 174.493 169.400 174.510 172.116 M169.700 174.687 C 170.305 174.778,171.295 174.778,171.900 174.687 C 172.505 174.595,172.010 174.520,170.800 174.520 C 169.590 174.520,169.095 174.595,169.700 174.687 M161.714 182.600 C 161.717 183.700,161.795 184.103,161.887 183.495 C 161.979 182.886,161.977 181.986,161.882 181.495 C 161.787 181.003,161.711 181.500,161.714 182.600 M158.009 187.340 C 158.291 187.617,161.531 187.802,161.778 187.555 C 161.895 187.438,161.052 187.300,159.905 187.247 C 158.758 187.195,157.905 187.237,158.009 187.340 M153.300 187.876 C 153.685 187.976,154.315 187.976,154.700 187.876 C 155.085 187.775,154.770 187.693,154.000 187.693 C 153.230 187.693,152.915 187.775,153.300 187.876 M148.909 194.000 C 148.909 194.990,148.987 195.395,149.082 194.900 C 149.178 194.405,149.178 193.595,149.082 193.100 C 148.987 192.605,148.909 193.010,148.909 194.000 M146.400 200.155 C 146.400 200.240,146.930 200.387,147.579 200.482 C 148.227 200.577,148.667 200.508,148.555 200.328 C 148.357 200.007,146.400 199.850,146.400 200.155 M141.105 200.683 C 141.602 200.779,142.322 200.775,142.705 200.675 C 143.087 200.575,142.680 200.496,141.800 200.501 C 140.920 200.505,140.607 200.587,141.105 200.683 M136.093 206.000 C 136.093 206.770,136.175 207.085,136.276 206.700 C 136.376 206.315,136.376 205.685,136.276 205.300 C 136.175 204.915,136.093 205.230,136.093 206.000 M128.700 213.482 C 129.195 213.578,130.005 213.578,130.500 213.482 C 130.995 213.387,130.590 213.309,129.600 213.309 C 128.610 213.309,128.205 213.387,128.700 213.482 M122.924 223.400 C 122.926 224.720,123.001 225.212,123.090 224.493 C 123.179 223.774,123.177 222.694,123.086 222.093 C 122.995 221.492,122.922 222.080,122.924 223.400 M117.300 226.287 C 117.905 226.378,118.895 226.378,119.500 226.287 C 120.105 226.195,119.610 226.120,118.400 226.120 C 117.190 226.120,116.695 226.195,117.300 226.287 M110.120 234.400 C 110.120 235.610,110.195 236.105,110.287 235.500 C 110.378 234.895,110.378 233.905,110.287 233.300 C 110.195 232.695,110.120 233.190,110.120 234.400 M105.209 238.942 C 105.481 239.214,109.946 239.387,110.198 239.136 C 110.313 239.021,109.195 238.887,107.713 238.839 C 106.231 238.791,105.104 238.838,105.209 238.942 M101.700 239.476 C 102.085 239.576,102.715 239.576,103.100 239.476 C 103.485 239.375,103.170 239.293,102.400 239.293 C 101.630 239.293,101.315 239.375,101.700 239.476 M97.309 246.000 C 97.309 246.990,97.387 247.395,97.482 246.900 C 97.578 246.405,97.578 245.595,97.482 245.100 C 97.387 244.605,97.309 245.010,97.309 246.000 M95.200 251.747 C 95.200 252.037,97.216 252.298,97.382 252.029 C 97.471 251.884,97.017 251.726,96.372 251.677 C 95.728 251.627,95.200 251.659,95.200 251.747 M89.505 252.283 C 90.002 252.379,90.722 252.375,91.105 252.275 C 91.487 252.175,91.080 252.096,90.200 252.101 C 89.320 252.105,89.007 252.187,89.505 252.283 M84.501 257.800 C 84.505 258.680,84.587 258.993,84.683 258.495 C 84.779 257.998,84.775 257.278,84.675 256.895 C 84.575 256.513,84.496 256.920,84.501 257.800 M84.032 262.676 C 84.014 263.598,84.142 264.441,84.316 264.548 C 84.490 264.656,84.567 264.082,84.487 263.272 C 84.269 261.058,84.067 260.795,84.032 262.676 M77.500 265.082 C 77.995 265.178,78.805 265.178,79.300 265.082 C 79.795 264.987,79.390 264.909,78.400 264.909 C 77.410 264.909,77.005 264.987,77.500 265.082 M71.324 274.200 C 71.326 275.520,71.401 276.012,71.490 275.293 C 71.579 274.574,71.577 273.494,71.486 272.893 C 71.395 272.292,71.322 272.880,71.324 274.200 M65.700 277.887 C 66.305 277.978,67.295 277.978,67.900 277.887 C 68.505 277.795,68.010 277.720,66.800 277.720 C 65.590 277.720,65.095 277.795,65.700 277.887 M58.514 285.400 C 58.517 286.500,58.595 286.903,58.687 286.295 C 58.779 285.686,58.777 284.786,58.682 284.295 C 58.587 283.803,58.511 284.300,58.514 285.400 M54.707 290.690 C 55.426 290.779,56.506 290.777,57.107 290.686 C 57.708 290.595,57.120 290.522,55.800 290.524 C 54.480 290.526,53.988 290.601,54.707 290.690 M50.100 291.076 C 50.485 291.176,51.115 291.176,51.500 291.076 C 51.885 290.975,51.570 290.893,50.800 290.893 C 50.030 290.893,49.715 290.975,50.100 291.076 M45.701 297.000 C 45.705 297.880,45.787 298.193,45.883 297.695 C 45.979 297.198,45.975 296.478,45.875 296.095 C 45.775 295.713,45.696 296.120,45.701 297.000 M37.905 303.883 C 38.402 303.979,39.122 303.975,39.505 303.875 C 39.887 303.775,39.480 303.696,38.600 303.701 C 37.720 303.705,37.407 303.787,37.905 303.883 M32.901 309.000 C 32.905 309.880,32.987 310.193,33.083 309.695 C 33.179 309.198,33.175 308.478,33.075 308.095 C 32.975 307.713,32.896 308.120,32.901 309.000 M32.509 314.400 C 32.509 315.390,32.587 315.795,32.682 315.300 C 32.778 314.805,32.778 313.995,32.682 313.500 C 32.587 313.005,32.509 313.410,32.509 314.400 M25.900 316.682 C 26.395 316.778,27.205 316.778,27.700 316.682 C 28.195 316.587,27.790 316.509,26.800 316.509 C 25.810 316.509,25.405 316.587,25.900 316.682 M19.724 325.800 C 19.726 327.120,19.801 327.612,19.890 326.893 C 19.979 326.174,19.977 325.094,19.886 324.493 C 19.795 323.892,19.722 324.480,19.724 325.800 M14.500 329.487 C 15.105 329.578,16.095 329.578,16.700 329.487 C 17.305 329.395,16.810 329.320,15.600 329.320 C 14.390 329.320,13.895 329.395,14.500 329.487 M6.909 337.200 C 6.909 338.190,6.987 338.595,7.082 338.100 C 7.178 337.605,7.178 336.795,7.082 336.300 C 6.987 335.805,6.909 336.210,6.909 337.200 M0.017 342.150 C 0.285 342.418,6.765 342.568,7.021 342.312 C 7.135 342.199,5.561 342.072,3.525 342.031 C 1.489 341.990,-0.090 342.043,0.017 342.150 M6.893 381.600 C 6.893 382.370,6.975 382.685,7.076 382.300 C 7.176 381.915,7.176 381.285,7.076 380.900 C 6.975 380.515,6.893 380.830,6.893 381.600 M149.305 407.087 C 149.914 407.179,150.814 407.177,151.305 407.082 C 151.797 406.987,151.300 406.911,150.200 406.914 C 149.100 406.917,148.697 406.995,149.305 407.087 M162.900 419.887 C 163.505 419.978,164.495 419.978,165.100 419.887 C 165.705 419.795,165.210 419.720,164.000 419.720 C 162.790 419.720,162.295 419.795,162.900 419.887 M176.900 432.687 C 177.505 432.778,178.495 432.778,179.100 432.687 C 179.705 432.595,179.210 432.520,178.000 432.520 C 176.790 432.520,176.295 432.595,176.900 432.687 M189.700 445.487 C 190.305 445.578,191.295 445.578,191.900 445.487 C 192.505 445.395,192.010 445.320,190.800 445.320 C 189.590 445.320,189.095 445.395,189.700 445.487 M97.309 463.200 C 97.309 464.190,97.387 464.595,97.482 464.100 C 97.578 463.605,97.578 462.795,97.482 462.300 C 97.387 461.805,97.309 462.210,97.309 463.200 M110.109 472.400 C 110.109 473.390,110.187 473.795,110.282 473.300 C 110.378 472.805,110.378 471.995,110.282 471.500 C 110.187 471.005,110.109 471.410,110.109 472.400 M265.300 510.287 C 265.905 510.378,266.895 510.378,267.500 510.287 C 268.105 510.195,267.610 510.120,266.400 510.120 C 265.190 510.120,264.695 510.195,265.300 510.287 M279.107 523.090 C 279.826 523.179,280.906 523.177,281.507 523.086 C 282.108 522.995,281.520 522.922,280.200 522.924 C 278.880 522.926,278.388 523.001,279.107 523.090 M292.900 535.887 C 293.505 535.978,294.495 535.978,295.100 535.887 C 295.705 535.795,295.210 535.720,294.000 535.720 C 292.790 535.720,292.295 535.795,292.900 535.887 M307.305 548.687 C 307.914 548.779,308.814 548.777,309.305 548.682 C 309.797 548.587,309.300 548.511,308.200 548.514 C 307.100 548.517,306.697 548.595,307.305 548.687 M213.324 563.800 C 213.326 565.120,213.401 565.612,213.490 564.893 C 213.579 564.174,213.577 563.094,213.486 562.493 C 213.395 561.892,213.322 562.480,213.324 563.800 M226.520 578.000 C 226.520 579.210,226.595 579.705,226.687 579.100 C 226.778 578.495,226.778 577.505,226.687 576.900 C 226.595 576.295,226.520 576.790,226.520 578.000 M239.293 588.000 C 239.293 588.770,239.375 589.085,239.476 588.700 C 239.576 588.315,239.576 587.685,239.476 587.300 C 239.375 586.915,239.293 587.230,239.293 588.000 M381.907 613.490 C 382.626 613.579,383.706 613.577,384.307 613.486 C 384.908 613.395,384.320 613.322,383.000 613.324 C 381.680 613.326,381.188 613.401,381.907 613.490 M395.100 626.293 C 396.035 626.377,397.565 626.377,398.500 626.293 C 399.435 626.209,398.670 626.140,396.800 626.140 C 394.930 626.140,394.165 626.209,395.100 626.293 M303.701 644.600 C 303.705 645.480,303.787 645.793,303.883 645.295 C 303.979 644.798,303.975 644.078,303.875 643.695 C 303.775 643.313,303.696 643.720,303.701 644.600 M316.524 654.600 C 316.526 655.920,316.601 656.412,316.690 655.693 C 316.779 654.974,316.777 653.894,316.686 653.293 C 316.595 652.692,316.522 653.280,316.524 654.600 M329.714 669.000 C 329.717 670.100,329.795 670.503,329.887 669.895 C 329.979 669.286,329.977 668.386,329.882 667.895 C 329.787 667.403,329.711 667.900,329.714 669.000 M342.540 680.400 C 342.540 682.270,342.609 683.035,342.693 682.100 C 342.777 681.165,342.777 679.635,342.693 678.700 C 342.609 677.765,342.540 678.530,342.540 680.400 M371.340 680.400 C 371.340 682.270,371.409 683.035,371.493 682.100 C 371.577 681.165,371.577 679.635,371.493 678.700 C 371.409 677.765,371.340 678.530,371.340 680.400 " stroke="none" fill="#585454" fill-rule="evenodd"></path></g></svg>