<svg id="svg" version="1.1" xmlns="http://www.w3.org/2000/svg" xmlns:xlink="http://www.w3.org/1999/xlink" width="400" height="683.8709677419355" viewBox="0, 0, 400,683.8709677419355"><g id="svgg"><path id="path0" d="M9.600 3.168 L 9.600 6.336 8.397 6.601 C 7.735 6.746,7.009 7.210,6.783 7.633 C 6.430 8.291,5.917 8.400,3.186 8.400 L 0.000 8.400 0.000 33.200 L 0.000 58.000 3.400 58.000 L 6.800 58.000 6.823 62.300 C 6.862 69.793,7.351 70.306,14.795 70.681 L 19.600 70.922 19.617 74.561 C 19.656 82.688,21.049 84.000,29.639 84.000 L 32.278 84.000 32.544 88.656 C 32.952 95.801,33.461 96.281,41.067 96.692 L 45.134 96.912 45.386 100.756 C 45.744 106.217,45.968 107.447,46.734 108.140 C 47.582 108.908,51.705 109.593,55.500 109.597 L 58.400 109.600 58.423 113.900 C 58.462 121.383,58.956 121.907,66.343 122.278 L 71.096 122.517 71.286 127.434 C 71.556 134.436,72.976 135.600,81.249 135.600 L 84.000 135.600 84.013 138.100 C 84.060 147.029,85.318 148.344,93.853 148.386 C 97.230 148.403,97.186 148.333,97.195 153.640 C 97.205 160.009,97.999 160.728,105.428 161.094 L 109.907 161.314 110.076 166.157 C 110.326 173.331,110.506 173.504,118.090 173.885 L 122.800 174.122 122.802 177.161 C 122.809 185.817,123.543 186.589,132.226 187.074 L 135.452 187.255 135.839 192.426 C 136.341 199.129,137.381 199.946,145.453 199.986 C 148.835 200.003,148.786 199.924,148.795 205.313 C 148.804 211.629,149.551 212.295,157.054 212.684 L 161.507 212.914 161.676 217.757 C 161.926 224.931,162.106 225.104,169.690 225.485 L 174.400 225.722 174.402 228.761 C 174.409 237.417,175.143 238.189,183.826 238.674 L 187.052 238.855 187.439 244.026 C 187.941 250.729,188.981 251.546,197.053 251.586 C 200.435 251.603,200.386 251.524,200.395 256.913 C 200.404 263.250,201.108 263.862,208.854 264.280 L 213.107 264.509 213.270 269.397 C 213.509 276.587,213.527 276.604,221.500 277.061 L 226.000 277.319 226.002 280.359 C 226.009 289.017,226.743 289.789,235.426 290.274 L 238.652 290.455 239.039 295.626 C 239.541 302.329,240.581 303.146,248.653 303.186 C 252.024 303.203,251.974 303.125,252.017 308.400 C 252.070 314.843,252.815 315.505,260.454 315.893 L 264.707 316.109 264.876 320.954 C 265.122 328.015,265.411 328.288,273.044 328.683 L 277.488 328.913 277.708 333.557 C 278.062 341.001,278.200 341.138,285.700 341.495 L 290.400 341.718 290.412 344.159 C 290.430 347.743,291.123 352.495,291.713 353.085 C 292.583 353.955,296.677 354.800,300.020 354.800 C 303.139 354.800,303.200 354.819,303.200 355.792 C 303.200 356.550,302.940 356.842,302.100 357.025 C 296.603 358.228,294.069 360.636,292.793 365.870 C 292.335 367.748,290.872 368.462,286.400 368.992 C 281.250 369.602,279.573 371.376,278.751 377.084 C 278.187 381.004,278.438 380.799,273.683 381.212 C 266.639 381.824,265.810 382.632,265.235 389.452 C 264.852 393.990,265.527 393.426,259.888 393.915 C 252.803 394.529,252.373 395.001,252.147 402.400 C 252.012 406.839,251.975 407.003,251.103 407.081 C 250.266 407.155,250.273 407.134,251.200 406.793 C 251.851 406.553,250.524 406.504,247.400 406.654 C 239.701 407.021,239.461 407.255,238.977 414.900 C 238.704 419.199,238.704 419.200,237.652 419.225 C 232.666 419.345,227.908 419.920,227.359 420.470 C 226.093 421.736,225.361 431.201,226.445 432.285 C 226.772 432.612,225.289 432.713,220.863 432.665 C 212.951 432.580,213.370 432.173,213.492 439.819 L 213.585 445.598 208.544 445.378 C 200.242 445.015,200.404 444.868,200.098 453.040 L 199.884 458.769 198.042 458.484 C 193.838 457.835,188.384 458.131,187.641 459.049 C 187.263 459.516,185.884 460.207,184.577 460.585 C 180.051 461.891,177.735 464.265,176.767 468.590 C 176.238 470.954,174.924 471.694,170.435 472.155 C 165.325 472.680,163.063 475.141,162.548 480.736 C 162.237 484.126,162.636 483.861,157.092 484.354 C 150.214 484.964,149.515 485.698,148.988 492.852 L 148.704 496.703 144.252 496.990 C 136.852 497.467,136.494 497.803,135.985 504.743 C 135.797 507.304,135.634 509.419,135.622 509.443 C 135.610 509.467,133.575 509.609,131.100 509.759 C 123.257 510.233,123.181 510.310,122.947 518.000 L 122.794 523.000 120.697 523.047 L 118.600 523.094 120.800 522.792 C 122.189 522.601,121.156 522.557,118.000 522.672 C 110.134 522.960,109.725 523.396,110.109 531.100 L 110.314 535.200 107.657 535.265 L 105.000 535.330 107.000 535.612 C 108.144 535.773,107.178 535.813,104.742 535.706 C 97.262 535.376,97.335 535.307,96.952 542.950 L 96.678 548.400 95.639 548.481 C 95.068 548.525,92.472 548.570,89.871 548.581 C 84.293 548.603,84.000 548.793,84.000 552.385 C 84.000 554.533,83.946 554.647,82.580 555.383 C 80.997 556.235,78.600 558.723,77.917 560.221 C 77.514 561.106,77.234 561.200,74.990 561.200 C 73.205 561.200,72.240 561.405,71.554 561.928 C 71.029 562.329,69.520 562.890,68.200 563.176 C 64.887 563.892,62.973 564.952,61.824 566.708 C 60.953 568.038,60.606 569.104,59.828 572.849 C 59.560 574.139,58.331 574.653,54.739 574.975 C 48.306 575.553,46.768 577.190,46.076 584.200 L 45.800 587.000 41.084 587.464 C 34.114 588.150,33.320 588.950,32.870 595.739 L 32.600 599.800 27.949 600.091 C 20.368 600.566,19.994 600.953,19.747 608.574 L 19.591 613.400 17.496 613.447 L 15.400 613.494 17.600 613.179 C 19.120 612.962,18.200 612.910,14.623 613.012 C 7.128 613.224,6.644 613.751,6.875 621.452 L 7.000 625.602 3.500 625.601 L 0.000 625.600 0.000 645.000 L 0.000 664.400 3.200 664.400 L 6.400 664.400 6.453 667.700 C 6.495 670.329,6.570 670.715,6.825 669.600 C 7.027 668.717,7.067 669.406,6.934 671.464 C 6.618 676.353,7.221 677.200,11.019 677.200 L 12.800 677.200 12.800 680.400 L 12.800 683.600 35.400 683.600 L 58.000 683.600 58.000 680.400 L 58.000 677.200 62.551 677.200 C 70.207 677.200,70.800 676.606,70.800 668.940 L 70.800 664.400 76.200 664.400 C 79.533 664.400,81.600 664.247,81.600 664.000 C 81.600 663.780,81.960 663.600,82.400 663.600 C 82.933 663.600,83.200 663.333,83.200 662.800 C 83.200 662.360,83.380 662.000,83.600 662.000 C 83.847 662.000,84.000 659.933,84.000 656.600 L 84.000 651.200 89.381 651.200 C 94.684 651.200,96.800 650.801,96.800 649.801 C 96.800 649.543,97.889 649.029,99.219 648.659 C 103.933 647.348,105.943 645.195,107.209 640.100 C 107.558 638.695,107.796 638.400,108.582 638.400 C 109.105 638.400,109.593 638.224,109.667 638.009 C 109.740 637.794,111.240 637.420,113.000 637.178 C 118.808 636.380,120.429 634.754,121.287 628.866 C 121.834 625.112,121.476 625.370,126.918 624.807 C 133.162 624.162,134.260 623.117,134.653 617.446 C 134.985 612.654,134.899 612.800,137.384 612.800 C 138.577 612.800,139.664 612.620,139.800 612.400 C 139.936 612.180,140.946 612.000,142.043 612.000 C 146.510 612.000,148.391 608.775,148.398 601.100 L 148.400 599.600 151.545 599.600 C 159.936 599.600,161.200 598.334,161.200 589.933 L 161.200 586.800 165.254 586.800 C 173.013 586.800,173.734 586.146,173.941 578.918 L 174.082 574.000 178.861 574.000 C 186.403 574.000,187.200 573.210,187.200 565.739 L 187.200 561.200 192.400 561.200 C 195.600 561.200,197.600 561.046,197.600 560.800 C 197.600 560.580,197.915 560.399,198.300 560.397 C 199.562 560.391,200.000 558.518,200.000 553.120 L 200.000 548.000 205.381 548.000 C 210.736 548.000,212.800 547.602,212.800 546.569 C 212.800 546.289,213.693 545.875,214.813 545.635 C 219.777 544.570,222.481 541.761,223.413 536.700 C 223.654 535.389,223.830 535.200,224.811 535.200 C 225.428 535.200,225.993 535.036,226.067 534.835 C 226.140 534.634,227.809 534.194,229.776 533.856 C 235.213 532.924,236.922 531.022,237.446 525.321 L 237.711 522.443 239.675 522.021 C 240.755 521.790,242.252 521.600,243.000 521.600 C 248.871 521.600,250.373 519.929,251.000 512.700 L 251.268 509.600 253.411 509.600 C 254.589 509.600,255.664 509.420,255.800 509.200 C 255.936 508.980,256.910 508.800,257.964 508.800 C 262.766 508.800,264.400 506.051,264.400 497.971 L 264.400 496.400 267.545 496.400 C 274.129 496.400,276.800 495.225,276.800 492.330 C 276.800 491.489,276.980 490.800,277.200 490.800 C 277.437 490.800,277.600 489.344,277.600 487.233 L 277.600 483.667 282.300 483.533 C 287.596 483.383,289.315 482.828,289.534 481.196 C 289.607 480.648,289.832 480.029,290.034 479.820 C 290.235 479.611,290.400 477.496,290.400 475.120 L 290.400 470.800 295.020 470.800 C 302.422 470.800,303.200 470.022,303.200 462.620 L 303.200 458.000 308.120 458.000 C 315.760 458.000,316.000 457.755,316.000 449.981 L 316.000 444.800 321.581 444.800 C 327.112 444.800,329.200 444.412,329.200 443.383 C 329.200 443.115,330.034 442.685,331.054 442.428 C 336.119 441.153,339.600 437.202,339.600 432.727 C 339.600 432.186,339.907 432.000,340.800 432.000 C 341.460 432.000,342.000 431.842,342.000 431.649 C 342.000 431.455,343.395 431.090,345.099 430.836 C 351.146 429.937,352.758 428.340,353.598 422.417 C 354.105 418.838,353.867 419.011,359.013 418.490 C 365.544 417.830,366.586 416.734,367.062 410.027 L 367.313 406.499 369.956 406.246 C 378.702 405.409,380.000 404.607,380.000 400.043 C 380.000 398.946,380.180 397.936,380.400 397.800 C 380.620 397.664,380.800 396.573,380.800 395.376 L 380.800 393.200 383.945 393.200 C 392.158 393.200,393.600 391.763,393.600 383.580 L 393.600 380.400 396.800 380.400 L 400.000 380.400 400.000 361.200 L 400.000 342.000 396.800 342.000 L 393.600 342.000 393.600 338.073 C 393.600 329.926,392.637 328.950,384.923 329.288 L 380.846 329.467 380.681 325.033 C 380.367 316.639,380.406 316.678,371.953 316.180 L 367.705 315.930 367.518 311.060 C 367.239 303.828,367.113 303.701,359.864 303.333 L 354.903 303.082 354.717 298.236 C 354.438 290.996,354.168 290.728,346.900 290.474 L 342.000 290.303 342.000 286.529 C 342.000 278.478,341.408 277.800,334.381 277.800 L 329.246 277.800 329.081 273.400 C 328.767 265.043,328.801 265.077,320.353 264.580 L 316.105 264.330 315.918 259.460 C 315.639 252.220,315.520 252.101,308.212 251.731 L 303.200 251.477 303.200 247.958 C 303.200 239.828,302.579 239.109,295.342 238.868 L 290.400 238.703 290.394 234.852 C 290.381 226.951,289.721 226.200,282.786 226.200 L 277.601 226.200 277.600 221.924 C 277.600 219.505,277.426 217.540,277.200 217.400 C 276.980 217.264,276.800 216.753,276.800 216.265 C 276.800 213.829,275.724 213.390,268.753 212.980 L 264.505 212.730 264.318 207.860 C 264.040 200.653,263.877 200.495,256.310 200.115 L 251.600 199.878 251.600 196.359 C 251.600 188.270,251.034 187.612,243.806 187.300 L 238.800 187.084 238.794 183.242 C 238.782 175.420,238.144 174.684,231.200 174.467 L 226.000 174.305 226.000 170.176 C 226.000 167.855,225.825 165.939,225.600 165.800 C 225.380 165.664,225.200 165.133,225.200 164.621 C 225.200 162.212,224.174 161.799,218.221 161.810 C 215.225 161.815,213.094 161.693,213.487 161.538 C 214.083 161.303,214.094 161.252,213.554 161.228 C 213.007 161.204,212.879 160.450,212.719 156.295 C 212.440 149.049,212.403 149.012,204.844 148.570 L 200.000 148.287 200.000 144.763 C 200.000 136.669,199.435 136.012,192.206 135.700 L 187.200 135.484 187.194 131.642 C 187.181 123.777,186.561 123.074,179.443 122.866 L 174.092 122.710 173.933 117.618 C 173.698 110.064,173.164 109.624,164.831 110.114 C 162.573 110.247,161.329 110.199,161.800 109.998 C 162.407 109.739,162.444 109.649,161.954 109.628 C 161.407 109.604,161.279 108.850,161.119 104.695 C 160.840 97.449,160.803 97.412,153.244 96.970 L 148.400 96.687 148.400 93.163 C 148.400 85.069,147.835 84.412,140.606 84.100 L 135.600 83.884 135.600 80.148 C 135.600 72.236,134.900 71.462,127.564 71.261 L 122.492 71.122 122.333 66.024 C 122.098 58.463,121.565 58.023,113.231 58.514 C 110.973 58.647,109.729 58.599,110.200 58.398 C 110.884 58.106,110.898 58.052,110.300 58.028 C 109.685 58.003,109.596 57.524,109.568 54.100 C 109.503 46.253,109.096 45.802,101.700 45.372 L 96.800 45.087 96.800 41.574 C 96.800 33.553,96.163 32.809,89.030 32.501 L 84.048 32.286 83.871 28.043 C 83.530 19.863,83.472 19.800,76.208 19.800 L 70.899 19.800 70.720 14.537 C 70.457 6.818,69.955 6.398,61.631 6.936 C 59.115 7.098,58.006 7.051,58.400 6.798 C 58.800 6.541,58.833 6.410,58.500 6.406 C 58.142 6.402,58.000 5.490,58.000 3.200 L 58.000 0.000 33.800 0.000 L 9.600 0.000 9.600 3.168 M87.900 33.087 C 87.295 33.178,86.305 33.178,85.700 33.087 C 85.095 32.995,85.590 32.920,86.800 32.920 C 88.010 32.920,88.505 32.995,87.900 33.087 M99.705 45.882 C 99.214 45.977,98.314 45.979,97.705 45.887 C 97.097 45.795,97.500 45.717,98.600 45.714 C 99.700 45.711,100.197 45.787,99.705 45.882 M33.083 86.095 C 32.987 86.593,32.905 86.280,32.901 85.400 C 32.896 84.520,32.975 84.113,33.075 84.495 C 33.175 84.878,33.179 85.598,33.083 86.095 M139.500 84.687 C 138.895 84.778,137.905 84.778,137.300 84.687 C 136.695 84.595,137.190 84.520,138.400 84.520 C 139.610 84.520,140.105 84.595,139.500 84.687 M151.305 97.482 C 150.814 97.577,149.914 97.579,149.305 97.487 C 148.697 97.395,149.100 97.317,150.200 97.314 C 151.300 97.311,151.797 97.387,151.305 97.482 M191.100 136.287 C 190.495 136.378,189.505 136.378,188.900 136.287 C 188.295 136.195,188.790 136.120,190.000 136.120 C 191.210 136.120,191.705 136.195,191.100 136.287 M203.100 149.087 C 202.495 149.178,201.505 149.178,200.900 149.087 C 200.295 148.995,200.790 148.920,202.000 148.920 C 203.210 148.920,203.705 148.995,203.100 149.087 M242.700 187.887 C 242.095 187.978,241.105 187.978,240.500 187.887 C 239.895 187.795,240.390 187.720,241.600 187.720 C 242.810 187.720,243.305 187.795,242.700 187.887 M254.700 200.687 C 254.095 200.778,253.105 200.778,252.500 200.687 C 251.895 200.595,252.390 200.520,253.600 200.520 C 254.810 200.520,255.305 200.595,254.700 200.687 M266.900 213.482 C 266.405 213.578,265.595 213.578,265.100 213.482 C 264.605 213.387,265.010 213.309,266.000 213.309 C 266.990 213.309,267.395 213.387,266.900 213.482 M175.087 228.295 C 174.995 228.903,174.917 228.500,174.914 227.400 C 174.911 226.300,174.987 225.803,175.082 226.295 C 175.177 226.786,175.179 227.686,175.087 228.295 M295.100 239.487 C 294.495 239.578,293.505 239.578,292.900 239.487 C 292.295 239.395,292.790 239.320,294.000 239.320 C 295.210 239.320,295.705 239.395,295.100 239.487 M306.707 252.286 C 306.106 252.377,305.026 252.379,304.307 252.290 C 303.588 252.201,304.080 252.126,305.400 252.124 C 306.720 252.122,307.308 252.195,306.707 252.286 M318.500 265.082 C 318.005 265.178,317.195 265.178,316.700 265.082 C 316.205 264.987,316.610 264.909,317.600 264.909 C 318.590 264.909,318.995 264.987,318.500 265.082 M226.687 279.895 C 226.595 280.503,226.517 280.100,226.514 279.000 C 226.511 277.900,226.587 277.403,226.682 277.895 C 226.777 278.386,226.779 279.286,226.687 279.895 M346.700 291.087 C 346.095 291.178,345.105 291.178,344.500 291.087 C 343.895 290.995,344.390 290.920,345.600 290.920 C 346.810 290.920,347.305 290.995,346.700 291.087 M358.307 303.886 C 357.706 303.977,356.626 303.979,355.907 303.890 C 355.188 303.801,355.680 303.726,357.000 303.724 C 358.320 303.722,358.908 303.795,358.307 303.886 M370.100 316.682 C 369.605 316.778,368.795 316.778,368.300 316.682 C 367.805 316.587,368.210 316.509,369.200 316.509 C 370.190 316.509,370.595 316.587,370.100 316.682 M278.283 330.895 C 278.187 331.393,278.105 331.080,278.101 330.200 C 278.096 329.320,278.175 328.913,278.275 329.295 C 278.375 329.678,278.379 330.398,278.283 330.895 M291.076 343.500 C 290.975 343.885,290.893 343.570,290.893 342.800 C 290.893 342.030,290.975 341.715,291.076 342.100 C 291.176 342.485,291.176 343.115,291.076 343.500 M260.700 395.076 C 260.315 395.176,259.685 395.176,259.300 395.076 C 258.915 394.975,259.230 394.893,260.000 394.893 C 260.770 394.893,261.085 394.975,260.700 395.076 M238.100 419.882 C 237.605 419.978,236.795 419.978,236.300 419.882 C 235.805 419.787,236.210 419.709,237.200 419.709 C 238.190 419.709,238.595 419.787,238.100 419.882 M226.690 429.693 C 226.601 430.412,226.526 429.920,226.524 428.600 C 226.522 427.280,226.595 426.692,226.686 427.293 C 226.777 427.894,226.779 428.974,226.690 429.693 M200.682 452.900 C 200.587 453.395,200.509 452.990,200.509 452.000 C 200.509 451.010,200.587 450.605,200.682 451.100 C 200.778 451.595,200.778 452.405,200.682 452.900 M192.700 458.676 C 192.315 458.776,191.685 458.776,191.300 458.676 C 190.915 458.575,191.230 458.493,192.000 458.493 C 192.770 458.493,193.085 458.575,192.700 458.676 M187.829 461.829 C 187.681 462.415,187.471 462.804,187.361 462.694 C 187.251 462.584,187.281 462.015,187.429 461.429 C 187.576 460.842,187.786 460.453,187.896 460.563 C 188.006 460.673,187.976 461.242,187.829 461.829 M135.100 510.276 C 134.715 510.376,134.085 510.376,133.700 510.276 C 133.315 510.175,133.630 510.093,134.400 510.093 C 135.170 510.093,135.485 510.175,135.100 510.276 M97.487 544.695 C 97.395 545.303,97.317 544.900,97.314 543.800 C 97.311 542.700,97.387 542.203,97.482 542.695 C 97.577 543.186,97.579 544.086,97.487 544.695 " stroke="none" fill="#545454" fill-rule="evenodd"></path><path id="path1" d="M58.500 7.076 C 58.885 7.176,59.515 7.176,59.900 7.076 C 60.285 6.975,59.970 6.893,59.200 6.893 C 58.430 6.893,58.115 6.975,58.500 7.076 M85.700 33.087 C 86.305 33.178,87.295 33.178,87.900 33.087 C 88.505 32.995,88.010 32.920,86.800 32.920 C 85.590 32.920,85.095 32.995,85.700 33.087 M97.705 45.887 C 98.314 45.979,99.214 45.977,99.705 45.882 C 100.197 45.787,99.700 45.711,98.600 45.714 C 97.500 45.717,97.097 45.795,97.705 45.887 M110.100 58.676 C 110.485 58.776,111.115 58.776,111.500 58.676 C 111.885 58.575,111.570 58.493,110.800 58.493 C 110.030 58.493,109.715 58.575,110.100 58.676 M32.901 85.400 C 32.905 86.280,32.987 86.593,33.083 86.095 C 33.179 85.598,33.175 84.878,33.075 84.495 C 32.975 84.113,32.896 84.520,32.901 85.400 M137.300 84.687 C 137.905 84.778,138.895 84.778,139.500 84.687 C 140.105 84.595,139.610 84.520,138.400 84.520 C 137.190 84.520,136.695 84.595,137.300 84.687 M149.305 97.487 C 149.914 97.579,150.814 97.577,151.305 97.482 C 151.797 97.387,151.300 97.311,150.200 97.314 C 149.100 97.317,148.697 97.395,149.305 97.487 M161.700 110.276 C 162.085 110.376,162.715 110.376,163.100 110.276 C 163.485 110.175,163.170 110.093,162.400 110.093 C 161.630 110.093,161.315 110.175,161.700 110.276 M188.900 136.287 C 189.505 136.378,190.495 136.378,191.100 136.287 C 191.705 136.195,191.210 136.120,190.000 136.120 C 188.790 136.120,188.295 136.195,188.900 136.287 M200.900 149.087 C 201.505 149.178,202.495 149.178,203.100 149.087 C 203.705 148.995,203.210 148.920,202.000 148.920 C 200.790 148.920,200.295 148.995,200.900 149.087 M213.300 161.876 C 213.685 161.976,214.315 161.976,214.700 161.876 C 215.085 161.775,214.770 161.693,214.000 161.693 C 213.230 161.693,212.915 161.775,213.300 161.876 M240.500 187.887 C 241.105 187.978,242.095 187.978,242.700 187.887 C 243.305 187.795,242.810 187.720,241.600 187.720 C 240.390 187.720,239.895 187.795,240.500 187.887 M252.500 200.687 C 253.105 200.778,254.095 200.778,254.700 200.687 C 255.305 200.595,254.810 200.520,253.600 200.520 C 252.390 200.520,251.895 200.595,252.500 200.687 M265.100 213.482 C 265.595 213.578,266.405 213.578,266.900 213.482 C 267.395 213.387,266.990 213.309,266.000 213.309 C 265.010 213.309,264.605 213.387,265.100 213.482 M174.914 227.400 C 174.917 228.500,174.995 228.903,175.087 228.295 C 175.179 227.686,175.177 226.786,175.082 226.295 C 174.987 225.803,174.911 226.300,174.914 227.400 M292.900 239.487 C 293.505 239.578,294.495 239.578,295.100 239.487 C 295.705 239.395,295.210 239.320,294.000 239.320 C 292.790 239.320,292.295 239.395,292.900 239.487 M304.307 252.290 C 305.026 252.379,306.106 252.377,306.707 252.286 C 307.308 252.195,306.720 252.122,305.400 252.124 C 304.080 252.126,303.588 252.201,304.307 252.290 M316.700 265.082 C 317.195 265.178,318.005 265.178,318.500 265.082 C 318.995 264.987,318.590 264.909,317.600 264.909 C 316.610 264.909,316.205 264.987,316.700 265.082 M226.514 279.000 C 226.517 280.100,226.595 280.503,226.687 279.895 C 226.779 279.286,226.777 278.386,226.682 277.895 C 226.587 277.403,226.511 277.900,226.514 279.000 M344.500 291.087 C 345.105 291.178,346.095 291.178,346.700 291.087 C 347.305 290.995,346.810 290.920,345.600 290.920 C 344.390 290.920,343.895 290.995,344.500 291.087 M355.907 303.890 C 356.626 303.979,357.706 303.977,358.307 303.886 C 358.908 303.795,358.320 303.722,357.000 303.724 C 355.680 303.726,355.188 303.801,355.907 303.890 M368.300 316.682 C 368.795 316.778,369.605 316.778,370.100 316.682 C 370.595 316.587,370.190 316.509,369.200 316.509 C 368.210 316.509,367.805 316.587,368.300 316.682 M278.101 330.200 C 278.105 331.080,278.187 331.393,278.283 330.895 C 278.379 330.398,278.375 329.678,278.275 329.295 C 278.175 328.913,278.096 329.320,278.101 330.200 M290.893 342.800 C 290.893 343.570,290.975 343.885,291.076 343.500 C 291.176 343.115,291.176 342.485,291.076 342.100 C 290.975 341.715,290.893 342.030,290.893 342.800 M259.300 395.076 C 259.685 395.176,260.315 395.176,260.700 395.076 C 261.085 394.975,260.770 394.893,260.000 394.893 C 259.230 394.893,258.915 394.975,259.300 395.076 M236.300 419.882 C 236.795 419.978,237.605 419.978,238.100 419.882 C 238.595 419.787,238.190 419.709,237.200 419.709 C 236.210 419.709,235.805 419.787,236.300 419.882 M226.524 428.600 C 226.526 429.920,226.601 430.412,226.690 429.693 C 226.779 428.974,226.777 427.894,226.686 427.293 C 226.595 426.692,226.522 427.280,226.524 428.600 M223.800 432.412 L 221.400 432.690 224.085 432.682 C 225.562 432.678,226.676 432.523,226.561 432.337 C 226.447 432.152,226.318 432.030,226.276 432.067 C 226.234 432.104,225.120 432.259,223.800 432.412 M213.328 443.200 C 213.328 444.630,213.401 445.215,213.489 444.500 C 213.578 443.785,213.578 442.615,213.489 441.900 C 213.401 441.185,213.328 441.770,213.328 443.200 M209.507 445.490 C 210.226 445.579,211.306 445.577,211.907 445.486 C 212.508 445.395,211.920 445.322,210.600 445.324 C 209.280 445.326,208.788 445.401,209.507 445.490 M200.509 452.000 C 200.509 452.990,200.587 453.395,200.682 452.900 C 200.778 452.405,200.778 451.595,200.682 451.100 C 200.587 450.605,200.509 451.010,200.509 452.000 M196.033 458.144 C 196.475 458.524,200.000 458.745,200.000 458.392 C 200.000 458.177,199.070 458.000,197.933 458.000 C 196.797 458.000,195.942 458.065,196.033 458.144 M191.300 458.676 C 191.685 458.776,192.315 458.776,192.700 458.676 C 193.085 458.575,192.770 458.493,192.000 458.493 C 191.230 458.493,190.915 458.575,191.300 458.676 M187.429 461.429 C 187.281 462.015,187.251 462.584,187.361 462.694 C 187.471 462.804,187.681 462.415,187.829 461.829 C 187.976 461.242,188.006 460.673,187.896 460.563 C 187.786 460.453,187.576 460.842,187.429 461.429 M133.700 510.276 C 134.085 510.376,134.715 510.376,135.100 510.276 C 135.485 510.175,135.170 510.093,134.400 510.093 C 133.630 510.093,133.315 510.175,133.700 510.276 M120.800 522.800 L 118.600 523.070 120.676 523.135 C 121.818 523.171,122.864 523.020,123.000 522.800 C 123.136 522.580,123.192 522.429,123.124 522.465 C 123.056 522.501,122.010 522.652,120.800 522.800 M105.907 535.890 C 106.626 535.979,107.706 535.977,108.307 535.886 C 108.908 535.795,108.320 535.722,107.000 535.724 C 105.680 535.726,105.188 535.801,105.907 535.890 M97.314 543.800 C 97.317 544.900,97.395 545.303,97.487 544.695 C 97.579 544.086,97.577 543.186,97.482 542.695 C 97.387 542.203,97.311 542.700,97.314 543.800 M91.700 548.687 C 92.305 548.778,93.295 548.778,93.900 548.687 C 94.505 548.595,94.010 548.520,92.800 548.520 C 91.590 548.520,91.095 548.595,91.700 548.687 M17.600 613.200 L 15.400 613.470 17.476 613.535 C 18.618 613.571,19.664 613.420,19.800 613.200 C 19.936 612.980,19.992 612.829,19.924 612.865 C 19.856 612.901,18.810 613.052,17.600 613.200 M6.909 670.000 C 6.909 670.990,6.987 671.395,7.082 670.900 C 7.178 670.405,7.178 669.595,7.082 669.100 C 6.987 668.605,6.909 669.010,6.909 670.000 " stroke="none" fill="#585454" fill-rule="evenodd"></path><path id="path2" d="M58.500 7.076 C 58.885 7.176,59.515 7.176,59.900 7.076 C 60.285 6.975,59.970 6.893,59.200 6.893 C 58.430 6.893,58.115 6.975,58.500 7.076 M85.700 33.087 C 86.305 33.178,87.295 33.178,87.900 33.087 C 88.505 32.995,88.010 32.920,86.800 32.920 C 85.590 32.920,85.095 32.995,85.700 33.087 M97.705 45.887 C 98.314 45.979,99.214 45.977,99.705 45.882 C 100.197 45.787,99.700 45.711,98.600 45.714 C 97.500 45.717,97.097 45.795,97.705 45.887 M110.100 58.676 C 110.485 58.776,111.115 58.776,111.500 58.676 C 111.885 58.575,111.570 58.493,110.800 58.493 C 110.030 58.493,109.715 58.575,110.100 58.676 M32.901 85.400 C 32.905 86.280,32.987 86.593,33.083 86.095 C 33.179 85.598,33.175 84.878,33.075 84.495 C 32.975 84.113,32.896 84.520,32.901 85.400 M137.300 84.687 C 137.905 84.778,138.895 84.778,139.500 84.687 C 140.105 84.595,139.610 84.520,138.400 84.520 C 137.190 84.520,136.695 84.595,137.300 84.687 M149.305 97.487 C 149.914 97.579,150.814 97.577,151.305 97.482 C 151.797 97.387,151.300 97.311,150.200 97.314 C 149.100 97.317,148.697 97.395,149.305 97.487 M161.700 110.276 C 162.085 110.376,162.715 110.376,163.100 110.276 C 163.485 110.175,163.170 110.093,162.400 110.093 C 161.630 110.093,161.315 110.175,161.700 110.276 M188.900 136.287 C 189.505 136.378,190.495 136.378,191.100 136.287 C 191.705 136.195,191.210 136.120,190.000 136.120 C 188.790 136.120,188.295 136.195,188.900 136.287 M200.900 149.087 C 201.505 149.178,202.495 149.178,203.100 149.087 C 203.705 148.995,203.210 148.920,202.000 148.920 C 200.790 148.920,200.295 148.995,200.900 149.087 M213.300 161.876 C 213.685 161.976,214.315 161.976,214.700 161.876 C 215.085 161.775,214.770 161.693,214.000 161.693 C 213.230 161.693,212.915 161.775,213.300 161.876 M240.500 187.887 C 241.105 187.978,242.095 187.978,242.700 187.887 C 243.305 187.795,242.810 187.720,241.600 187.720 C 240.390 187.720,239.895 187.795,240.500 187.887 M252.500 200.687 C 253.105 200.778,254.095 200.778,254.700 200.687 C 255.305 200.595,254.810 200.520,253.600 200.520 C 252.390 200.520,251.895 200.595,252.500 200.687 M265.100 213.482 C 265.595 213.578,266.405 213.578,266.900 213.482 C 267.395 213.387,266.990 213.309,266.000 213.309 C 265.010 213.309,264.605 213.387,265.100 213.482 M174.914 227.400 C 174.917 228.500,174.995 228.903,175.087 228.295 C 175.179 227.686,175.177 226.786,175.082 226.295 C 174.987 225.803,174.911 226.300,174.914 227.400 M292.900 239.487 C 293.505 239.578,294.495 239.578,295.100 239.487 C 295.705 239.395,295.210 239.320,294.000 239.320 C 292.790 239.320,292.295 239.395,292.900 239.487 M304.307 252.290 C 305.026 252.379,306.106 252.377,306.707 252.286 C 307.308 252.195,306.720 252.122,305.400 252.124 C 304.080 252.126,303.588 252.201,304.307 252.290 M316.700 265.082 C 317.195 265.178,318.005 265.178,318.500 265.082 C 318.995 264.987,318.590 264.909,317.600 264.909 C 316.610 264.909,316.205 264.987,316.700 265.082 M226.514 279.000 C 226.517 280.100,226.595 280.503,226.687 279.895 C 226.779 279.286,226.777 278.386,226.682 277.895 C 226.587 277.403,226.511 277.900,226.514 279.000 M344.500 291.087 C 345.105 291.178,346.095 291.178,346.700 291.087 C 347.305 290.995,346.810 290.920,345.600 290.920 C 344.390 290.920,343.895 290.995,344.500 291.087 M355.907 303.890 C 356.626 303.979,357.706 303.977,358.307 303.886 C 358.908 303.795,358.320 303.722,357.000 303.724 C 355.680 303.726,355.188 303.801,355.907 303.890 M368.300 316.682 C 368.795 316.778,369.605 316.778,370.100 316.682 C 370.595 316.587,370.190 316.509,369.200 316.509 C 368.210 316.509,367.805 316.587,368.300 316.682 M278.101 330.200 C 278.105 331.080,278.187 331.393,278.283 330.895 C 278.379 330.398,278.375 329.678,278.275 329.295 C 278.175 328.913,278.096 329.320,278.101 330.200 M290.893 342.800 C 290.893 343.570,290.975 343.885,291.076 343.500 C 291.176 343.115,291.176 342.485,291.076 342.100 C 290.975 341.715,290.893 342.030,290.893 342.800 M259.300 395.076 C 259.685 395.176,260.315 395.176,260.700 395.076 C 261.085 394.975,260.770 394.893,260.000 394.893 C 259.230 394.893,258.915 394.975,259.300 395.076 M236.300 419.882 C 236.795 419.978,237.605 419.978,238.100 419.882 C 238.595 419.787,238.190 419.709,237.200 419.709 C 236.210 419.709,235.805 419.787,236.300 419.882 M226.524 428.600 C 226.526 429.920,226.601 430.412,226.690 429.693 C 226.779 428.974,226.777 427.894,226.686 427.293 C 226.595 426.692,226.522 427.280,226.524 428.600 M223.800 432.412 L 221.400 432.690 224.085 432.682 C 225.562 432.678,226.676 432.523,226.561 432.337 C 226.447 432.152,226.318 432.030,226.276 432.067 C 226.234 432.104,225.120 432.259,223.800 432.412 M213.328 443.200 C 213.328 444.630,213.401 445.215,213.489 444.500 C 213.578 443.785,213.578 442.615,213.489 441.900 C 213.401 441.185,213.328 441.770,213.328 443.200 M209.507 445.490 C 210.226 445.579,211.306 445.577,211.907 445.486 C 212.508 445.395,211.920 445.322,210.600 445.324 C 209.280 445.326,208.788 445.401,209.507 445.490 M200.509 452.000 C 200.509 452.990,200.587 453.395,200.682 452.900 C 200.778 452.405,200.778 451.595,200.682 451.100 C 200.587 450.605,200.509 451.010,200.509 452.000 M196.033 458.144 C 196.475 458.524,200.000 458.745,200.000 458.392 C 200.000 458.177,199.070 458.000,197.933 458.000 C 196.797 458.000,195.942 458.065,196.033 458.144 M191.300 458.676 C 191.685 458.776,192.315 458.776,192.700 458.676 C 193.085 458.575,192.770 458.493,192.000 458.493 C 191.230 458.493,190.915 458.575,191.300 458.676 M187.429 461.429 C 187.281 462.015,187.251 462.584,187.361 462.694 C 187.471 462.804,187.681 462.415,187.829 461.829 C 187.976 461.242,188.006 460.673,187.896 460.563 C 187.786 460.453,187.576 460.842,187.429 461.429 M133.700 510.276 C 134.085 510.376,134.715 510.376,135.100 510.276 C 135.485 510.175,135.170 510.093,134.400 510.093 C 133.630 510.093,133.315 510.175,133.700 510.276 M120.800 522.800 L 118.600 523.070 120.676 523.135 C 121.818 523.171,122.864 523.020,123.000 522.800 C 123.136 522.580,123.192 522.429,123.124 522.465 C 123.056 522.501,122.010 522.652,120.800 522.800 M105.907 535.890 C 106.626 535.979,107.706 535.977,108.307 535.886 C 108.908 535.795,108.320 535.722,107.000 535.724 C 105.680 535.726,105.188 535.801,105.907 535.890 M97.314 543.800 C 97.317 544.900,97.395 545.303,97.487 544.695 C 97.579 544.086,97.577 543.186,97.482 542.695 C 97.387 542.203,97.311 542.700,97.314 543.800 M91.700 548.687 C 92.305 548.778,93.295 548.778,93.900 548.687 C 94.505 548.595,94.010 548.520,92.800 548.520 C 91.590 548.520,91.095 548.595,91.700 548.687 M17.600 613.200 L 15.400 613.470 17.476 613.535 C 18.618 613.571,19.664 613.420,19.800 613.200 C 19.936 612.980,19.992 612.829,19.924 612.865 C 19.856 612.901,18.810 613.052,17.600 613.200 M6.909 670.000 C 6.909 670.990,6.987 671.395,7.082 670.900 C 7.178 670.405,7.178 669.595,7.082 669.100 C 6.987 668.605,6.909 669.010,6.909 670.000 " stroke="none" fill="#585454" fill-rule="evenodd"></path><path id="path3" d="M58.500 7.076 C 58.885 7.176,59.515 7.176,59.900 7.076 C 60.285 6.975,59.970 6.893,59.200 6.893 C 58.430 6.893,58.115 6.975,58.500 7.076 M85.700 33.087 C 86.305 33.178,87.295 33.178,87.900 33.087 C 88.505 32.995,88.010 32.920,86.800 32.920 C 85.590 32.920,85.095 32.995,85.700 33.087 M97.705 45.887 C 98.314 45.979,99.214 45.977,99.705 45.882 C 100.197 45.787,99.700 45.711,98.600 45.714 C 97.500 45.717,97.097 45.795,97.705 45.887 M110.100 58.676 C 110.485 58.776,111.115 58.776,111.500 58.676 C 111.885 58.575,111.570 58.493,110.800 58.493 C 110.030 58.493,109.715 58.575,110.100 58.676 M32.901 85.400 C 32.905 86.280,32.987 86.593,33.083 86.095 C 33.179 85.598,33.175 84.878,33.075 84.495 C 32.975 84.113,32.896 84.520,32.901 85.400 M137.300 84.687 C 137.905 84.778,138.895 84.778,139.500 84.687 C 140.105 84.595,139.610 84.520,138.400 84.520 C 137.190 84.520,136.695 84.595,137.300 84.687 M149.305 97.487 C 149.914 97.579,150.814 97.577,151.305 97.482 C 151.797 97.387,151.300 97.311,150.200 97.314 C 149.100 97.317,148.697 97.395,149.305 97.487 M161.700 110.276 C 162.085 110.376,162.715 110.376,163.100 110.276 C 163.485 110.175,163.170 110.093,162.400 110.093 C 161.630 110.093,161.315 110.175,161.700 110.276 M188.900 136.287 C 189.505 136.378,190.495 136.378,191.100 136.287 C 191.705 136.195,191.210 136.120,190.000 136.120 C 188.790 136.120,188.295 136.195,188.900 136.287 M200.900 149.087 C 201.505 149.178,202.495 149.178,203.100 149.087 C 203.705 148.995,203.210 148.920,202.000 148.920 C 200.790 148.920,200.295 148.995,200.900 149.087 M213.300 161.876 C 213.685 161.976,214.315 161.976,214.700 161.876 C 215.085 161.775,214.770 161.693,214.000 161.693 C 213.230 161.693,212.915 161.775,213.300 161.876 M240.500 187.887 C 241.105 187.978,242.095 187.978,242.700 187.887 C 243.305 187.795,242.810 187.720,241.600 187.720 C 240.390 187.720,239.895 187.795,240.500 187.887 M252.500 200.687 C 253.105 200.778,254.095 200.778,254.700 200.687 C 255.305 200.595,254.810 200.520,253.600 200.520 C 252.390 200.520,251.895 200.595,252.500 200.687 M265.100 213.482 C 265.595 213.578,266.405 213.578,266.900 213.482 C 267.395 213.387,266.990 213.309,266.000 213.309 C 265.010 213.309,264.605 213.387,265.100 213.482 M174.914 227.400 C 174.917 228.500,174.995 228.903,175.087 228.295 C 175.179 227.686,175.177 226.786,175.082 226.295 C 174.987 225.803,174.911 226.300,174.914 227.400 M292.900 239.487 C 293.505 239.578,294.495 239.578,295.100 239.487 C 295.705 239.395,295.210 239.320,294.000 239.320 C 292.790 239.320,292.295 239.395,292.900 239.487 M304.307 252.290 C 305.026 252.379,306.106 252.377,306.707 252.286 C 307.308 252.195,306.720 252.122,305.400 252.124 C 304.080 252.126,303.588 252.201,304.307 252.290 M316.700 265.082 C 317.195 265.178,318.005 265.178,318.500 265.082 C 318.995 264.987,318.590 264.909,317.600 264.909 C 316.610 264.909,316.205 264.987,316.700 265.082 M226.514 279.000 C 226.517 280.100,226.595 280.503,226.687 279.895 C 226.779 279.286,226.777 278.386,226.682 277.895 C 226.587 277.403,226.511 277.900,226.514 279.000 M344.500 291.087 C 345.105 291.178,346.095 291.178,346.700 291.087 C 347.305 290.995,346.810 290.920,345.600 290.920 C 344.390 290.920,343.895 290.995,344.500 291.087 M355.907 303.890 C 356.626 303.979,357.706 303.977,358.307 303.886 C 358.908 303.795,358.320 303.722,357.000 303.724 C 355.680 303.726,355.188 303.801,355.907 303.890 M368.300 316.682 C 368.795 316.778,369.605 316.778,370.100 316.682 C 370.595 316.587,370.190 316.509,369.200 316.509 C 368.210 316.509,367.805 316.587,368.300 316.682 M278.101 330.200 C 278.105 331.080,278.187 331.393,278.283 330.895 C 278.379 330.398,278.375 329.678,278.275 329.295 C 278.175 328.913,278.096 329.320,278.101 330.200 M290.893 342.800 C 290.893 343.570,290.975 343.885,291.076 343.500 C 291.176 343.115,291.176 342.485,291.076 342.100 C 290.975 341.715,290.893 342.030,290.893 342.800 M259.300 395.076 C 259.685 395.176,260.315 395.176,260.700 395.076 C 261.085 394.975,260.770 394.893,260.000 394.893 C 259.230 394.893,258.915 394.975,259.300 395.076 M236.300 419.882 C 236.795 419.978,237.605 419.978,238.100 419.882 C 238.595 419.787,238.190 419.709,237.200 419.709 C 236.210 419.709,235.805 419.787,236.300 419.882 M226.524 428.600 C 226.526 429.920,226.601 430.412,226.690 429.693 C 226.779 428.974,226.777 427.894,226.686 427.293 C 226.595 426.692,226.522 427.280,226.524 428.600 M223.800 432.412 L 221.400 432.690 224.085 432.682 C 225.562 432.678,226.676 432.523,226.561 432.337 C 226.447 432.152,226.318 432.030,226.276 432.067 C 226.234 432.104,225.120 432.259,223.800 432.412 M213.328 443.200 C 213.328 444.630,213.401 445.215,213.489 444.500 C 213.578 443.785,213.578 442.615,213.489 441.900 C 213.401 441.185,213.328 441.770,213.328 443.200 M209.507 445.490 C 210.226 445.579,211.306 445.577,211.907 445.486 C 212.508 445.395,211.920 445.322,210.600 445.324 C 209.280 445.326,208.788 445.401,209.507 445.490 M200.509 452.000 C 200.509 452.990,200.587 453.395,200.682 452.900 C 200.778 452.405,200.778 451.595,200.682 451.100 C 200.587 450.605,200.509 451.010,200.509 452.000 M196.033 458.144 C 196.475 458.524,200.000 458.745,200.000 458.392 C 200.000 458.177,199.070 458.000,197.933 458.000 C 196.797 458.000,195.942 458.065,196.033 458.144 M191.300 458.676 C 191.685 458.776,192.315 458.776,192.700 458.676 C 193.085 458.575,192.770 458.493,192.000 458.493 C 191.230 458.493,190.915 458.575,191.300 458.676 M187.429 461.429 C 187.281 462.015,187.251 462.584,187.361 462.694 C 187.471 462.804,187.681 462.415,187.829 461.829 C 187.976 461.242,188.006 460.673,187.896 460.563 C 187.786 460.453,187.576 460.842,187.429 461.429 M133.700 510.276 C 134.085 510.376,134.715 510.376,135.100 510.276 C 135.485 510.175,135.170 510.093,134.400 510.093 C 133.630 510.093,133.315 510.175,133.700 510.276 M120.800 522.800 L 118.600 523.070 120.676 523.135 C 121.818 523.171,122.864 523.020,123.000 522.800 C 123.136 522.580,123.192 522.429,123.124 522.465 C 123.056 522.501,122.010 522.652,120.800 522.800 M105.907 535.890 C 106.626 535.979,107.706 535.977,108.307 535.886 C 108.908 535.795,108.320 535.722,107.000 535.724 C 105.680 535.726,105.188 535.801,105.907 535.890 M97.314 543.800 C 97.317 544.900,97.395 545.303,97.487 544.695 C 97.579 544.086,97.577 543.186,97.482 542.695 C 97.387 542.203,97.311 542.700,97.314 543.800 M91.700 548.687 C 92.305 548.778,93.295 548.778,93.900 548.687 C 94.505 548.595,94.010 548.520,92.800 548.520 C 91.590 548.520,91.095 548.595,91.700 548.687 M17.600 613.200 L 15.400 613.470 17.476 613.535 C 18.618 613.571,19.664 613.420,19.800 613.200 C 19.936 612.980,19.992 612.829,19.924 612.865 C 19.856 612.901,18.810 613.052,17.600 613.200 M6.909 670.000 C 6.909 670.990,6.987 671.395,7.082 670.900 C 7.178 670.405,7.178 669.595,7.082 669.100 C 6.987 668.605,6.909 669.010,6.909 670.000 " stroke="none" fill="#585454" fill-rule="evenodd"></path><path id="path4" d="M58.500 7.076 C 58.885 7.176,59.515 7.176,59.900 7.076 C 60.285 6.975,59.970 6.893,59.200 6.893 C 58.430 6.893,58.115 6.975,58.500 7.076 M85.700 33.087 C 86.305 33.178,87.295 33.178,87.900 33.087 C 88.505 32.995,88.010 32.920,86.800 32.920 C 85.590 32.920,85.095 32.995,85.700 33.087 M97.705 45.887 C 98.314 45.979,99.214 45.977,99.705 45.882 C 100.197 45.787,99.700 45.711,98.600 45.714 C 97.500 45.717,97.097 45.795,97.705 45.887 M110.100 58.676 C 110.485 58.776,111.115 58.776,111.500 58.676 C 111.885 58.575,111.570 58.493,110.800 58.493 C 110.030 58.493,109.715 58.575,110.100 58.676 M32.901 85.400 C 32.905 86.280,32.987 86.593,33.083 86.095 C 33.179 85.598,33.175 84.878,33.075 84.495 C 32.975 84.113,32.896 84.520,32.901 85.400 M137.300 84.687 C 137.905 84.778,138.895 84.778,139.500 84.687 C 140.105 84.595,139.610 84.520,138.400 84.520 C 137.190 84.520,136.695 84.595,137.300 84.687 M149.305 97.487 C 149.914 97.579,150.814 97.577,151.305 97.482 C 151.797 97.387,151.300 97.311,150.200 97.314 C 149.100 97.317,148.697 97.395,149.305 97.487 M161.700 110.276 C 162.085 110.376,162.715 110.376,163.100 110.276 C 163.485 110.175,163.170 110.093,162.400 110.093 C 161.630 110.093,161.315 110.175,161.700 110.276 M188.900 136.287 C 189.505 136.378,190.495 136.378,191.100 136.287 C 191.705 136.195,191.210 136.120,190.000 136.120 C 188.790 136.120,188.295 136.195,188.900 136.287 M200.900 149.087 C 201.505 149.178,202.495 149.178,203.100 149.087 C 203.705 148.995,203.210 148.920,202.000 148.920 C 200.790 148.920,200.295 148.995,200.900 149.087 M213.300 161.876 C 213.685 161.976,214.315 161.976,214.700 161.876 C 215.085 161.775,214.770 161.693,214.000 161.693 C 213.230 161.693,212.915 161.775,213.300 161.876 M240.500 187.887 C 241.105 187.978,242.095 187.978,242.700 187.887 C 243.305 187.795,242.810 187.720,241.600 187.720 C 240.390 187.720,239.895 187.795,240.500 187.887 M252.500 200.687 C 253.105 200.778,254.095 200.778,254.700 200.687 C 255.305 200.595,254.810 200.520,253.600 200.520 C 252.390 200.520,251.895 200.595,252.500 200.687 M265.100 213.482 C 265.595 213.578,266.405 213.578,266.900 213.482 C 267.395 213.387,266.990 213.309,266.000 213.309 C 265.010 213.309,264.605 213.387,265.100 213.482 M174.914 227.400 C 174.917 228.500,174.995 228.903,175.087 228.295 C 175.179 227.686,175.177 226.786,175.082 226.295 C 174.987 225.803,174.911 226.300,174.914 227.400 M292.900 239.487 C 293.505 239.578,294.495 239.578,295.100 239.487 C 295.705 239.395,295.210 239.320,294.000 239.320 C 292.790 239.320,292.295 239.395,292.900 239.487 M304.307 252.290 C 305.026 252.379,306.106 252.377,306.707 252.286 C 307.308 252.195,306.720 252.122,305.400 252.124 C 304.080 252.126,303.588 252.201,304.307 252.290 M316.700 265.082 C 317.195 265.178,318.005 265.178,318.500 265.082 C 318.995 264.987,318.590 264.909,317.600 264.909 C 316.610 264.909,316.205 264.987,316.700 265.082 M226.514 279.000 C 226.517 280.100,226.595 280.503,226.687 279.895 C 226.779 279.286,226.777 278.386,226.682 277.895 C 226.587 277.403,226.511 277.900,226.514 279.000 M344.500 291.087 C 345.105 291.178,346.095 291.178,346.700 291.087 C 347.305 290.995,346.810 290.920,345.600 290.920 C 344.390 290.920,343.895 290.995,344.500 291.087 M355.907 303.890 C 356.626 303.979,357.706 303.977,358.307 303.886 C 358.908 303.795,358.320 303.722,357.000 303.724 C 355.680 303.726,355.188 303.801,355.907 303.890 M368.300 316.682 C 368.795 316.778,369.605 316.778,370.100 316.682 C 370.595 316.587,370.190 316.509,369.200 316.509 C 368.210 316.509,367.805 316.587,368.300 316.682 M278.101 330.200 C 278.105 331.080,278.187 331.393,278.283 330.895 C 278.379 330.398,278.375 329.678,278.275 329.295 C 278.175 328.913,278.096 329.320,278.101 330.200 M290.893 342.800 C 290.893 343.570,290.975 343.885,291.076 343.500 C 291.176 343.115,291.176 342.485,291.076 342.100 C 290.975 341.715,290.893 342.030,290.893 342.800 M259.300 395.076 C 259.685 395.176,260.315 395.176,260.700 395.076 C 261.085 394.975,260.770 394.893,260.000 394.893 C 259.230 394.893,258.915 394.975,259.300 395.076 M236.300 419.882 C 236.795 419.978,237.605 419.978,238.100 419.882 C 238.595 419.787,238.190 419.709,237.200 419.709 C 236.210 419.709,235.805 419.787,236.300 419.882 M226.524 428.600 C 226.526 429.920,226.601 430.412,226.690 429.693 C 226.779 428.974,226.777 427.894,226.686 427.293 C 226.595 426.692,226.522 427.280,226.524 428.600 M223.800 432.412 L 221.400 432.690 224.085 432.682 C 225.562 432.678,226.676 432.523,226.561 432.337 C 226.447 432.152,226.318 432.030,226.276 432.067 C 226.234 432.104,225.120 432.259,223.800 432.412 M213.328 443.200 C 213.328 444.630,213.401 445.215,213.489 444.500 C 213.578 443.785,213.578 442.615,213.489 441.900 C 213.401 441.185,213.328 441.770,213.328 443.200 M209.507 445.490 C 210.226 445.579,211.306 445.577,211.907 445.486 C 212.508 445.395,211.920 445.322,210.600 445.324 C 209.280 445.326,208.788 445.401,209.507 445.490 M200.509 452.000 C 200.509 452.990,200.587 453.395,200.682 452.900 C 200.778 452.405,200.778 451.595,200.682 451.100 C 200.587 450.605,200.509 451.010,200.509 452.000 M196.033 458.144 C 196.475 458.524,200.000 458.745,200.000 458.392 C 200.000 458.177,199.070 458.000,197.933 458.000 C 196.797 458.000,195.942 458.065,196.033 458.144 M191.300 458.676 C 191.685 458.776,192.315 458.776,192.700 458.676 C 193.085 458.575,192.770 458.493,192.000 458.493 C 191.230 458.493,190.915 458.575,191.300 458.676 M187.429 461.429 C 187.281 462.015,187.251 462.584,187.361 462.694 C 187.471 462.804,187.681 462.415,187.829 461.829 C 187.976 461.242,188.006 460.673,187.896 460.563 C 187.786 460.453,187.576 460.842,187.429 461.429 M133.700 510.276 C 134.085 510.376,134.715 510.376,135.100 510.276 C 135.485 510.175,135.170 510.093,134.400 510.093 C 133.630 510.093,133.315 510.175,133.700 510.276 M120.800 522.800 L 118.600 523.070 120.676 523.135 C 121.818 523.171,122.864 523.020,123.000 522.800 C 123.136 522.580,123.192 522.429,123.124 522.465 C 123.056 522.501,122.010 522.652,120.800 522.800 M105.907 535.890 C 106.626 535.979,107.706 535.977,108.307 535.886 C 108.908 535.795,108.320 535.722,107.000 535.724 C 105.680 535.726,105.188 535.801,105.907 535.890 M97.314 543.800 C 97.317 544.900,97.395 545.303,97.487 544.695 C 97.579 544.086,97.577 543.186,97.482 542.695 C 97.387 542.203,97.311 542.700,97.314 543.800 M91.700 548.687 C 92.305 548.778,93.295 548.778,93.900 548.687 C 94.505 548.595,94.010 548.520,92.800 548.520 C 91.590 548.520,91.095 548.595,91.700 548.687 M17.600 613.200 L 15.400 613.470 17.476 613.535 C 18.618 613.571,19.664 613.420,19.800 613.200 C 19.936 612.980,19.992 612.829,19.924 612.865 C 19.856 612.901,18.810 613.052,17.600 613.200 M6.909 670.000 C 6.909 670.990,6.987 671.395,7.082 670.900 C 7.178 670.405,7.178 669.595,7.082 669.100 C 6.987 668.605,6.909 669.010,6.909 670.000 " stroke="none" fill="#585454" fill-rule="evenodd"></path><path id="path5" d="M58.500 7.076 C 58.885 7.176,59.515 7.176,59.900 7.076 C 60.285 6.975,59.970 6.893,59.200 6.893 C 58.430 6.893,58.115 6.975,58.500 7.076 M85.700 33.087 C 86.305 33.178,87.295 33.178,87.900 33.087 C 88.505 32.995,88.010 32.920,86.800 32.920 C 85.590 32.920,85.095 32.995,85.700 33.087 M97.705 45.887 C 98.314 45.979,99.214 45.977,99.705 45.882 C 100.197 45.787,99.700 45.711,98.600 45.714 C 97.500 45.717,97.097 45.795,97.705 45.887 M110.100 58.676 C 110.485 58.776,111.115 58.776,111.500 58.676 C 111.885 58.575,111.570 58.493,110.800 58.493 C 110.030 58.493,109.715 58.575,110.100 58.676 M32.901 85.400 C 32.905 86.280,32.987 86.593,33.083 86.095 C 33.179 85.598,33.175 84.878,33.075 84.495 C 32.975 84.113,32.896 84.520,32.901 85.400 M137.300 84.687 C 137.905 84.778,138.895 84.778,139.500 84.687 C 140.105 84.595,139.610 84.520,138.400 84.520 C 137.190 84.520,136.695 84.595,137.300 84.687 M149.305 97.487 C 149.914 97.579,150.814 97.577,151.305 97.482 C 151.797 97.387,151.300 97.311,150.200 97.314 C 149.100 97.317,148.697 97.395,149.305 97.487 M161.700 110.276 C 162.085 110.376,162.715 110.376,163.100 110.276 C 163.485 110.175,163.170 110.093,162.400 110.093 C 161.630 110.093,161.315 110.175,161.700 110.276 M188.900 136.287 C 189.505 136.378,190.495 136.378,191.100 136.287 C 191.705 136.195,191.210 136.120,190.000 136.120 C 188.790 136.120,188.295 136.195,188.900 136.287 M200.900 149.087 C 201.505 149.178,202.495 149.178,203.100 149.087 C 203.705 148.995,203.210 148.920,202.000 148.920 C 200.790 148.920,200.295 148.995,200.900 149.087 M213.300 161.876 C 213.685 161.976,214.315 161.976,214.700 161.876 C 215.085 161.775,214.770 161.693,214.000 161.693 C 213.230 161.693,212.915 161.775,213.300 161.876 M240.500 187.887 C 241.105 187.978,242.095 187.978,242.700 187.887 C 243.305 187.795,242.810 187.720,241.600 187.720 C 240.390 187.720,239.895 187.795,240.500 187.887 M252.500 200.687 C 253.105 200.778,254.095 200.778,254.700 200.687 C 255.305 200.595,254.810 200.520,253.600 200.520 C 252.390 200.520,251.895 200.595,252.500 200.687 M265.100 213.482 C 265.595 213.578,266.405 213.578,266.900 213.482 C 267.395 213.387,266.990 213.309,266.000 213.309 C 265.010 213.309,264.605 213.387,265.100 213.482 M174.914 227.400 C 174.917 228.500,174.995 228.903,175.087 228.295 C 175.179 227.686,175.177 226.786,175.082 226.295 C 174.987 225.803,174.911 226.300,174.914 227.400 M292.900 239.487 C 293.505 239.578,294.495 239.578,295.100 239.487 C 295.705 239.395,295.210 239.320,294.000 239.320 C 292.790 239.320,292.295 239.395,292.900 239.487 M304.307 252.290 C 305.026 252.379,306.106 252.377,306.707 252.286 C 307.308 252.195,306.720 252.122,305.400 252.124 C 304.080 252.126,303.588 252.201,304.307 252.290 M316.700 265.082 C 317.195 265.178,318.005 265.178,318.500 265.082 C 318.995 264.987,318.590 264.909,317.600 264.909 C 316.610 264.909,316.205 264.987,316.700 265.082 M226.514 279.000 C 226.517 280.100,226.595 280.503,226.687 279.895 C 226.779 279.286,226.777 278.386,226.682 277.895 C 226.587 277.403,226.511 277.900,226.514 279.000 M344.500 291.087 C 345.105 291.178,346.095 291.178,346.700 291.087 C 347.305 290.995,346.810 290.920,345.600 290.920 C 344.390 290.920,343.895 290.995,344.500 291.087 M355.907 303.890 C 356.626 303.979,357.706 303.977,358.307 303.886 C 358.908 303.795,358.320 303.722,357.000 303.724 C 355.680 303.726,355.188 303.801,355.907 303.890 M368.300 316.682 C 368.795 316.778,369.605 316.778,370.100 316.682 C 370.595 316.587,370.190 316.509,369.200 316.509 C 368.210 316.509,367.805 316.587,368.300 316.682 M278.101 330.200 C 278.105 331.080,278.187 331.393,278.283 330.895 C 278.379 330.398,278.375 329.678,278.275 329.295 C 278.175 328.913,278.096 329.320,278.101 330.200 M290.893 342.800 C 290.893 343.570,290.975 343.885,291.076 343.500 C 291.176 343.115,291.176 342.485,291.076 342.100 C 290.975 341.715,290.893 342.030,290.893 342.800 M259.300 395.076 C 259.685 395.176,260.315 395.176,260.700 395.076 C 261.085 394.975,260.770 394.893,260.000 394.893 C 259.230 394.893,258.915 394.975,259.300 395.076 M236.300 419.882 C 236.795 419.978,237.605 419.978,238.100 419.882 C 238.595 419.787,238.190 419.709,237.200 419.709 C 236.210 419.709,235.805 419.787,236.300 419.882 M226.524 428.600 C 226.526 429.920,226.601 430.412,226.690 429.693 C 226.779 428.974,226.777 427.894,226.686 427.293 C 226.595 426.692,226.522 427.280,226.524 428.600 M223.800 432.412 L 221.400 432.690 224.085 432.682 C 225.562 432.678,226.676 432.523,226.561 432.337 C 226.447 432.152,226.318 432.030,226.276 432.067 C 226.234 432.104,225.120 432.259,223.800 432.412 M213.328 443.200 C 213.328 444.630,213.401 445.215,213.489 444.500 C 213.578 443.785,213.578 442.615,213.489 441.900 C 213.401 441.185,213.328 441.770,213.328 443.200 M209.507 445.490 C 210.226 445.579,211.306 445.577,211.907 445.486 C 212.508 445.395,211.920 445.322,210.600 445.324 C 209.280 445.326,208.788 445.401,209.507 445.490 M200.509 452.000 C 200.509 452.990,200.587 453.395,200.682 452.900 C 200.778 452.405,200.778 451.595,200.682 451.100 C 200.587 450.605,200.509 451.010,200.509 452.000 M196.033 458.144 C 196.475 458.524,200.000 458.745,200.000 458.392 C 200.000 458.177,199.070 458.000,197.933 458.000 C 196.797 458.000,195.942 458.065,196.033 458.144 M191.300 458.676 C 191.685 458.776,192.315 458.776,192.700 458.676 C 193.085 458.575,192.770 458.493,192.000 458.493 C 191.230 458.493,190.915 458.575,191.300 458.676 M187.429 461.429 C 187.281 462.015,187.251 462.584,187.361 462.694 C 187.471 462.804,187.681 462.415,187.829 461.829 C 187.976 461.242,188.006 460.673,187.896 460.563 C 187.786 460.453,187.576 460.842,187.429 461.429 M133.700 510.276 C 134.085 510.376,134.715 510.376,135.100 510.276 C 135.485 510.175,135.170 510.093,134.400 510.093 C 133.630 510.093,133.315 510.175,133.700 510.276 M120.800 522.800 L 118.600 523.070 120.676 523.135 C 121.818 523.171,122.864 523.020,123.000 522.800 C 123.136 522.580,123.192 522.429,123.124 522.465 C 123.056 522.501,122.010 522.652,120.800 522.800 M105.907 535.890 C 106.626 535.979,107.706 535.977,108.307 535.886 C 108.908 535.795,108.320 535.722,107.000 535.724 C 105.680 535.726,105.188 535.801,105.907 535.890 M97.314 543.800 C 97.317 544.900,97.395 545.303,97.487 544.695 C 97.579 544.086,97.577 543.186,97.482 542.695 C 97.387 542.203,97.311 542.700,97.314 543.800 M91.700 548.687 C 92.305 548.778,93.295 548.778,93.900 548.687 C 94.505 548.595,94.010 548.520,92.800 548.520 C 91.590 548.520,91.095 548.595,91.700 548.687 M17.600 613.200 L 15.400 613.470 17.476 613.535 C 18.618 613.571,19.664 613.420,19.800 613.200 C 19.936 612.980,19.992 612.829,19.924 612.865 C 19.856 612.901,18.810 613.052,17.600 613.200 M6.909 670.000 C 6.909 670.990,6.987 671.395,7.082 670.900 C 7.178 670.405,7.178 669.595,7.082 669.100 C 6.987 668.605,6.909 669.010,6.909 670.000 " stroke="none" fill="#585454" fill-rule="evenodd"></path></g></svg>