<svg id="svg" version="1.1" xmlns="http://www.w3.org/2000/svg" xmlns:xlink="http://www.w3.org/1999/xlink" width="400" height="683.8709677419355" viewBox="0, 0, 400,683.8709677419355"><g id="svgg"><path id="path0" d="" stroke="none" fill="#fcfcfc" fill-rule="evenodd"></path><path id="path1" d="M9.600 3.168 L 9.600 6.336 8.397 6.601 C 7.735 6.746,7.009 7.210,6.783 7.633 C 6.430 8.291,5.917 8.400,3.186 8.400 L 0.000 8.400 0.000 33.200 L 0.000 58.000 3.400 58.000 L 6.800 58.000 6.823 62.300 C 6.862 69.793,7.351 70.306,14.795 70.681 L 19.600 70.922 19.617 74.561 C 19.656 82.688,21.049 84.000,29.639 84.000 L 32.278 84.000 32.544 88.656 C 32.952 95.801,33.461 96.281,41.067 96.692 L 45.134 96.912 45.386 100.756 C 45.744 106.217,45.968 107.447,46.734 108.140 C 47.582 108.908,51.705 109.593,55.500 109.597 L 58.400 109.600 58.423 113.900 C 58.462 121.383,58.956 121.907,66.343 122.278 L 71.096 122.517 71.286 127.434 C 71.556 134.436,72.976 135.600,81.249 135.600 L 84.000 135.600 84.013 138.100 C 84.060 147.029,85.318 148.344,93.853 148.386 C 97.230 148.403,97.186 148.333,97.195 153.640 C 97.205 160.009,97.999 160.728,105.428 161.094 L 109.907 161.314 110.076 166.157 C 110.326 173.331,110.506 173.504,118.090 173.885 L 122.800 174.122 122.802 177.161 C 122.809 185.817,123.543 186.589,132.226 187.074 L 135.452 187.255 135.839 192.426 C 136.341 199.129,137.381 199.946,145.453 199.986 C 148.835 200.003,148.786 199.924,148.795 205.313 C 148.804 211.629,149.551 212.295,157.054 212.684 L 161.507 212.914 161.676 217.757 C 161.926 224.931,162.106 225.104,169.690 225.485 L 174.400 225.722 174.402 228.761 C 174.409 237.417,175.143 238.189,183.826 238.674 L 187.052 238.855 187.439 244.026 C 187.941 250.729,188.981 251.546,197.053 251.586 C 200.435 251.603,200.386 251.524,200.395 256.913 C 200.404 263.250,201.108 263.862,208.854 264.280 L 213.107 264.509 213.270 269.397 C 213.509 276.587,213.527 276.604,221.500 277.061 L 226.000 277.319 226.002 280.359 C 226.009 289.017,226.743 289.789,235.426 290.274 L 238.652 290.455 239.039 295.626 C 239.541 302.329,240.581 303.146,248.653 303.186 C 252.024 303.203,251.974 303.125,252.017 308.400 C 252.070 314.843,252.815 315.505,260.454 315.893 L 264.707 316.109 264.876 320.954 C 265.122 328.015,265.411 328.288,273.044 328.683 L 277.488 328.913 277.708 333.557 C 278.062 341.001,278.200 341.138,285.700 341.495 L 290.400 341.718 290.412 344.159 C 290.430 347.743,291.123 352.495,291.713 353.085 C 292.583 353.955,296.677 354.800,300.020 354.800 C 303.139 354.800,303.200 354.819,303.200 355.792 C 303.200 356.550,302.940 356.842,302.100 357.025 C 296.603 358.228,294.069 360.636,292.793 365.870 C 292.335 367.748,290.872 368.462,286.400 368.992 C 281.250 369.602,279.573 371.376,278.751 377.084 C 278.187 381.004,278.438 380.799,273.683 381.212 C 266.639 381.824,265.810 382.632,265.235 389.452 C 264.852 393.990,265.527 393.426,259.888 393.915 C 252.889 394.522,252.459 394.971,252.104 402.055 L 251.891 406.311 247.245 406.597 C 239.690 407.062,239.459 407.294,238.977 414.900 C 238.704 419.199,238.704 419.200,237.652 419.225 C 226.396 419.496,226.029 419.781,226.010 428.270 L 226.000 432.340 220.413 432.470 C 213.099 432.640,213.440 432.299,213.270 439.613 L 213.140 445.200 207.996 445.200 C 200.186 445.200,200.441 444.959,200.109 452.664 L 199.883 457.927 194.106 458.064 C 188.787 458.189,188.274 458.267,187.641 459.049 C 187.263 459.516,185.884 460.207,184.577 460.585 C 180.051 461.891,177.735 464.265,176.767 468.590 C 176.238 470.954,174.924 471.694,170.435 472.155 C 165.325 472.680,163.063 475.141,162.548 480.736 C 162.237 484.126,162.636 483.861,157.092 484.354 C 150.214 484.964,149.515 485.698,148.988 492.852 L 148.704 496.703 144.252 496.990 C 136.852 497.467,136.494 497.803,135.985 504.743 C 135.797 507.304,135.634 509.419,135.622 509.443 C 135.610 509.467,133.575 509.609,131.100 509.759 C 123.333 510.229,123.257 510.302,122.908 517.645 L 122.687 522.290 119.444 522.543 C 117.660 522.682,115.443 522.796,114.519 522.798 C 110.685 522.803,110.006 524.015,110.002 530.856 L 110.000 535.112 105.100 535.377 C 96.819 535.825,97.333 535.348,96.953 542.922 L 96.681 548.343 90.907 548.471 C 84.166 548.622,84.000 548.716,84.000 552.385 C 84.000 554.533,83.946 554.647,82.580 555.383 C 80.997 556.235,78.600 558.723,77.917 560.221 C 77.514 561.106,77.234 561.200,74.990 561.200 C 73.205 561.200,72.240 561.405,71.554 561.928 C 71.029 562.329,69.520 562.890,68.200 563.176 C 64.887 563.892,62.973 564.952,61.824 566.708 C 60.953 568.038,60.606 569.104,59.828 572.849 C 59.560 574.139,58.331 574.653,54.739 574.975 C 48.306 575.553,46.768 577.190,46.076 584.200 L 45.800 587.000 41.084 587.464 C 34.114 588.150,33.320 588.950,32.870 595.739 L 32.600 599.800 27.949 600.091 C 20.483 600.559,20.114 600.920,19.727 608.151 L 19.484 612.684 14.465 612.921 C 7.135 613.267,6.907 613.511,6.840 621.100 L 6.800 625.600 3.400 625.600 L 0.000 625.600 0.000 645.000 L 0.000 664.400 3.142 664.400 L 6.284 664.400 6.565 669.828 C 6.933 676.927,7.099 677.200,11.019 677.200 L 12.800 677.200 12.800 680.400 L 12.800 683.600 35.400 683.600 L 58.000 683.600 58.000 680.400 L 58.000 677.200 62.551 677.200 C 70.207 677.200,70.800 676.606,70.800 668.940 L 70.800 664.400 76.200 664.400 C 79.533 664.400,81.600 664.247,81.600 664.000 C 81.600 663.780,81.960 663.600,82.400 663.600 C 82.933 663.600,83.200 663.333,83.200 662.800 C 83.200 662.360,83.380 662.000,83.600 662.000 C 83.847 662.000,84.000 659.933,84.000 656.600 L 84.000 651.200 89.381 651.200 C 94.684 651.200,96.800 650.801,96.800 649.801 C 96.800 649.543,97.889 649.029,99.219 648.659 C 103.933 647.348,105.943 645.195,107.209 640.100 C 107.558 638.695,107.796 638.400,108.582 638.400 C 109.105 638.400,109.593 638.224,109.667 638.009 C 109.740 637.794,111.240 637.420,113.000 637.178 C 118.808 636.380,120.429 634.754,121.287 628.866 C 121.834 625.112,121.476 625.370,126.918 624.807 C 133.162 624.162,134.260 623.117,134.653 617.446 C 134.985 612.654,134.899 612.800,137.384 612.800 C 138.577 612.800,139.664 612.620,139.800 612.400 C 139.936 612.180,140.946 612.000,142.043 612.000 C 146.510 612.000,148.391 608.775,148.398 601.100 L 148.400 599.600 151.545 599.600 C 159.936 599.600,161.200 598.334,161.200 589.933 L 161.200 586.800 165.254 586.800 C 173.013 586.800,173.734 586.146,173.941 578.918 L 174.082 574.000 178.861 574.000 C 186.403 574.000,187.200 573.210,187.200 565.739 L 187.200 561.200 192.400 561.200 C 195.600 561.200,197.600 561.046,197.600 560.800 C 197.600 560.580,197.915 560.399,198.300 560.397 C 199.562 560.391,200.000 558.518,200.000 553.120 L 200.000 548.000 205.381 548.000 C 210.736 548.000,212.800 547.602,212.800 546.569 C 212.800 546.289,213.693 545.875,214.813 545.635 C 219.777 544.570,222.481 541.761,223.413 536.700 C 223.654 535.389,223.830 535.200,224.811 535.200 C 225.428 535.200,225.993 535.036,226.067 534.835 C 226.140 534.634,227.809 534.194,229.776 533.856 C 235.213 532.924,236.922 531.022,237.446 525.321 L 237.711 522.443 239.675 522.021 C 240.755 521.790,242.252 521.600,243.000 521.600 C 248.871 521.600,250.373 519.929,251.000 512.700 L 251.268 509.600 253.411 509.600 C 254.589 509.600,255.664 509.420,255.800 509.200 C 255.936 508.980,256.910 508.800,257.964 508.800 C 262.766 508.800,264.400 506.051,264.400 497.971 L 264.400 496.400 267.545 496.400 C 274.129 496.400,276.800 495.225,276.800 492.330 C 276.800 491.489,276.980 490.800,277.200 490.800 C 277.437 490.800,277.600 489.344,277.600 487.233 L 277.600 483.667 282.300 483.533 C 287.596 483.383,289.315 482.828,289.534 481.196 C 289.607 480.648,289.832 480.029,290.034 479.820 C 290.235 479.611,290.400 477.496,290.400 475.120 L 290.400 470.800 295.020 470.800 C 302.422 470.800,303.200 470.022,303.200 462.620 L 303.200 458.000 308.120 458.000 C 315.760 458.000,316.000 457.755,316.000 449.981 L 316.000 444.800 321.581 444.800 C 327.112 444.800,329.200 444.412,329.200 443.383 C 329.200 443.115,330.034 442.685,331.054 442.428 C 336.119 441.153,339.600 437.202,339.600 432.727 C 339.600 432.186,339.907 432.000,340.800 432.000 C 341.460 432.000,342.000 431.842,342.000 431.649 C 342.000 431.455,343.395 431.090,345.099 430.836 C 351.146 429.937,352.758 428.340,353.598 422.417 C 354.105 418.838,353.867 419.011,359.013 418.490 C 365.544 417.830,366.586 416.734,367.062 410.027 L 367.313 406.499 369.956 406.246 C 378.702 405.409,380.000 404.607,380.000 400.043 C 380.000 398.946,380.180 397.936,380.400 397.800 C 380.620 397.664,380.800 396.573,380.800 395.376 L 380.800 393.200 383.945 393.200 C 392.158 393.200,393.600 391.763,393.600 383.580 L 393.600 380.400 396.800 380.400 L 400.000 380.400 400.000 361.200 L 400.000 342.000 396.800 342.000 L 393.600 342.000 393.600 338.073 C 393.600 329.986,392.855 329.206,385.125 329.202 L 380.850 329.200 380.682 324.900 C 380.359 316.651,380.385 316.676,371.953 316.180 L 367.705 315.930 367.518 311.060 C 367.239 303.828,367.113 303.701,359.864 303.333 L 354.903 303.082 354.717 298.236 C 354.438 290.996,354.168 290.728,346.900 290.474 L 342.000 290.303 342.000 286.529 C 342.000 278.531,341.417 277.852,334.383 277.660 L 329.248 277.521 329.081 273.260 C 328.758 265.056,328.779 265.076,320.353 264.580 L 316.105 264.330 315.918 259.460 C 315.639 252.220,315.520 252.101,308.212 251.731 L 303.200 251.477 303.200 247.958 C 303.200 239.828,302.579 239.109,295.342 238.868 L 290.400 238.703 290.394 234.852 C 290.382 227.002,289.728 226.247,282.786 226.060 L 277.600 225.920 277.600 221.783 C 277.600 219.457,277.425 217.539,277.200 217.400 C 276.980 217.264,276.800 216.753,276.800 216.265 C 276.800 213.829,275.724 213.390,268.753 212.980 L 264.505 212.730 264.318 207.860 C 264.040 200.653,263.877 200.495,256.310 200.115 L 251.600 199.878 251.600 196.359 C 251.600 188.270,251.034 187.612,243.806 187.300 L 238.800 187.084 238.794 183.242 C 238.782 175.420,238.144 174.684,231.200 174.467 L 226.000 174.305 226.000 170.176 C 226.000 167.855,225.825 165.939,225.600 165.800 C 225.380 165.664,225.200 165.133,225.200 164.621 C 225.200 162.331,224.173 161.873,218.355 161.568 C 211.992 161.235,212.944 162.125,212.719 156.295 C 212.440 149.049,212.403 149.012,204.844 148.570 L 200.000 148.287 200.000 144.763 C 200.000 136.669,199.435 136.012,192.206 135.700 L 187.200 135.484 187.194 131.642 C 187.181 123.767,186.567 123.075,179.397 122.865 L 174.000 122.707 173.990 118.654 C 173.971 110.594,173.755 110.336,166.708 109.966 C 160.400 109.635,161.344 110.525,161.119 104.695 C 160.840 97.449,160.803 97.412,153.244 96.970 L 148.400 96.687 148.400 93.163 C 148.400 85.069,147.835 84.412,140.606 84.100 L 135.600 83.884 135.600 80.148 C 135.600 72.225,134.906 71.462,127.518 71.260 L 122.400 71.120 122.390 67.060 C 122.371 58.994,122.156 58.736,115.108 58.366 C 112.189 58.213,109.755 58.068,109.700 58.044 C 109.645 58.020,109.586 56.245,109.568 54.100 C 109.503 46.253,109.096 45.802,101.700 45.372 L 96.800 45.087 96.800 41.574 C 96.800 33.553,96.163 32.809,89.030 32.501 L 84.048 32.286 83.871 28.043 C 83.533 19.924,83.491 19.878,76.221 19.666 L 70.903 19.510 70.718 14.386 C 70.452 7.011,70.236 6.800,62.983 6.800 C 57.841 6.800,58.000 6.916,58.000 3.157 L 58.000 0.000 33.800 0.000 L 9.600 0.000 9.600 3.168 " stroke="none" fill="#ffffff" fill-rule="evenodd"></path><path id="path2" d="" stroke="none" fill="#100fcfc" fill-rule="evenodd"></path><path id="path3" d="" stroke="none" fill="#100fcfc" fill-rule="evenodd"></path><path id="path4" d="" stroke="none" fill="#100fcfc" fill-rule="evenodd"></path><path id="path5" d="" stroke="none" fill="#100fcfc" fill-rule="evenodd"></path><path id="path6" d="" stroke="none" fill="#100fcfc" fill-rule="evenodd"></path></g></svg>